<svg width="311" height="230" viewBox="0 0 311 230" fill="none" xmlns="http://www.w3.org/2000/svg">
<path d="M8.21393 174.869C-9.75395 138.449 1.42263 97.1265 45.0401 82.6122C78.5547 71.4593 129.955 70.525 151.343 36.265C186.013 -19.2706 272.607 -13.0606 303.709 69.0573C332.009 143.778 273.232 262.513 193.74 221.671C127.498 187.637 116.84 225.472 73.7746 222.72C40.5631 220.598 14.2754 187.155 8.21393 174.869Z" fill="#F3F5FD"/>
<path d="M8.21393 174.869C-9.75395 138.449 1.42263 97.1265 45.0401 82.6122C78.5547 71.4593 129.955 70.525 151.343 36.265C186.013 -19.2706 272.607 -13.0606 303.709 69.0573C332.009 143.778 273.232 262.513 193.74 221.671C127.498 187.637 116.84 225.472 73.7746 222.72C40.5631 220.598 14.2754 187.155 8.21393 174.869Z" fill="#0F2167"/>
<g opacity="0.75">
<path d="M8.21393 174.869C-9.75395 138.449 1.42263 97.1265 45.0401 82.6122C78.5547 71.4593 129.955 70.525 151.343 36.265C186.013 -19.2706 272.607 -13.0606 303.709 69.0573C332.009 143.778 273.232 262.513 193.74 221.671C127.498 187.637 116.84 225.472 73.7746 222.72C40.5631 220.598 14.2754 187.155 8.21393 174.869Z" fill="#0F2167"/>
</g>
</svg>
