<svg width="57" height="33" viewBox="0 0 57 33" fill="none" xmlns="http://www.w3.org/2000/svg">
<path d="M26.1771 24.0937C30.7975 25.6825 35.5101 26.9892 40.289 28.0065C38.1267 30.1354 35.415 31.621 32.457 32.2971C29.4989 32.9733 26.4111 32.8134 23.5387 31.8354C20.6663 30.8573 18.1225 29.0996 16.1917 26.7588C14.2609 24.418 13.0192 21.5864 12.6054 18.5803C17.0134 20.6914 21.5457 22.5325 26.1771 24.0937Z" fill="#4CB9E7"/>
<path d="M44.2928 21.6262C43.6799 23.4339 42.7533 25.1196 41.5556 26.6058C36.5173 25.5959 31.5534 24.2451 26.6981 22.5628C21.8238 20.9322 17.0657 18.9729 12.4566 16.6983C12.4147 14.7897 12.7093 12.8887 13.3271 11.0825C13.7161 9.93967 14.2299 8.84327 14.8593 7.81313C15.1668 7.30833 15.5023 6.82111 15.8642 6.35371C17.9506 3.65522 20.8282 1.67628 24.0946 0.693632C27.361 -0.289012 30.8528 -0.226221 34.0818 0.87323C37.3108 1.97268 40.1154 4.05381 42.1034 6.82558C44.0914 9.59734 45.1635 12.9211 45.1697 16.3321C45.1707 16.9233 45.1387 17.514 45.0739 18.1015C44.944 19.3016 44.682 20.4836 44.2928 21.6262Z" fill="#4CB9E7"/>
<path d="M56.8816 26.9286C55.8735 29.8892 48.9429 29.7963 40.2888 28.0065C40.7388 27.5657 41.1618 27.0982 41.5555 26.6065C49.762 28.1926 54.854 27.869 55.3516 26.4076C55.8374 24.9808 52.1931 21.7421 45.0731 18.1019C45.1379 17.5143 45.1699 16.9236 45.1689 16.3325C52.7022 20.0841 57.8571 24.0634 56.8816 26.9286Z" fill="#FFECD6"/>
<path d="M41.5556 26.6065C41.1619 27.0982 40.7389 27.5657 40.289 28.0065C35.5102 26.9891 30.7975 25.6825 26.1771 24.0937C21.5458 22.5329 17.0135 20.6922 12.6054 18.5816C12.5181 17.9579 12.4684 17.3295 12.4567 16.6999C17.0657 18.9746 21.8238 20.934 26.6981 22.5647C31.5535 24.2466 36.5174 25.5969 41.5556 26.6065Z" fill="#FFECD6"/>
<path d="M12.6053 18.5816C4.65705 14.7192 -0.889828 10.5631 0.11823 7.60243C1.09373 4.73723 7.60971 4.7318 15.8635 6.35529C15.5016 6.82268 15.1661 7.30991 14.8586 7.81471C6.99747 6.35465 2.13402 6.69748 1.64818 8.12338C1.15086 9.58471 4.99094 12.9498 12.4566 16.6999C12.4683 17.3295 12.518 17.9579 12.6053 18.5816Z" fill="#FFECD6"/>
</svg>
