<svg width="318" height="175" viewBox="0 0 318 175" fill="none" xmlns="http://www.w3.org/2000/svg">
<path d="M313.745 67.762L310.332 76.2743L312.752 77.1963L316.165 68.684L313.745 67.762Z" fill="#0F2167"/>
<path d="M100.541 46.8888L98.6056 48.5785L104.86 55.3866L106.796 53.6969L100.541 46.8888Z" fill="#4CB9E7"/>
<path d="M129.217 77.3607L121.713 82.8398L123.271 84.8671L130.775 79.388L129.217 77.3607Z" fill="#0F2167"/>
<path d="M216.005 14.4851L214.224 16.3296L221.052 22.593L222.833 20.7486L216.005 14.4851Z" fill="#0F2167"/>
<path d="M166.358 16.5218L161.685 24.4455L163.937 25.7078L168.61 17.7841L166.358 16.5218Z" fill="#4CB9E7"/>
<path d="M234.211 84.2821L232.014 85.6337L237.018 93.3628L239.215 92.0112L234.211 84.2821Z" fill="#4CB9E7"/>
<path d="M132.332 121.919L130.008 123.051L134.198 131.227L136.522 130.095L132.332 121.919Z" fill="#4CB9E7"/>
<path d="M98.3294 100.407L95.6372 109.161L98.1255 109.888L100.818 101.134L98.3294 100.407Z" fill="#0F2167"/>
<path d="M260.965 127.687L253.179 132.777L254.626 134.881L262.412 129.79L260.965 127.687Z" fill="#0F2167"/>
<path d="M262.132 2.35814e-05L257.459 7.92348L259.711 9.18571L264.384 1.26225L262.132 2.35814e-05Z" fill="#4CB9E7"/>
<path d="M2.41975 64.8227L0 65.7447L3.41306 74.2569L5.83281 73.3349L2.41975 64.8227Z" fill="#4CB9E7"/>
<path d="M253.606 54.3065L252.048 56.3338L259.552 61.813L261.11 59.7857L253.606 54.3065Z" fill="#4CB9E7"/>
<path d="M42.8286 16.9637L36.0006 23.2271L37.781 25.0715L44.609 18.8081L42.8286 16.9637Z" fill="#0F2167"/>
<path d="M118.456 9.50494L116.203 10.7672L120.876 18.6909L123.128 17.4286L118.456 9.50494Z" fill="#0F2167"/>
<path d="M26.5869 108.991L21.5835 116.72L23.7807 118.071L28.784 110.342L26.5869 108.991Z" fill="#4CB9E7"/>
<path d="M4.42546 130.163L2.97836 132.268L10.7692 137.359L12.2163 135.254L4.42546 130.163Z" fill="#0F2167"/>
<path d="M305.003 29.2305L302.75 30.4927L307.423 38.4162L309.675 37.154L305.003 29.2305Z" fill="#0F2167"/>
<path d="M202.925 50.8237L196.671 57.6318L198.606 59.3215L204.861 52.5134L202.925 50.8237Z" fill="#0F2167"/>
<path d="M148.015 127.562L143.825 135.738L146.149 136.87L150.339 128.694L148.015 127.562Z" fill="#4CB9E7"/>
<path d="M182.019 106.051L179.531 106.778L182.223 115.532L184.712 114.805L182.019 106.051Z" fill="#0F2167"/>
<path d="M182.857 111.047L174.002 104.485C173.808 104.341 173.584 104.238 173.347 104.182C173.109 104.127 172.862 104.12 172.622 104.163C172.381 104.206 172.152 104.297 171.95 104.43C171.748 104.564 171.576 104.737 171.446 104.939C171.218 105.319 171.143 105.767 171.235 106.198C171.327 106.629 171.58 107.011 171.945 107.271L173.843 108.677L165.79 106.925C164.898 106.715 163.665 107.013 163.489 108.004C163.396 108.381 163.437 108.778 163.605 109.129C163.772 109.481 164.057 109.767 164.413 109.94C164.409 109.948 164.406 109.956 164.403 109.964C164.403 109.971 164.403 109.977 164.403 109.984L163.028 109.66C162.773 109.6 162.508 109.596 162.251 109.649C161.995 109.702 161.754 109.81 161.545 109.965C161.337 110.12 161.167 110.319 161.047 110.546C160.928 110.773 160.862 111.024 160.854 111.279C160.85 111.682 160.988 112.073 161.245 112.388C161.502 112.703 161.862 112.923 162.265 113.01L162.849 113.148C162.853 113.166 162.86 113.184 162.87 113.2C162.452 113.197 162.047 113.338 161.726 113.599C161.406 113.86 161.191 114.223 161.12 114.625C161.056 115.066 161.165 115.515 161.425 115.881C161.685 116.248 162.077 116.505 162.523 116.602L163.977 116.945C163.953 116.954 163.932 116.969 163.915 116.988C163.898 117.007 163.886 117.029 163.88 117.054C163.874 117.083 163.877 117.113 163.889 117.141C163.516 117.239 163.186 117.453 162.95 117.751C162.714 118.049 162.585 118.414 162.583 118.79C162.589 119.186 162.732 119.567 162.988 119.874C163.244 120.18 163.599 120.393 163.995 120.479L176.262 123.368C177.979 123.772 179.78 123.667 181.434 123.067C183.089 122.467 184.522 121.399 185.55 120C186.437 118.793 186.806 117.297 186.579 115.83C186.352 114.362 185.547 113.039 184.335 112.141L182.857 111.047Z" fill="#E98862"/>
<g opacity="0.2">
<path d="M172.377 111.714C172.366 111.754 172.34 111.788 172.304 111.81C172.268 111.832 172.225 111.839 172.183 111.83L164.526 110.152C164.505 110.147 164.485 110.139 164.468 110.127C164.45 110.115 164.435 110.1 164.424 110.082C164.413 110.065 164.405 110.045 164.401 110.024C164.398 110.004 164.398 109.983 164.403 109.963C164.408 109.942 164.416 109.923 164.429 109.906C164.441 109.889 164.456 109.875 164.475 109.864C164.493 109.853 164.513 109.845 164.534 109.841C164.555 109.838 164.576 109.838 164.597 109.843L172.254 111.521C172.275 111.525 172.295 111.534 172.313 111.546C172.33 111.558 172.345 111.573 172.356 111.591C172.368 111.609 172.375 111.628 172.379 111.649C172.383 111.669 172.382 111.691 172.377 111.711L172.377 111.714Z" fill="#0F2167"/>
</g>
<g opacity="0.2">
<path d="M171.711 115.026C171.701 115.067 171.675 115.102 171.638 115.124C171.602 115.145 171.558 115.152 171.516 115.143L162.97 113.272C162.949 113.267 162.93 113.258 162.912 113.246C162.895 113.234 162.88 113.219 162.868 113.202C162.857 113.184 162.849 113.164 162.846 113.144C162.842 113.123 162.843 113.102 162.848 113.082C162.858 113.041 162.885 113.006 162.921 112.984C162.957 112.962 163 112.954 163.042 112.962L171.588 114.833C171.609 114.838 171.629 114.846 171.646 114.858C171.664 114.87 171.679 114.885 171.69 114.903C171.702 114.921 171.709 114.94 171.713 114.961C171.717 114.982 171.716 115.003 171.711 115.023V115.026Z" fill="#0F2167"/>
</g>
<g opacity="0.2">
<path d="M171.012 118.618C171.002 118.659 170.976 118.693 170.94 118.715C170.903 118.737 170.86 118.744 170.819 118.735L164.002 117.242C163.96 117.233 163.923 117.208 163.9 117.172C163.877 117.137 163.869 117.094 163.879 117.053C163.888 117.012 163.914 116.976 163.95 116.954C163.987 116.931 164.031 116.924 164.073 116.933L170.89 118.426C170.911 118.43 170.931 118.439 170.948 118.451C170.966 118.463 170.98 118.478 170.992 118.496C171.003 118.513 171.011 118.533 171.015 118.553C171.018 118.574 171.018 118.595 171.013 118.616L171.012 118.618Z" fill="#0F2167"/>
</g>
<path d="M140.817 65.9135L145.761 56.2005C145.87 55.987 146.023 55.798 146.21 55.6454C146.398 55.4928 146.616 55.38 146.851 55.3141C147.086 55.2482 147.332 55.2307 147.574 55.2628C147.817 55.2948 148.049 55.3757 148.258 55.5002C148.635 55.7416 148.907 56.111 149.021 56.5369C149.135 56.9628 149.083 57.4148 148.875 57.8052L147.814 59.888L154.231 54.8313C154.935 54.2567 156.175 53.9904 156.784 54.8021C157.039 55.0996 157.183 55.4726 157.193 55.8603C157.203 56.2479 157.078 56.6274 156.838 56.9368C156.845 56.942 156.852 56.9478 156.858 56.9543C156.861 56.9598 156.865 56.9656 156.867 56.9717L157.952 56.0852C158.153 55.9213 158.389 55.8031 158.643 55.7393C158.897 55.6755 159.162 55.6677 159.419 55.7165C159.677 55.7653 159.919 55.8695 160.13 56.0214C160.341 56.1733 160.514 56.3691 160.638 56.5946C160.824 56.9535 160.879 57.3641 160.793 57.7576C160.706 58.1511 160.484 58.5037 160.162 58.7566L159.701 59.1336C159.706 59.1516 159.708 59.1704 159.706 59.189C160.078 59.0049 160.506 58.9559 160.912 59.0508C161.318 59.1458 161.676 59.3785 161.922 59.7072C162.181 60.0748 162.288 60.524 162.221 60.965C162.155 61.406 161.921 61.8064 161.565 62.0864L160.418 63.0225C160.444 63.0203 160.47 63.0242 160.494 63.0337C160.518 63.0433 160.539 63.0584 160.556 63.0776C160.575 63.1015 160.586 63.1302 160.589 63.1602C160.967 63.0859 161.36 63.135 161.707 63.2998C162.054 63.4646 162.336 63.736 162.509 64.0723C162.684 64.429 162.73 64.8328 162.64 65.2183C162.55 65.6038 162.33 65.9483 162.014 66.1962L152.339 74.0962C150.986 75.2014 149.325 75.8875 147.569 76.0663C145.813 76.2452 144.042 75.9087 142.484 75.1001C141.14 74.4029 140.128 73.2226 139.663 71.8098C139.198 70.397 139.316 68.863 139.992 67.5338L140.817 65.9135Z" fill="#E98862"/>
<g opacity="0.2">
<path d="M150.511 61.9727C150.539 62.0046 150.578 62.0246 150.62 62.0285C150.663 62.0323 150.705 62.0197 150.738 61.9932L156.835 57.1755C156.869 57.149 156.89 57.1107 156.895 57.069C156.899 57.0272 156.886 56.9854 156.859 56.9528C156.832 56.9202 156.793 56.8994 156.75 56.895C156.707 56.8907 156.664 56.9031 156.631 56.9295L150.534 61.7473C150.501 61.7736 150.48 61.8117 150.475 61.8532C150.471 61.8947 150.483 61.9363 150.51 61.9689L150.511 61.9727Z" fill="#0F2167"/>
</g>
<g opacity="0.2">
<path d="M152.616 64.6529C152.644 64.6847 152.683 64.7047 152.726 64.7085C152.768 64.7123 152.811 64.6996 152.844 64.6731L159.648 59.2966C159.681 59.2702 159.702 59.2321 159.707 59.1906C159.711 59.1491 159.699 59.1075 159.672 59.075C159.644 59.0438 159.605 59.0241 159.563 59.0198C159.521 59.0154 159.478 59.0268 159.444 59.0516L152.638 64.4271C152.605 64.4535 152.584 64.4916 152.579 64.5331C152.575 64.5746 152.587 64.6162 152.614 64.6487L152.616 64.6529Z" fill="#0F2167"/>
</g>
<g opacity="0.2">
<path d="M154.88 67.5679C154.907 67.5998 154.946 67.6199 154.989 67.6237C155.032 67.6276 155.074 67.6149 155.107 67.5885L160.535 63.2998C160.568 63.2733 160.589 63.235 160.594 63.1932C160.598 63.1515 160.586 63.1097 160.559 63.0771C160.531 63.0444 160.492 63.0237 160.449 63.0193C160.406 63.0149 160.364 63.0273 160.33 63.0538L154.901 67.3425C154.868 67.3689 154.847 67.407 154.842 67.4485C154.838 67.49 154.85 67.5316 154.877 67.5641L154.88 67.5679Z" fill="#0F2167"/>
</g>
<path d="M29.8617 57.5855C29.8617 57.5855 29.1645 67.7842 26.811 71.4834C20.0347 82.1358 18.0715 94.119 24.8573 100.38C31.643 106.641 74.9245 106.728 78.2035 92.3278C80.9639 80.2043 75.0401 78.9006 73.5985 68.9008C72.9464 64.3755 71.1522 54.8866 71.1522 54.8866" fill="#0A0A0A"/>
<path d="M67.0018 90.2165C66.9271 90.207 66.098 103.618 50.1166 102.449C39.0529 101.64 35.1081 90.1969 34.8548 90.1969C36.0476 89.9496 38.0562 89.5903 38.5859 89.3146C40.3282 88.4022 42.4829 87.4524 43.0454 84.1543C43.3702 82.2548 42.8197 72.5288 42.9889 70.6046L59.9716 74.301C59.7342 78.3631 58.0734 87.7795 63.8946 89.446C64.863 89.7223 65.9064 89.9759 67.0018 90.2165Z" fill="#E98862"/>
<path opacity="0.5" d="M60.2096 85.5983C59.9436 84.7625 59.7723 83.9009 59.6987 83.0289C59.5121 81.0388 59.5494 79.0349 59.8098 77.0528C56.3583 76.5985 53.1066 75.2096 50.4244 73.0439C50.1091 74.1791 48.3746 79.14 48.8549 80.2189C49.7619 82.2586 54.0269 85.5983 60.2096 85.5983Z" fill="#0F2167"/>
<path d="M58.0136 81.4203C51.3179 82.0534 42.6547 79.441 40.8602 70.7486L39.2409 62.9056C37.4463 54.2136 40.6747 46.2484 49.0699 44.6012C57.4654 42.955 65.1952 48.769 66.9898 57.4614L67.7069 60.9336C68.3953 64.2688 69.9597 80.2932 58.0136 81.4203Z" fill="#E98862"/>
<path opacity="0.1" d="M53.7574 70.0298C54.8592 69.9016 55.6743 69.1591 55.5779 68.3712C55.4815 67.5834 54.51 67.0486 53.4082 67.1767C52.3063 67.3049 51.4913 68.0475 51.5877 68.8353C51.6841 69.6232 52.6555 70.158 53.7574 70.0298Z" fill="#0F2167"/>
<path opacity="0.1" d="M65.4004 66.88C65.4979 67.6667 66.4705 68.2008 67.5724 68.0742C67.7628 68.0519 67.9503 68.0104 68.1319 67.9504C68.1833 67.0124 68.1862 66.1101 68.1582 65.2746C67.8522 65.2 67.5345 65.1818 67.2217 65.2211C66.1198 65.3478 65.305 66.0902 65.4004 66.88Z" fill="#0F2167"/>
<path opacity="0.5" d="M60.5318 69.3117C60.5372 69.3112 60.5426 69.3104 60.548 69.3092C60.8883 69.2401 61.2244 69.1527 61.5547 69.0474C62.0477 68.8866 62.6914 68.6226 62.603 68.1879C62.5011 67.6927 60.005 62.6221 59.7218 62.0462C59.7102 62.0202 59.6934 61.9968 59.6723 61.9773C59.6511 61.9578 59.6262 61.9426 59.599 61.9327C59.5717 61.9228 59.5427 61.9184 59.5136 61.9197C59.4846 61.921 59.4561 61.928 59.4299 61.9402C59.4037 61.9525 59.3803 61.9698 59.3611 61.9911C59.3419 62.0124 59.3273 62.0372 59.3181 62.0641C59.309 62.091 59.3055 62.1195 59.3079 62.1477C59.3103 62.176 59.3186 62.2035 59.3321 62.2285C60.3963 64.388 62.1104 67.9384 62.1792 68.2718C62.1253 68.4272 61.3076 68.7308 60.4636 68.8967C60.4356 68.9011 60.4087 68.9109 60.3846 68.9254C60.3604 68.9399 60.3395 68.9589 60.3229 68.9813C60.3063 69.0037 60.2944 69.0291 60.2878 69.056C60.2813 69.0829 60.2803 69.1108 60.2848 69.1381C60.2893 69.1654 60.2993 69.1916 60.3142 69.2151C60.3291 69.2386 60.3486 69.2591 60.3716 69.2752C60.3946 69.2914 60.4206 69.303 60.4482 69.3094C60.4758 69.3158 60.5044 69.3168 60.5324 69.3124L60.5318 69.3117Z" fill="#0F2167"/>
<path d="M32.5422 65.7217L40.0687 64.2885C45.7542 61.9708 47.3672 52.3116 47.3672 52.3116C47.3672 52.3116 54.3838 58.8259 71.1534 54.8867C71.1534 54.8867 67.5107 32.0656 42.7489 38.9943C34.7648 41.2278 29.1092 49.1613 29.9503 59.6693C30.5398 67.0311 32.5422 65.7217 32.5422 65.7217Z" fill="#0A0A0A"/>
<path d="M41.9282 73.2946C39.377 73.7952 36.7594 71.5401 36.245 69.0524C35.7306 66.5647 37.5168 64.7881 40.068 64.2873L41.7269 65.696L44.1213 72.8638L41.9282 73.2946Z" fill="#E98862"/>
<path d="M61.5303 58.0024C62.1687 57.5624 62.9151 57.295 63.6938 57.2274C64.0851 57.1908 64.4798 57.2122 64.8646 57.2907C65.2525 57.3678 65.6291 57.492 65.9853 57.6605L65.9963 57.6656C66.0358 57.6826 66.0806 57.6838 66.121 57.6691C66.1614 57.6543 66.1943 57.6248 66.2127 57.5867C66.231 57.5486 66.2334 57.5051 66.2192 57.4653C66.2051 57.4256 66.1756 57.3928 66.137 57.374C65.7595 57.1797 65.3584 57.0325 64.9432 56.9359C64.5251 56.8368 64.0941 56.7995 63.6646 56.8254C62.7948 56.8722 61.9537 57.1455 61.229 57.6168C61.2019 57.6347 61.1788 57.6575 61.1608 57.6841C61.1429 57.7107 61.1305 57.7404 61.1244 57.7717C61.1183 57.8029 61.1185 57.835 61.1251 57.8662C61.1318 57.8973 61.1446 57.9269 61.163 57.9532C61.1814 57.9795 61.2049 58.002 61.2322 58.0194C61.2595 58.0369 61.2901 58.0489 61.3221 58.0548C61.3542 58.0607 61.3871 58.0603 61.4191 58.0538C61.451 58.0472 61.4813 58.0346 61.5082 58.0167L61.5141 58.0129L61.5303 58.0024Z" fill="#0F2167"/>
<path d="M54.655 58.9288C53.8003 58.763 52.9156 58.8239 52.0933 59.1051C51.6869 59.2416 51.3037 59.4368 50.9567 59.6841C50.611 59.9283 50.2983 60.214 50.026 60.5345C49.9984 60.5663 49.9847 60.6073 49.9875 60.6489C49.9903 60.6904 50.0095 60.7293 50.0411 60.7574C50.0727 60.7854 50.1142 60.8004 50.1569 60.7993C50.1996 60.7982 50.2402 60.781 50.2702 60.7513L50.2789 60.7425C50.5417 60.4539 50.8407 60.1986 51.1688 59.9827C51.4934 59.7668 51.8497 59.6 52.2255 59.4879C52.9714 59.2594 53.7661 59.2278 54.5287 59.396L54.5475 59.4008C54.6115 59.4159 54.679 59.4056 54.7352 59.3722C54.7914 59.3388 54.8317 59.2849 54.8472 59.2226C54.8627 59.1602 54.8522 59.0943 54.8179 59.0395C54.7836 58.9847 54.7284 58.9455 54.6644 58.9304L54.655 58.9288Z" fill="#0F2167"/>
<path d="M40.0739 64.1675C45.1332 62.3314 46.8122 58.9256 47.3292 56.391C47.6638 54.7007 47.6325 52.9608 47.2373 51.283L47.0808 51.3251C47.4701 52.9811 47.5002 54.698 47.1691 56.366C46.6586 58.8591 45.0037 62.2104 40.0171 64.0197L40.0739 64.1675Z" fill="#0F2167"/>
<path d="M80.0176 91.8118L128.057 107.466L113.953 113.577L137.907 65.6722L157.484 74.5663L135.259 123.257C134.135 125.719 132.14 127.705 129.638 128.851C127.136 129.997 124.294 130.228 121.632 129.501L121.154 129.368L72.3875 116.021L80.0176 91.8118Z" fill="#0F2167"/>
<path d="M49.8185 99.096C38.747 98.5873 38.2809 89.4267 38.2809 89.4267C38.2809 89.4267 32.7952 89.7724 29.1485 90.2533C23.1783 91.0406 19.2397 93.0142 16.1052 96.0695C13.1895 98.9121 11.4144 101.987 13.2928 121.621C14.6529 135.838 13.6958 167.107 13.6958 167.107H81.1633C81.1633 167.107 85.8745 121.931 86.4331 115.533C87.499 103.316 90.5104 100.619 84.4089 94.3261C79.9842 89.7623 68.561 89.4267 63.9631 89.4273C63.8881 89.4273 64.8961 99.789 49.8185 99.096Z" fill="#0F2167"/>
<path d="M62.7761 71.0251C60.6006 72.1034 58.1186 72.4444 55.7221 71.9941C55.6391 71.979 55.5535 71.9871 55.4751 72.0177C55.3967 72.0482 55.3288 72.0998 55.2794 72.1666C55.23 72.2333 55.2011 72.3123 55.196 72.3945C55.191 72.4766 55.21 72.5585 55.2509 72.6304C55.9654 73.8575 57.6599 75.9546 60.5671 75.0998C62.4442 74.5477 63.1538 72.6653 63.4168 71.5006C63.4348 71.42 63.4288 71.3361 63.3996 71.2588C63.3704 71.1814 63.3191 71.1138 63.2518 71.0639C63.1845 71.0139 63.104 70.9837 63.0198 70.9769C62.9355 70.97 62.851 70.9867 62.7761 71.0251Z" fill="white"/>
<path d="M62.9122 61.5935C63.4928 61.5935 63.9634 61.1347 63.9634 60.5687C63.9634 60.0027 63.4928 59.5439 62.9122 59.5439C62.3316 59.5439 61.861 60.0027 61.861 60.5687C61.861 61.1347 62.3316 61.5935 62.9122 61.5935Z" fill="#0F2167"/>
<path d="M52.8111 63.3172C53.3916 63.3172 53.8623 62.8584 53.8623 62.2924C53.8623 61.7265 53.3916 61.2676 52.8111 61.2676C52.2305 61.2676 51.7598 61.7265 51.7598 62.2924C51.7598 62.8584 52.2305 63.3172 52.8111 63.3172Z" fill="#0F2167"/>
<path d="M86.2831 119.984C86.2763 119.984 86.2694 119.984 86.2626 119.984C86.22 119.979 86.1812 119.957 86.1547 119.924C86.1283 119.891 86.1164 119.849 86.1217 119.807L87.1664 111.552C87.1686 111.531 87.1751 111.511 87.1855 111.493C87.1959 111.474 87.21 111.458 87.2269 111.445C87.2437 111.433 87.2631 111.423 87.2838 111.418C87.3045 111.412 87.3261 111.411 87.3473 111.414C87.3685 111.417 87.3889 111.423 87.4075 111.434C87.4261 111.444 87.4424 111.458 87.4555 111.474C87.4686 111.49 87.4783 111.509 87.4839 111.529C87.4896 111.549 87.4912 111.57 87.4886 111.591L86.4438 119.846C86.4386 119.884 86.4195 119.919 86.3899 119.945C86.3604 119.97 86.3224 119.984 86.2831 119.984Z" fill="#0F2167"/>
<path d="M257.059 56.2806C257.059 56.2806 253.035 51.8747 253.502 43.6236C253.863 37.235 258.918 42.4016 258.918 42.4016C258.918 42.4016 259.224 37.8039 262.48 38.8986C265.735 39.9934 266.649 45.0631 266.649 45.0631" fill="#0F2167"/>
<path d="M279.677 42.785C279.677 42.785 295.932 47.7487 285.441 68.5231L283.952 68.3331L280.929 67.9485" fill="#0F2167"/>
<path d="M256.553 90.183C256.628 90.1735 257.454 103.54 273.382 102.375C284.409 101.569 288.341 90.1643 288.594 90.1643C287.405 89.9177 285.403 89.5596 284.875 89.2848C283.138 88.3753 280.99 87.429 280.43 84.142C280.108 82.2472 280.655 72.5551 280.487 70.6378L263.56 74.3206C263.797 78.3691 265.452 87.7545 259.65 89.4156C258.685 89.6904 257.644 89.943 256.553 90.183Z" fill="#E98862"/>
<path opacity="0.52" d="M263.323 85.5802C263.588 84.7471 263.758 83.8883 263.832 83.019C264.018 81.0356 263.981 79.0382 263.721 77.0626C267.162 76.61 270.403 75.2258 273.076 73.0673C273.39 74.1988 275.119 79.1431 274.64 80.2186C273.736 82.2513 269.485 85.5802 263.323 85.5802Z" fill="#0F2167"/>
<path d="M265.352 81.0537C272.018 81.7537 280.681 79.2429 282.567 70.5989L284.267 62.7993C286.151 54.1566 283.023 46.1829 274.674 44.4527C266.325 42.7226 258.557 48.4369 256.672 57.0809L255.919 60.5338C255.682 61.7238 255.528 62.9281 255.458 64.1384C255.251 67.3359 254.948 72.2002 256.462 75.8244C257.891 79.246 261.094 80.6064 265.352 81.0537Z" fill="#E98862"/>
<path d="M260.057 61.1401C260.638 61.1401 261.108 60.6813 261.108 60.1153C261.108 59.5493 260.638 59.0905 260.057 59.0905C259.477 59.0905 259.006 59.5493 259.006 60.1153C259.006 60.6813 259.477 61.1401 260.057 61.1401Z" fill="#0F2167"/>
<path d="M270.042 62.1649C270.622 62.1649 271.093 61.7061 271.093 61.1401C271.093 60.5741 270.622 60.1153 270.042 60.1153C269.461 60.1153 268.99 60.5741 268.99 61.1401C268.99 61.7061 269.461 62.1649 270.042 62.1649Z" fill="#0F2167"/>
<path d="M281.474 73.1249C284.011 73.6507 286.645 71.4309 287.184 68.9574C287.723 66.4839 285.964 64.694 283.427 64.1681L281.758 65.5545L279.292 72.6728L281.474 73.1249Z" fill="#E98862"/>
<path d="M279.759 68.6488C279.759 68.6488 281.408 56.2195 277.748 54.7211C275.313 53.7232 268.433 56.0387 262.943 53.8692C260.542 52.9194 258.049 53.0619 257.573 54.1645C257.384 54.6011 257.167 47.7585 262.091 43.5543C266.011 40.2068 276.425 41.0701 280.794 43.2665C292.891 49.3477 283.843 64.8102 283.843 64.8102L282.406 68.9258L279.759 68.6488Z" fill="#0F2167"/>
<g opacity="0.52">
<path d="M262.792 69.538L262.775 69.5355C261.957 69.368 260.605 68.9973 260.732 68.4018C260.839 67.9076 263.375 62.8556 263.665 62.2814C263.69 62.2319 263.733 62.1942 263.787 62.1764C263.84 62.1586 263.899 62.1622 263.949 62.1864C264 62.2106 264.039 62.2535 264.057 62.3055C264.075 62.3576 264.072 62.4146 264.047 62.464C262.922 64.701 261.222 68.1511 261.149 68.487C261.199 68.6453 262.016 68.9559 262.863 69.129C262.916 69.1406 262.962 69.1717 262.993 69.2158C263.023 69.2599 263.035 69.3137 263.026 69.3661C263.017 69.4185 262.988 69.4655 262.944 69.4975C262.901 69.5295 262.846 69.544 262.792 69.538Z" fill="#0F2167"/>
</g>
<path d="M262.603 56.9097C261.8 56.5143 260.901 56.3374 260.003 56.3977C259.562 56.4248 259.127 56.5163 258.713 56.6691C258.304 56.8183 257.916 57.0175 257.558 57.2617C257.498 57.2988 257.456 57.3574 257.44 57.4248C257.424 57.4923 257.436 57.5631 257.473 57.622C257.51 57.6809 257.57 57.7232 257.639 57.7397C257.708 57.7562 257.781 57.7457 257.842 57.7103L257.86 57.6998C258.189 57.5014 258.541 57.344 258.91 57.2313C259.273 57.1181 259.652 57.0593 260.033 57.0569C260.787 57.0461 261.53 57.2297 262.187 57.589L262.212 57.6033C262.258 57.63 262.309 57.6476 262.362 57.6551C262.415 57.6625 262.469 57.6596 262.521 57.6466C262.573 57.6336 262.622 57.6108 262.665 57.5793C262.707 57.5479 262.743 57.5085 262.77 57.4634C262.798 57.4184 262.815 57.3686 262.823 57.3168C262.83 57.2651 262.826 57.2124 262.813 57.1619C262.799 57.1114 262.775 57.064 262.743 57.0225C262.71 56.981 262.67 56.9462 262.623 56.9201L262.603 56.9097Z" fill="#0F2167"/>
<path d="M268.614 58.4935C269.345 58.3109 270.111 58.3195 270.837 58.5185C271.205 58.6166 271.555 58.7683 271.876 58.9684C272.202 59.1697 272.502 59.4102 272.767 59.6842L272.781 59.6984C272.831 59.7457 272.898 59.7724 272.968 59.7728C273.038 59.7732 273.105 59.7474 273.155 59.7006C273.206 59.6539 273.236 59.5899 273.24 59.522C273.243 59.4542 273.22 59.3876 273.174 59.3362C272.892 59.0107 272.57 58.721 272.214 58.4742C271.854 58.2231 271.458 58.0259 271.039 57.8892C270.187 57.6055 269.272 57.5508 268.391 57.7309C268.339 57.7419 268.29 57.7629 268.246 57.7926C268.202 57.8223 268.165 57.8601 268.136 57.9039C268.078 57.9923 268.058 58.0996 268.081 58.2023C268.104 58.3049 268.168 58.3945 268.258 58.4512C268.349 58.508 268.459 58.5273 268.564 58.5049L268.585 58.4998L268.614 58.4935Z" fill="#0F2167"/>
<path d="M261.506 71.4556C263.873 72.0323 266.371 71.8233 268.603 70.8617C268.681 70.8288 268.766 70.8181 268.849 70.8307C268.933 70.8434 269.011 70.8789 269.074 70.9331C269.138 70.9874 269.184 71.0581 269.208 71.137C269.232 71.216 269.232 71.2999 269.209 71.379C268.793 72.7311 267.624 75.1463 264.594 74.9462C262.638 74.8177 261.514 73.1376 260.989 72.0599C260.953 71.9852 260.939 71.9019 260.95 71.8199C260.961 71.7379 260.995 71.6605 261.05 71.597C261.104 71.5334 261.176 71.4864 261.256 71.4613C261.337 71.4362 261.424 71.4343 261.506 71.4556Z" fill="white"/>
<path d="M270.901 45.3252C272.033 42.7362 271.487 40.03 269.683 39.2806C267.878 38.5313 265.498 40.0227 264.367 42.6116C263.236 45.2006 263.781 47.9068 265.586 48.6561C267.39 49.4055 269.77 47.9141 270.901 45.3252Z" fill="#0F2167"/>
<path d="M273.63 99.096C284.701 98.5873 285.167 89.4267 285.167 89.4267C285.167 89.4267 290.653 89.7724 294.3 90.2533C300.27 91.0406 304.209 93.0142 307.343 96.0695C310.259 98.9121 312.034 101.987 310.155 121.621C308.795 135.838 309.753 167.107 309.753 167.107H242.285C242.285 167.107 237.574 121.932 237.015 115.533C235.949 103.316 232.938 100.619 239.039 94.3261C243.464 89.7623 254.887 89.4267 259.485 89.4273C259.56 89.4273 258.553 99.789 273.63 99.096Z" fill="#0F2167"/>
<path d="M236.856 97.1554L219.412 133.205L185.013 107.988L171.35 125.699L216.9 159.091C217.308 159.386 217.734 159.657 218.175 159.901C219.477 160.612 220.909 161.066 222.391 161.237C223.872 161.409 225.374 161.294 226.81 160.899C228.245 160.505 229.588 159.838 230.759 158.938C231.931 158.038 232.909 156.922 233.639 155.653L233.836 155.31L260.449 109.004L236.856 97.1554Z" fill="#0F2167"/>
<path d="M312.341 167.424H5.09764C5.01151 167.424 4.9289 167.39 4.868 167.331C4.8071 167.272 4.77288 167.191 4.77288 167.107C4.77288 167.023 4.8071 166.943 4.868 166.883C4.9289 166.824 5.01151 166.791 5.09764 166.791H312.341C312.428 166.791 312.51 166.824 312.571 166.883C312.632 166.943 312.666 167.023 312.666 167.107C312.666 167.191 312.632 167.272 312.571 167.331C312.51 167.39 312.428 167.424 312.341 167.424Z" fill="#292A2E"/>
<path d="M245.514 120.019H80.9873V174.841H245.514V120.019Z" fill="white"/>
<path d="M245.676 175H80.8249V119.86H245.676V175ZM81.1497 174.683H245.351V120.177H81.1497V174.683Z" fill="#0F2167"/>
<path d="M72.8633 136.773L83.0193 132.352C83.2425 132.255 83.4839 132.204 83.7283 132.203C83.9727 132.201 84.2147 132.25 84.4388 132.345C84.663 132.44 84.8644 132.579 85.0302 132.754C85.196 132.929 85.3226 133.136 85.402 133.362C85.5353 133.782 85.5037 134.236 85.3133 134.635C85.1229 135.034 84.7873 135.35 84.3716 135.521L82.1938 136.471L90.4461 136.554C91.3638 136.547 92.494 137.111 92.4336 138.115C92.4362 138.503 92.3039 138.88 92.0584 139.186C91.8128 139.491 91.4683 139.706 91.0813 139.795C91.0836 139.804 91.0849 139.812 91.0852 139.821C91.0842 139.828 91.0828 139.834 91.081 139.84L92.4962 139.831C92.7582 139.829 93.0171 139.884 93.2544 139.993C93.4916 140.101 93.7011 140.259 93.8675 140.456C94.034 140.653 94.1533 140.884 94.2168 141.132C94.2802 141.38 94.2862 141.638 94.2343 141.888C94.1441 142.281 93.9182 142.632 93.5945 142.882C93.2707 143.131 92.8688 143.265 92.456 143.261L91.8539 143.265C91.8459 143.282 91.8349 143.297 91.8214 143.311C92.2288 143.4 92.5905 143.628 92.8416 143.953C93.0927 144.278 93.217 144.68 93.1922 145.086C93.1519 145.53 92.9413 145.943 92.6024 146.242C92.2636 146.542 91.8214 146.705 91.3641 146.701L89.8683 146.711C89.8894 146.725 89.9066 146.744 89.9188 146.766C89.931 146.788 89.9377 146.813 89.9385 146.838C89.9371 146.868 89.927 146.897 89.9092 146.921C90.2496 147.099 90.5206 147.381 90.6806 147.723C90.8406 148.066 90.8807 148.45 90.7949 148.817C90.6965 149.2 90.4684 149.54 90.1473 149.781C89.8262 150.023 89.431 150.151 89.0256 150.146L76.4057 150.234C74.6403 150.246 72.9115 149.744 71.4406 148.793C69.9698 147.841 68.824 146.483 68.1501 144.892C67.5691 143.52 67.5595 141.982 68.1235 140.604C68.6874 139.225 69.7804 138.116 71.1703 137.51L72.8633 136.773Z" fill="#E98862"/>
<g opacity="0.2">
<path d="M82.9124 139.751C82.913 139.793 82.9304 139.833 82.9608 139.862C82.9912 139.891 83.0321 139.908 83.0748 139.908L90.9228 139.976C90.9659 139.977 91.0073 139.96 91.0381 139.931C91.0688 139.901 91.0863 139.861 91.0866 139.819C91.087 139.777 91.0703 139.737 91.0401 139.707C91.0099 139.677 90.9688 139.66 90.9257 139.66L83.0777 139.591C83.0347 139.591 82.9934 139.607 82.9629 139.637C82.9325 139.667 82.9154 139.707 82.9154 139.749L82.9124 139.751Z" fill="#0F2167"/>
</g>
<g opacity="0.2">
<path d="M82.7858 143.126C82.7864 143.167 82.8038 143.207 82.8341 143.236C82.8645 143.266 82.9055 143.282 82.9482 143.282L91.7064 143.359C91.7495 143.359 91.7908 143.342 91.8213 143.313C91.8517 143.283 91.8688 143.243 91.8688 143.201C91.8674 143.159 91.8498 143.12 91.8197 143.09C91.7895 143.061 91.749 143.044 91.7064 143.042L82.9482 142.965C82.9267 142.965 82.9054 142.969 82.8855 142.977C82.8656 142.985 82.8476 142.996 82.8323 143.011C82.8171 143.026 82.8049 143.043 82.7967 143.063C82.7884 143.082 82.7842 143.103 82.7842 143.124L82.7858 143.126Z" fill="#0F2167"/>
</g>
<g opacity="0.2">
<path d="M82.627 146.777C82.6276 146.819 82.645 146.859 82.6753 146.888C82.7057 146.917 82.7467 146.933 82.7894 146.933L89.7758 146.995C89.8188 146.995 89.8603 146.979 89.891 146.95C89.9218 146.92 89.9392 146.88 89.9396 146.838C89.94 146.796 89.9233 146.756 89.8931 146.726C89.8629 146.696 89.8218 146.679 89.7787 146.678L82.7923 146.617C82.7492 146.617 82.7079 146.634 82.6775 146.663C82.647 146.693 82.6299 146.733 82.6299 146.775L82.627 146.777Z" fill="#0F2167"/>
</g>
<path d="M75.7701 154.402L19.4621 166.88C17.5915 167.078 15.6992 166.851 13.9337 166.217C12.1681 165.583 10.5773 164.559 9.28608 163.224C7.99487 161.89 7.03837 160.282 6.49163 158.527C5.94489 156.772 5.82278 154.917 6.13489 153.108L12.5786 102.582C13.1145 99.4769 14.8938 96.7067 17.525 94.8805C20.1561 93.0544 23.4237 92.3219 26.6088 92.8443C29.7939 93.3668 32.6357 95.1012 34.509 97.6662C36.3823 100.231 37.1336 103.416 36.5977 106.521L33.4947 142.686L72.6158 134.056L75.7701 154.402Z" fill="#0F2167"/>
<path d="M25.5782 144.107C25.5374 144.107 25.4983 144.092 25.4685 144.065C25.4388 144.037 25.4206 144 25.4176 143.961C25.4146 143.921 25.427 143.882 25.4524 143.851C25.4778 143.819 25.5142 143.799 25.5545 143.793L33.4009 142.159C33.422 142.156 33.4436 142.157 33.4643 142.162C33.4851 142.167 33.5047 142.176 33.5219 142.188C33.5391 142.2 33.5536 142.216 33.5645 142.234C33.5754 142.252 33.5825 142.272 33.5853 142.292C33.5917 142.334 33.5809 142.376 33.5553 142.41C33.5297 142.443 33.4915 142.466 33.4489 142.472L25.6026 144.105C25.5945 144.107 25.5864 144.107 25.5782 144.107Z" fill="#0F2167"/>
<path d="M21.1515 167.107C21.1084 167.11 21.066 167.096 21.0336 167.068C21.0011 167.04 20.9814 167.001 20.9786 166.959C20.9758 166.917 20.9902 166.876 21.0187 166.844C21.0471 166.813 21.0873 166.793 21.1304 166.791L75.4168 154.327L72.3407 134.287L33.4531 142.471C33.428 142.474 33.4025 142.471 33.3785 142.463C33.3546 142.455 33.3329 142.441 33.3151 142.424C33.2974 142.406 33.2842 142.384 33.2767 142.361C33.2691 142.337 33.2674 142.312 33.2716 142.287L35.453 121.624C35.4562 121.603 35.4637 121.584 35.4749 121.566C35.4862 121.548 35.5009 121.533 35.5184 121.521C35.5358 121.508 35.5556 121.5 35.5765 121.495C35.5974 121.491 35.619 121.49 35.64 121.494C35.6825 121.501 35.7204 121.524 35.7453 121.558C35.7703 121.593 35.7803 121.635 35.7732 121.677L33.6298 142.128L72.4164 133.938C72.4373 133.932 72.4591 133.931 72.4806 133.933C72.502 133.936 72.5227 133.943 72.5414 133.954C72.5601 133.964 72.5764 133.979 72.5894 133.995C72.6024 134.012 72.6118 134.032 72.6171 134.052L75.7714 154.4C75.7814 154.44 75.775 154.482 75.7536 154.517C75.7322 154.553 75.6975 154.579 75.6568 154.59L21.1726 167.106C21.1656 167.107 21.1585 167.107 21.1515 167.107Z" fill="#0F2167"/>
<path d="M250.585 146.271L240.429 141.849C240.206 141.752 239.964 141.701 239.72 141.7C239.476 141.699 239.234 141.747 239.009 141.842C238.785 141.937 238.584 142.077 238.418 142.252C238.252 142.427 238.126 142.634 238.046 142.859C237.913 143.279 237.945 143.733 238.135 144.132C238.325 144.531 238.661 144.847 239.077 145.018L241.255 145.968L233.002 146.051C232.085 146.044 230.954 146.609 231.015 147.613C231.012 148.001 231.144 148.378 231.39 148.683C231.636 148.988 231.98 149.203 232.367 149.293C232.365 149.301 232.363 149.31 232.363 149.319C232.364 149.325 232.365 149.332 232.367 149.338L230.952 149.328C230.69 149.326 230.431 149.382 230.194 149.49C229.957 149.598 229.747 149.757 229.581 149.954C229.414 150.151 229.295 150.382 229.231 150.629C229.168 150.877 229.162 151.136 229.214 151.386C229.304 151.779 229.53 152.129 229.854 152.379C230.178 152.629 230.579 152.763 230.992 152.758L231.595 152.762C231.603 152.779 231.614 152.795 231.627 152.808C231.22 152.897 230.858 153.125 230.607 153.45C230.356 153.776 230.232 154.177 230.256 154.584C230.297 155.028 230.507 155.441 230.846 155.74C231.185 156.039 231.627 156.203 232.085 156.198L233.58 156.209C233.559 156.223 233.542 156.242 233.53 156.264C233.518 156.286 233.511 156.31 233.51 156.335C233.511 156.365 233.521 156.394 233.539 156.419C233.199 156.596 232.928 156.878 232.768 157.221C232.608 157.563 232.568 157.947 232.654 158.314C232.752 158.698 232.98 159.038 233.301 159.279C233.622 159.52 234.018 159.649 234.423 159.644L247.043 159.732C248.809 159.744 250.538 159.242 252.008 158.29C253.479 157.338 254.625 155.979 255.299 154.389C255.88 153.017 255.889 151.479 255.325 150.1C254.761 148.722 253.668 147.612 252.278 147.007L250.585 146.271Z" fill="#E98862"/>
<g opacity="0.2">
<path d="M240.536 149.249C240.535 149.29 240.518 149.33 240.487 149.359C240.457 149.389 240.416 149.405 240.373 149.405L232.525 149.474C232.504 149.474 232.483 149.47 232.463 149.462C232.443 149.454 232.425 149.443 232.41 149.428C232.395 149.414 232.383 149.396 232.374 149.377C232.366 149.358 232.362 149.338 232.361 149.317C232.361 149.296 232.365 149.275 232.373 149.256C232.381 149.237 232.393 149.219 232.408 149.204C232.423 149.19 232.441 149.178 232.46 149.17C232.48 149.162 232.501 149.157 232.522 149.157L240.37 149.088C240.413 149.088 240.455 149.105 240.485 149.134C240.516 149.164 240.533 149.204 240.533 149.246L240.536 149.249Z" fill="#0F2167"/>
</g>
<g opacity="0.2">
<path d="M240.662 152.623C240.662 152.665 240.645 152.704 240.615 152.733C240.585 152.762 240.544 152.779 240.502 152.779L231.743 152.856C231.7 152.856 231.659 152.84 231.628 152.81C231.598 152.78 231.581 152.74 231.581 152.698C231.582 152.657 231.6 152.617 231.63 152.588C231.66 152.558 231.7 152.541 231.743 152.54L240.501 152.463C240.544 152.463 240.586 152.48 240.616 152.509C240.647 152.539 240.664 152.579 240.664 152.621L240.662 152.623Z" fill="#0F2167"/>
</g>
<g opacity="0.2">
<path d="M240.822 156.275C240.821 156.316 240.804 156.356 240.773 156.385C240.743 156.415 240.702 156.431 240.659 156.431L233.673 156.492C233.651 156.492 233.63 156.489 233.61 156.481C233.591 156.473 233.573 156.462 233.557 156.447C233.542 156.432 233.53 156.415 233.522 156.396C233.513 156.377 233.509 156.356 233.509 156.335C233.509 156.315 233.513 156.294 233.521 156.275C233.529 156.255 233.54 156.238 233.555 156.223C233.57 156.208 233.588 156.196 233.608 156.188C233.627 156.18 233.648 156.176 233.67 156.176L240.656 156.114C240.699 156.114 240.741 156.131 240.771 156.161C240.801 156.19 240.819 156.231 240.819 156.273L240.822 156.275Z" fill="#0F2167"/>
</g>
<path d="M250.926 163.899L303.986 166.88C305.857 167.078 307.749 166.851 309.515 166.217C311.28 165.583 312.871 164.559 314.162 163.224C315.453 161.89 316.41 160.282 316.957 158.527C317.503 156.772 317.625 154.917 317.313 153.108L310.871 102.58C310.606 101.043 310.032 99.5715 309.183 98.2501C308.335 96.9287 307.227 95.7831 305.925 94.8789C304.622 93.9747 303.149 93.3295 301.59 92.9801C300.032 92.6308 298.418 92.5841 296.841 92.8428C295.264 93.1014 293.754 93.6604 292.399 94.4877C291.043 95.3151 289.868 96.3946 288.941 97.6646C288.013 98.9346 287.351 100.37 286.993 101.89C286.634 103.409 286.586 104.982 286.852 106.52L289.955 144.901L251.158 143.551L250.926 163.899Z" fill="#0F2167"/>
<path d="M297.87 144.74C297.911 144.74 297.95 144.725 297.98 144.698C298.01 144.671 298.028 144.634 298.031 144.594C298.034 144.554 298.022 144.515 297.996 144.484C297.971 144.453 297.934 144.432 297.894 144.426L290.048 144.375C290.027 144.372 290.005 144.373 289.984 144.378C289.963 144.383 289.944 144.392 289.926 144.404C289.909 144.416 289.895 144.432 289.884 144.45C289.873 144.468 289.866 144.488 289.863 144.508C289.857 144.55 289.867 144.592 289.893 144.626C289.919 144.66 289.957 144.682 290 144.688L297.846 144.739C297.854 144.74 297.862 144.74 297.87 144.74Z" fill="#0F2167"/>
<path d="M302.297 167.107C302.34 167.11 302.383 167.096 302.415 167.068C302.448 167.04 302.467 167.001 302.47 166.959C302.473 166.917 302.458 166.876 302.43 166.844C302.401 166.813 302.361 166.793 302.318 166.791L251.279 163.825L251.432 143.786L289.994 144.688C290.02 144.691 290.045 144.688 290.069 144.68C290.093 144.672 290.115 144.659 290.132 144.641C290.15 144.623 290.163 144.602 290.171 144.578C290.178 144.554 290.18 144.529 290.176 144.505L287.995 121.625C287.992 121.605 287.984 121.585 287.973 121.567C287.962 121.549 287.947 121.534 287.929 121.522C287.912 121.51 287.892 121.501 287.871 121.497C287.851 121.492 287.829 121.492 287.808 121.495C287.787 121.499 287.767 121.506 287.749 121.517C287.73 121.528 287.715 121.543 287.702 121.56C287.69 121.577 287.681 121.596 287.676 121.616C287.671 121.636 287.671 121.657 287.674 121.678L289.819 144.345L251.358 143.436C251.337 143.431 251.315 143.429 251.293 143.432C251.272 143.435 251.251 143.442 251.232 143.452C251.214 143.463 251.198 143.477 251.185 143.494C251.172 143.511 251.162 143.53 251.157 143.551L250.925 163.898C250.915 163.938 250.921 163.981 250.943 164.016C250.964 164.052 250.999 164.077 251.04 164.088L302.275 167.104C302.282 167.106 302.29 167.107 302.297 167.107Z" fill="#0F2167"/>
<path d="M119.993 155.889H115.68L113.261 146.742C113.172 146.416 113.019 145.744 112.803 144.723C112.588 143.703 112.463 143.018 112.431 142.669C112.382 143.097 112.26 143.786 112.064 144.735C111.868 145.684 111.718 146.361 111.612 146.766L109.205 155.889H104.905L100.347 138.477H104.074L106.358 147.982C106.758 149.737 107.047 151.257 107.226 152.543C107.274 152.091 107.386 151.39 107.562 150.441C107.737 149.492 107.902 148.756 108.057 148.232L110.659 138.477H114.239L116.841 148.232C116.955 148.669 117.097 149.336 117.269 150.233C117.44 151.13 117.57 151.9 117.658 152.544C117.74 151.924 117.87 151.152 118.048 150.227C118.227 149.302 118.389 148.553 118.535 147.982L120.809 138.478H124.535L119.993 155.889Z" fill="#4CB9E7"/>
<path d="M137.074 155.889H126.786V138.477H137.074V141.502H130.574V145.326H136.622V148.35H130.574V152.84H137.074V155.889Z" fill="#4CB9E7"/>
<path d="M140.8 155.889V138.477H144.587V152.841H151.832V155.89L140.8 155.889Z" fill="#4CB9E7"/>
<path d="M162.523 141.299C161.881 141.27 161.242 141.399 160.663 141.672C160.085 141.946 159.586 142.356 159.211 142.865C158.429 143.909 158.038 145.364 158.038 147.23C158.038 151.114 159.533 153.056 162.522 153.056C164.083 152.996 165.623 152.686 167.079 152.137V155.234C165.519 155.847 163.85 156.151 162.168 156.127C159.57 156.127 157.582 155.359 156.205 153.823C154.828 152.286 154.14 150.081 154.141 147.206C154.104 145.566 154.45 143.938 155.155 142.448C155.78 141.141 156.795 140.049 158.069 139.316C159.425 138.567 160.964 138.19 162.522 138.226C164.337 138.245 166.125 138.664 167.75 139.453L166.528 142.454C165.872 142.149 165.199 141.879 164.513 141.644C163.874 141.421 163.202 141.304 162.523 141.299Z" fill="#4CB9E7"/>
<path d="M187.093 147.159C187.093 150.041 186.36 152.256 184.893 153.805C183.427 155.353 181.326 156.127 178.589 156.127C175.852 156.127 173.751 155.353 172.285 153.805C170.819 152.257 170.086 150.033 170.086 147.135C170.086 144.237 170.821 142.023 172.291 140.495C173.761 138.967 175.869 138.203 178.613 138.202C181.358 138.202 183.458 138.972 184.912 140.513C186.366 142.054 187.093 144.269 187.093 147.159ZM174.056 147.159C174.056 149.104 174.435 150.569 175.193 151.554C175.951 152.538 177.083 153.03 178.589 153.03C181.611 153.03 183.122 151.073 183.122 147.159C183.122 143.236 181.619 141.275 178.614 141.275C177.107 141.275 175.97 141.769 175.204 142.758C174.437 143.747 174.055 145.214 174.056 147.159Z" fill="#4CB9E7"/>
<path d="M198.357 155.889L194.057 142.228H193.947C194.101 145.007 194.179 146.861 194.179 147.79V155.889H190.795V138.477H195.951L200.178 151.793H200.251L204.735 138.477H209.891V155.889H206.36V147.647C206.36 147.258 206.366 146.81 206.378 146.301C206.39 145.793 206.445 144.443 206.543 142.252H206.433L201.827 155.889H198.357Z" fill="#4CB9E7"/>
<path d="M224.674 155.889H214.387V138.477H224.674V141.502H218.175V145.326H224.223V148.35H218.175V152.84H224.674V155.889Z" fill="#4CB9E7"/>
</svg>
