<svg width="317" height="224" viewBox="0 0 317 224" fill="none" xmlns="http://www.w3.org/2000/svg">
<path fill-rule="evenodd" clip-rule="evenodd" d="M119.048 5.25103C117.21 3.13229 115.137 0.744182 112.441 0.169726C109.738 -0.405127 106.931 0.582322 104.462 1.60484C101.51 2.82651 98.5844 4.14976 95.672 5.46709L95.0266 5.75896C93.3265 6.52783 91.6302 7.30239 89.9345 8.07667C83.8091 10.8736 77.6918 13.6668 71.4323 16.1743C68.9053 17.1858 66.8547 18.0901 68.2307 21.1116C69.2957 23.4508 71.1449 25.6352 72.8193 27.6132C72.9163 27.7278 73.0126 27.8416 73.1082 27.9547C74.0886 29.1154 75.1224 30.2225 76.1556 31.3288C77.6871 32.9688 79.2171 34.6071 80.5693 36.4162C80.8681 36.8159 81.1655 37.2178 81.4631 37.62C83.3816 40.2124 85.3121 42.8209 87.6988 44.9979L87.7622 45.0555C88.7651 45.968 90.0061 47.0972 88.5821 48.2456C88.2546 48.51 87.8812 48.6796 87.5155 48.8457C86.8436 49.1509 86.1974 49.4444 85.9082 50.2927C85.0619 52.7743 89.0017 55.4072 90.7173 56.5519C95.8589 59.9819 103.921 62.0019 109.938 60.032C111.77 59.4311 113.46 58.4497 115.077 57.4152C115.412 57.2004 115.794 56.9023 116.202 56.5836C117.236 55.7762 118.439 54.8368 119.482 54.7873C119.894 54.7677 120.274 54.9429 120.65 55.116C120.85 55.2078 121.048 55.299 121.248 55.3601C121.645 55.4818 122.011 55.5078 122.389 55.5346C122.611 55.5504 122.837 55.5665 123.075 55.6025C124.229 55.7747 124.398 55.95 123.989 56.9455C123.726 57.5842 123.253 58.1559 122.788 58.7178C122.518 59.044 122.25 59.3668 122.028 59.6975C121.178 60.9644 120.632 62.4206 120.163 63.8667C119 67.444 118.893 71.1274 119.084 74.8539C119.293 78.9219 120.416 82.6684 122.34 86.2527C123.032 87.5416 123.807 88.7864 124.583 90.0313C125.904 92.1517 127.225 94.2721 128.131 96.61C125.256 95.9226 122.265 95.9627 119.313 96.0022C118.712 96.0103 118.113 96.0183 117.517 96.0201C114.957 96.0276 112.395 95.9272 109.834 95.8268C108.621 95.7793 107.408 95.7317 106.195 95.6956L105.914 95.6873C98.8162 95.4767 91.7123 95.2659 84.6113 95.4102C80.61 95.4914 76.614 95.7218 72.6178 95.9523C69.4136 96.1371 66.2092 96.3219 63.0017 96.4297L62.2501 96.455C58.9181 96.5672 55.5825 96.6796 52.2491 96.7131C51.8487 96.7172 51.4429 96.7142 51.0341 96.7112C49.2358 96.6979 47.3812 96.6842 45.6886 97.271C44.7169 97.6075 43.8442 98.1382 43.3345 99.0556C43.111 99.4579 43.0395 99.9084 42.9687 100.354C42.9022 100.773 42.8363 101.188 42.6458 101.555C41.8679 103.054 39.0935 102.838 36.8853 102.665C36.0161 102.598 35.2346 102.537 34.6971 102.59C35.2471 99.9098 34.1847 96.4748 32.7033 94.2425C32.3846 93.7619 31.9529 93.4137 31.5232 93.0671C31.1435 92.7609 30.7655 92.456 30.4687 92.0623C29.821 91.203 30.1314 90.8195 30.5994 90.2413C30.7276 90.083 30.8675 89.9101 31.0029 89.7088C31.5353 88.9186 31.8223 87.7008 30.6964 87.3213C30.0124 87.0905 29.5423 87.4748 29.0654 87.8647C28.6855 88.1752 28.3014 88.4892 27.8014 88.499C26.8108 88.519 25.7116 87.2532 26.0232 86.2507C26.2067 85.6611 26.7797 85.3461 27.3468 85.0344C27.7526 84.8113 28.1553 84.5899 28.4101 84.2708C29.0842 83.4275 29.1049 82.0685 28.2695 81.3104C27.4228 80.5399 26.6743 80.8993 25.8508 81.2947C25.7528 81.3418 25.6536 81.3894 25.5531 81.4356C23.2591 82.4899 22.8443 80.8991 22.348 78.9961C22.313 78.8618 22.2776 78.726 22.2411 78.5894C21.1527 74.5174 18.6781 69.8755 14.8339 67.8235C9.71949 65.0945 4.69107 68.5566 2.3349 73.1474C-0.335544 78.3511 -0.375904 84.422 0.537444 90.0684C1.61143 96.7071 3.13257 103.35 4.89587 109.838C5.12694 110.688 5.34971 111.555 5.57466 112.432C6.81139 117.248 8.1141 122.322 11.2243 126.192C14.3167 130.038 19.4146 129.424 23.8074 128.895L23.9581 128.877C27.5025 128.451 33.176 127.322 33.6121 122.915C35.389 123.271 37.2087 122.873 38.9142 122.366C39.5669 125.854 40.2453 129.306 42.119 132.378C42.9584 133.754 43.9655 135.008 44.9725 136.263C45.9644 137.499 46.9562 138.735 47.7876 140.086C47.8584 140.201 47.9248 140.321 47.9913 140.44C48.219 140.849 48.4477 141.26 48.8608 141.514C49.1193 141.674 49.3655 141.685 49.6146 141.697C49.8048 141.706 49.9968 141.715 50.1972 141.79C50.5564 141.924 50.8445 142.09 51.1237 142.252C51.6327 142.545 52.1124 142.822 52.9403 142.859C54.5292 142.931 56.1399 142.622 57.7465 142.314C58.8846 142.095 60.0205 141.877 61.1453 141.796C65.2711 141.496 69.3427 140.793 73.415 140.09C76.4435 139.566 79.4724 139.043 82.5242 138.686C83.0674 138.623 83.6138 138.568 84.161 138.514C86.051 138.326 87.9501 138.138 89.7589 137.568C90.1264 137.453 93.5975 136.142 93.5725 136.113C93.9138 136.512 93.2694 137.663 92.8506 138.411C92.7188 138.646 92.6094 138.842 92.56 138.961C91.8409 140.698 91.5064 142.655 91.2771 144.516C90.7283 148.973 91.5375 152.867 92.4889 157.19C93.3361 161.04 95.8557 164.598 98.1215 167.798L98.2344 167.957C100.629 171.341 103.716 173.908 106.872 176.532L107.194 176.799C108.856 178.181 110.416 179.672 111.976 181.163C113.371 182.497 114.766 183.83 116.234 185.086C119.128 187.561 122.255 189.759 125.47 191.798C132.106 196.006 139.081 199.785 146.135 203.239C153.322 206.757 160.676 209.805 168.41 211.894C171.007 212.596 173.624 213.211 176.242 213.827C177.424 214.105 178.607 214.383 179.788 214.669C181.418 215.064 185.843 215.688 183.426 212.933C181.93 211.228 184.061 209.792 185.61 208.747C185.771 208.639 185.925 208.535 186.069 208.435L186.451 208.17C188.627 206.658 190.802 205.147 192.818 203.417C194.119 202.3 195.399 201.064 196.292 199.586C196.433 199.353 196.549 199.11 196.662 198.876C197.033 198.101 197.361 197.418 198.397 197.458C200.606 197.542 203.423 198.958 203.882 201.199C203.992 201.735 204.036 202.277 204.079 202.819C204.138 203.547 204.196 204.274 204.415 204.984C204.759 206.101 205.44 207.001 206.126 207.906C206.44 208.321 206.755 208.737 207.039 209.176C208.327 211.171 207.037 211.815 205.513 212.577C205.156 212.755 204.786 212.94 204.434 213.15C202.931 214.045 201.197 215.505 203.32 216.852C205.616 218.311 207.598 216.112 209.139 214.403C209.376 214.139 209.604 213.887 209.82 213.662C210.023 213.895 210.31 214.161 210.624 214.452C211.658 215.408 212.98 216.632 212.521 217.848C212.186 218.735 211.242 218.984 210.308 219.231C209.647 219.406 208.99 219.579 208.558 219.977C207.198 221.227 208.568 222.965 209.833 223.629C211.815 224.67 213.239 223.341 214.466 221.852C214.566 221.731 214.686 221.557 214.821 221.363C215.21 220.802 215.716 220.074 216.164 219.975C216.691 219.859 217.122 220.163 217.57 220.479C217.725 220.589 217.882 220.7 218.046 220.795C220.193 222.046 222.328 222.708 224.783 223.021C229.901 223.676 235.197 223.88 240.346 223.59C240.578 223.577 240.81 223.564 241.042 223.551C243.263 223.425 245.471 223.3 247.699 223.332C249.821 223.361 251.146 222.989 252.975 221.999C254.534 221.155 256.769 221.347 258.777 221.519C259.499 221.581 260.191 221.641 260.812 221.648C266.397 221.722 273.546 220.96 273.642 213.887C273.738 206.84 266.91 203.824 261.395 201.388L261.141 201.275C260.887 201.163 260.632 201.051 260.378 200.939C257.064 199.477 253.703 197.994 250.565 196.202C247.384 194.383 244.946 191.812 242.474 189.205C241.951 188.653 241.426 188.099 240.893 187.551C240.694 187.347 240.495 187.143 240.297 186.939C238.873 185.479 237.449 184.019 236.138 182.457C235.886 182.157 235.647 181.81 235.402 181.456C234.724 180.472 234.008 179.433 232.874 179.189C231.056 178.798 229.216 178.582 227.375 178.366C225.445 178.14 223.515 177.914 221.61 177.485C219.242 176.952 217.408 177.259 215.143 177.99C213.664 178.468 212.355 178.547 210.84 178.252C210.691 178.223 210.536 178.197 210.381 178.17C209.283 177.983 208.158 177.791 208.883 176.601C209.039 176.344 209.242 176.119 209.439 175.9C209.96 175.323 210.443 174.788 209.939 173.804C209.153 172.266 206.632 172.326 204.833 172.369C204.457 172.378 204.113 172.386 203.822 172.379C200.807 172.304 197.796 171.07 194.932 169.896C194.156 169.578 193.39 169.264 192.639 168.979C191.576 168.576 190.513 168.174 189.45 167.773C181.248 164.674 173.061 161.582 165.103 157.87C168.307 156.786 171.634 156.294 174.962 155.802C177.094 155.486 179.226 155.171 181.327 154.7C183.694 154.168 185.666 153.9 187.867 155.131C188.984 155.756 190.03 156.502 191.077 157.249C191.988 157.898 192.899 158.548 193.858 159.119C202.221 164.096 210.982 168.153 220.145 171.414C229.317 174.679 238.852 177.953 248.619 178.741C251.185 178.948 253.77 178.957 256.335 178.724C257.017 178.662 257.662 178.566 258.287 178.474C259.939 178.228 261.461 178.003 263.221 178.462C266.291 179.262 269.783 177.249 272.266 175.516C274.153 174.199 276.536 171.782 273.732 170.002C272.011 168.909 269.892 168.846 267.804 168.784C266.559 168.747 265.326 168.711 264.192 168.457C264.626 167.809 265.658 167.649 266.515 167.516C266.784 167.475 267.035 167.436 267.245 167.385C268.546 167.073 269.776 166.579 270.9 165.839C273.699 163.997 273.612 161.889 270.825 160.191C271.38 159.965 271.993 159.743 272.635 159.511C275.501 158.474 278.924 157.235 280.163 154.557C282.121 150.321 276.017 148.221 273.055 147.544C267.052 146.17 260.921 145.559 254.787 144.947C248.385 144.309 241.979 143.67 235.711 142.163C236.468 141.536 237.389 141.203 238.306 140.872C238.729 140.719 239.152 140.566 239.557 140.385C240.561 139.935 241.522 139.376 242.477 138.82C242.79 138.637 243.103 138.455 243.417 138.277C246.25 136.668 248.79 134.691 251.303 132.623C255.742 128.972 259.709 124.764 262.555 119.739C265.277 114.935 267.593 109.076 267.438 103.467C267.362 100.685 266.39 97.9559 265.463 95.3544L265.395 95.1629C264.609 92.9506 263.202 92.0813 262.069 94.6922C259.015 92.7443 256.638 90.0259 254.27 87.3177C253.449 86.3791 252.629 85.4418 251.783 84.5382C252.348 83.6514 257.981 87.4728 259.514 88.5125C259.679 88.6246 259.796 88.7044 259.855 88.7424C267.453 93.6937 275.084 98.9094 282.099 104.671C284.393 106.556 286.511 108.621 288.628 110.683C291.731 113.708 294.831 116.729 298.48 119.178C300.889 120.795 306.334 123.267 308.545 119.948C309.703 118.209 308.813 115.678 308.097 113.641C307.931 113.171 307.775 112.726 307.655 112.324C309.48 113.04 313.161 114.32 313.724 111.367C314.059 109.612 312.854 107.84 311.811 106.307C311.535 105.9 311.269 105.51 311.047 105.142C313.284 105.171 314.767 103.869 314.519 101.561C317.307 101.739 317.526 100.222 316.21 98.1683C312.267 92.0152 307.172 86.5181 301.284 82.2118C295.839 78.229 289.927 74.8879 284.046 71.565C282.954 70.9475 281.862 70.3306 280.775 69.7103C273.597 65.6153 266.309 61.7656 258.769 58.3786C256.856 57.5196 254.953 56.6327 253.05 55.7457C247.578 53.1952 242.103 50.6431 236.364 48.7454C232.109 47.3382 227.763 46.2528 223.417 45.1674C219.585 44.2104 215.752 43.2533 211.982 42.0756C204.53 39.7481 197 38.3961 189.216 37.8813C188.833 37.8561 188.436 37.824 188.029 37.791C185.16 37.5584 181.809 37.2868 179.539 39.1412C179.377 39.2736 179.254 39.3987 179.141 39.5128C178.846 39.8128 178.626 40.0363 177.971 40.1147C177.554 40.164 177.112 40.1156 176.677 40.0681C176.459 40.0442 176.243 40.0205 176.032 40.0095C174.114 39.9083 172.189 39.8613 170.27 39.8973C164.483 40.0054 158.946 41.0581 153.353 42.1214C151.637 42.4476 149.916 42.7748 148.181 43.076C145.206 43.5928 143.283 43.5016 141.168 41.2493C139.505 39.4796 137.379 38.3412 135.253 37.203C134.187 36.6324 133.122 36.0618 132.114 35.4117C130.662 34.4743 129.67 33.6751 129.816 31.8775C129.952 30.195 130.079 28.5956 129.919 26.9021C129.555 23.0525 128.565 19.0656 126.809 15.6115C125.094 12.2405 122.694 9.27615 120.151 6.50006C119.791 6.10691 119.424 5.68461 119.048 5.25103ZM219.909 190.508C218.984 185.485 223.089 183.619 227.321 182.49C228.246 182.243 229.206 182.013 230.167 181.976C231.369 181.929 231.505 182.299 231.91 183.399L231.952 183.513C232.987 186.321 233.857 188.434 235.862 190.719C236.292 191.208 236.722 191.705 237.154 192.205C239.961 195.45 242.877 198.821 246.502 201.076C250.903 203.814 255.968 205.654 260.855 207.31C261.262 207.448 261.686 207.584 262.121 207.724C265.436 208.787 269.351 210.043 270.444 213.638C271.514 217.152 265.442 216.831 262.245 216.663C261.655 216.632 261.164 216.606 260.832 216.61C260.137 216.618 259.349 216.708 258.526 216.802C256.622 217.02 254.536 217.258 253.012 216.552C252.66 216.389 252.375 216.196 252.113 216.018C251.517 215.613 251.037 215.288 250.151 215.575C249.945 215.643 249.81 215.715 249.694 215.778C249.481 215.894 249.329 215.976 248.905 215.932C248.748 215.916 248.488 215.766 248.236 215.621C248.043 215.509 247.854 215.4 247.718 215.355C247.255 215.201 246.799 215.085 246.348 214.969C245.552 214.766 244.77 214.565 243.986 214.171C242.389 213.368 240.864 212.395 239.349 211.429C238.884 211.132 238.42 210.836 237.955 210.546C230.11 205.645 222.443 199.872 219.909 190.508ZM207.785 191.176C208.538 188.672 209.984 186.292 212.286 184.966C213.434 184.304 216.925 182.342 216.602 184.979C216.522 185.632 216.271 186.253 216.021 186.872C215.83 187.344 215.639 187.815 215.524 188.3C215.127 189.979 215.217 191.815 215.5 193.503C216.094 197.049 217.568 200.612 219.467 203.653C221.427 206.791 223.992 209.366 226.9 211.63C228.215 212.653 229.517 213.462 230.975 214.247C231.036 214.279 231.098 214.313 231.161 214.346C232.127 214.863 233.266 215.472 233.723 216.506C231.93 215.64 229.985 215.363 228.037 215.087C226.566 214.877 225.094 214.668 223.684 214.204C220.281 213.086 217.103 210.387 214.573 207.919L214.57 207.916C212.32 205.722 209.458 202.931 207.996 200.129C207.381 198.947 207.376 197.574 207.371 196.238C207.369 195.826 207.368 195.418 207.348 195.02C207.283 193.692 207.398 192.457 207.785 191.176ZM193.758 190.795C196.074 188.757 198.345 186.685 200.476 184.454C202.726 182.099 204.515 181.931 207.491 183.122C206.114 185.167 204.928 187.518 204.227 189.89C204.144 190.169 204.085 190.584 204.019 191.042C203.867 192.104 203.681 193.404 203.091 193.819C202.359 194.334 201.062 193.531 200.158 192.971C199.938 192.834 199.741 192.713 199.582 192.628C197.798 191.679 195.751 191.103 193.758 190.795ZM156.825 97.868C157.797 97.3442 158.768 96.8203 159.747 96.3096C159.939 96.2093 160.141 96.0911 160.35 95.969C161.335 95.3919 162.466 94.7297 163.414 95.4893C164.178 96.1025 164.822 97.0749 165.443 98.0137C165.814 98.5745 166.178 99.1232 166.554 99.5764C167.486 100.698 168.479 101.773 169.47 102.846C169.985 103.403 170.5 103.96 171.006 104.524C172.3 105.964 173.693 107.316 175.084 108.665C176.629 110.164 178.172 111.661 179.575 113.276C181.337 115.302 183.434 117.018 185.52 118.725C186.29 119.355 187.058 119.984 187.808 120.626C188.674 121.37 189.537 122.118 190.4 122.865C192.405 124.602 194.41 126.339 196.46 128.022C202.035 132.601 207.914 136.727 214.327 140.054C220.55 143.283 227.173 145.84 234.039 147.301C237.601 148.058 241.2 148.414 244.83 148.653C246.682 148.774 248.528 148.782 250.373 148.79C251.992 148.797 253.61 148.804 255.231 148.888C257.309 148.996 259.4 149.426 261.488 149.857C262.961 150.16 264.433 150.464 265.898 150.653C266.41 150.719 266.971 150.766 267.557 150.815C269.858 151.008 272.536 151.232 274.089 152.764C276.464 155.107 270.905 156.642 269.161 157.124C269.087 157.144 269.02 157.163 268.96 157.179C268.005 157.447 267 157.644 265.988 157.842C263.833 158.264 261.642 158.693 259.816 159.827C257.635 161.181 257.993 162.415 260.616 162.556C261.135 162.584 261.724 162.556 262.341 162.527C264.191 162.439 266.285 162.34 267.455 163.705C265.323 164.841 262.932 165.094 260.534 165.347C258.498 165.561 256.457 165.777 254.565 166.534C252.436 167.386 250.385 169.426 252.99 171.024C255.913 172.816 259.616 173.1 263.181 173.374C264.747 173.494 266.286 173.612 267.72 173.855C266.668 174.988 264.439 174.986 262.862 174.985C262.679 174.985 262.505 174.985 262.342 174.987C260.015 175.011 257.669 174.974 255.346 174.835C249.722 174.5 244.222 173.198 238.854 171.536C219.704 165.603 200.024 158.651 184.244 145.857C180.195 142.573 176.08 139.231 172.238 135.708C170.032 133.685 167.92 131.559 165.808 129.433C164.119 127.733 162.429 126.032 160.692 124.384C156.822 120.714 153.146 116.9 149.662 112.86C149.186 112.308 148.714 111.747 148.241 111.186C147.083 109.811 145.921 108.432 144.678 107.149C144.538 107.004 144.341 106.831 144.119 106.636C143.283 105.902 142.102 104.864 142.374 103.947C146.532 103.062 150.401 101.264 154.145 99.3C155.042 98.8294 155.934 98.3487 156.825 97.868ZM77.7228 161.334C77.6977 160.667 77.6877 160.399 76.953 159.967C74.8564 158.738 73.156 160.626 72.6549 162.489C71.314 167.478 72.7562 173.348 74.4114 178.077C73.7244 178.313 77.1854 184.613 77.5695 185.312L77.5899 185.349C79.3285 188.526 81.1772 191.395 83.6729 194.073C89.7008 200.541 98.8603 206.921 108.071 206.936C108.14 206.936 108.224 206.938 108.317 206.94C109.094 206.959 110.56 206.995 110.526 206.13C110.48 204.92 107.292 204.283 106.14 204.053C106.064 204.038 105.997 204.024 105.94 204.012C100.585 202.916 96.1263 200.233 92.1183 196.529C87.9812 192.706 84.8486 188.119 82.8337 182.862C80.8147 177.593 78.8197 172.034 78.0656 166.425C77.8788 165.034 77.8209 163.656 77.7624 162.266C77.7519 162.016 77.7414 161.766 77.7301 161.516C77.7273 161.452 77.725 161.391 77.7228 161.334ZM63.5871 174.639C62.6869 171.24 61.7824 167.825 61.8054 164.28C61.6496 163.11 60.3812 162.789 59.446 163.318C58.371 163.927 58.3614 165.258 58.399 166.346C58.516 169.781 59.6852 173.23 61.5272 176.121C61.5577 176.169 61.5959 176.231 61.6406 176.304C62.0412 176.956 62.9698 178.468 63.686 178.342C64.65 178.173 64.1822 176.682 63.9167 175.836C63.8719 175.693 63.8328 175.569 63.8074 175.472C63.7343 175.194 63.6607 174.917 63.5871 174.639ZM205.655 50.2055C206.259 48.5952 206.883 46.9298 206.653 45.1831C209.114 45.8469 211.528 46.6614 213.941 47.4759C215.927 48.146 217.913 48.8161 219.925 49.4023C221.502 49.8617 223.088 50.2888 224.673 50.7159C227.366 51.4413 230.058 52.1666 232.708 53.0497C240.216 55.5514 247.318 59.1597 254.332 62.7881C255.258 63.2674 256.185 63.746 257.112 64.2247C263.409 67.4768 269.706 70.7287 275.902 74.1709C283.048 78.1397 290.274 82.1597 296.876 86.9978C299.701 89.0679 302.501 91.2932 305.029 93.7207C307.3 95.8989 309.615 98.659 309.645 101.976C309.547 101.899 309.43 101.804 309.297 101.697C307.822 100.506 304.371 97.7195 303.176 99.6775C302.246 101.201 303.752 102.786 305.248 104.359C306.396 105.567 307.537 106.767 307.567 107.928C306.805 107.142 306.061 106.297 305.309 105.443C303.381 103.252 301.403 101.005 298.94 99.5704C297.557 98.7642 292.829 97.302 293.677 100.552C293.919 101.48 294.681 102.352 295.392 103.166C295.705 103.524 296.009 103.871 296.252 104.206C296.483 104.524 296.714 104.842 296.945 105.16C297.847 106.404 298.75 107.648 299.661 108.886C299.813 109.093 299.973 109.308 300.14 109.53C301.805 111.754 304.023 114.715 303.418 117.498C302.897 117.223 302.51 116.601 302.157 116.031C302.002 115.782 301.853 115.543 301.703 115.348C301.278 114.798 300.813 114.279 300.349 113.761C300.082 113.462 299.815 113.164 299.556 112.861C298.761 111.929 297.949 111.012 297.136 110.095C296.311 109.163 295.486 108.232 294.679 107.285C291.568 103.629 288.145 100.335 284.265 97.4963C277.016 92.1915 269.095 87.7139 261.154 83.5417C260.439 83.1662 259.724 82.7884 259.007 82.4099C251.91 78.6629 244.689 74.8501 237.008 72.5525C233.434 71.4839 230.375 69.4669 227.297 67.4376C227.058 67.2797 226.819 67.1218 226.579 66.9643C224.409 65.538 222.187 64.183 219.965 62.8285C218.605 61.9994 217.246 61.1704 215.899 60.3255C213.921 59.0866 211.921 57.8779 209.836 56.8263C209.366 56.5888 208.772 56.385 208.151 56.172C206.915 55.7475 205.572 55.2864 204.887 54.4488C204.197 53.6049 204.706 52.4562 205.165 51.422C205.282 51.1576 205.396 50.9006 205.486 50.6582C205.541 50.5078 205.598 50.3569 205.655 50.2055ZM152.604 49.1627C152.763 49.1022 152.895 49.0519 152.947 49.0268C154.398 48.3196 155.913 48.0271 157.478 47.725C157.735 47.6754 157.993 47.6256 158.252 47.5737C160.467 47.13 162.676 46.8576 164.919 46.5992C165.127 46.5751 165.345 46.5357 165.566 46.4957C166.413 46.3428 167.308 46.181 167.889 46.8336C168.153 47.129 168.305 47.617 168.452 48.0853C168.55 48.398 168.645 48.7019 168.768 48.9337C169.131 49.6167 169.598 50.2296 170.17 50.7493C171.32 51.7959 172.807 52.3267 174.314 52.6101C176.068 52.9406 178.502 53.3301 180.127 52.3727C181.099 51.799 181.287 50.9327 181.493 49.987C181.557 49.6896 181.624 49.3844 181.717 49.0779C182.408 50.2245 182.827 48.558 183.016 47.8051C183.041 47.707 183.062 47.6245 183.079 47.5656C183.515 46.0614 183.859 45.798 185.41 45.74C190.196 45.5607 194.905 45.795 199.625 46.6022C199.793 46.631 199.998 46.6539 200.222 46.6789C201.238 46.7922 202.656 46.9505 202.892 47.9102C203.286 49.5218 201.772 49.2059 200.577 48.9564C200.15 48.8673 199.764 48.7868 199.52 48.8055C198.325 48.8956 196.919 49.83 198.197 50.9847C198.617 51.3638 199.214 51.473 199.811 51.5823C200.589 51.7246 201.367 51.867 201.755 52.6071C200.199 52.8418 198.376 51.9942 196.74 51.2336C196.107 50.9395 195.502 50.6584 194.952 50.4579C194.147 50.165 193.344 49.7713 192.534 49.3743C191.106 48.6742 189.657 47.9639 188.14 47.778C186.38 47.5626 185.238 48.476 186.098 50.2536C186.963 52.0407 189.077 53.1504 190.821 54.0663C190.981 54.1502 191.138 54.2326 191.291 54.3136C191.525 54.4382 191.772 54.5558 192.019 54.6732C193.335 55.2997 194.638 55.9202 193.915 57.5564C193.675 58.0982 193.415 58.621 193.16 59.1367C192.189 61.0926 191.27 62.9459 191.669 65.3449C192.029 67.5041 193.665 69.9006 195.479 71.1284C196.289 71.6772 197.378 72.1669 198.303 71.6382C198.628 71.4519 199.518 70.5676 198.969 70.2321L198.933 70.2121L198.949 70.21C199.216 70.1409 199.051 68.0298 197.979 68.129C197.992 68.1145 198.019 68.0873 198.056 68.0511C198.229 67.8803 198.604 67.5099 198.637 67.3298C198.637 67.3328 198.008 67.4039 198.007 67.0915C198.004 66.6013 198.349 66.2183 198.671 65.8606C198.738 65.7863 198.804 65.7132 198.866 65.6403C200.232 64.0249 201.228 63.8036 203.271 63.425C202.289 62.6616 204.189 62.6986 205.009 62.7146C205.145 62.7172 205.251 62.7193 205.309 62.717C207.26 62.6409 208.639 62.6269 210.442 63.5332C210.571 63.598 210.71 63.6671 210.858 63.7405C213.297 64.9495 218.062 67.3113 215.874 70.2571C214.992 71.4433 213.699 71.7177 212.4 71.9933C210.953 72.3001 209.5 72.6084 208.598 74.1779C207.867 75.4488 208.092 76.8338 209.592 77.4077C209.894 77.5239 210.139 77.5089 210.382 77.494C210.6 77.4807 210.816 77.4675 211.068 77.5489C211.413 77.661 211.707 77.8081 211.999 77.9539C212.418 78.1636 212.833 78.3708 213.388 78.4682C216.828 79.0711 221.082 79.4056 224.448 78.2409C225.118 78.0086 225.989 77.611 226.535 77.1523C226.781 76.9456 226.901 76.7373 227.021 76.5317C227.108 76.3807 227.195 76.2311 227.33 76.0847C228.101 75.2465 228.894 75.3016 229.988 75.8454C230.857 76.2774 231.676 76.8386 232.494 77.399C233.109 77.8207 233.724 78.2419 234.359 78.6074C234.793 78.8574 235.228 79.1054 235.663 79.3535C236.916 80.0676 238.168 80.7816 239.395 81.5398C239.526 81.6208 239.656 81.7007 239.784 81.7798C242.557 83.4862 244.703 84.8067 245.264 88.3108C245.513 89.866 245.639 91.5225 245.319 93.0778C245.126 94.0226 244.67 94.6588 244.186 95.3346C243.958 95.6524 243.725 95.979 243.509 96.3506C242.14 98.7031 245.704 99.1698 246.831 97.5935C247.658 98.9575 248.373 97.8138 248.057 96.7282C248.451 96.8724 250.572 97.2069 249.832 96.1343C250.118 96.5489 250.906 94.4729 250.878 94.5029C251.023 94.348 251.239 94.3857 251.476 94.4272C251.756 94.4762 252.066 94.5303 252.325 94.2806C252.619 93.9957 252.656 93.4256 252.688 92.915C252.704 92.6752 252.718 92.4485 252.758 92.2706C254.009 93.2581 255.148 94.377 256.285 95.4951C256.885 96.0847 257.484 96.6741 258.1 97.2439C259.564 98.601 259.86 99.2429 258.418 100.722C257.825 101.331 257.243 101.949 256.661 102.568C255.738 103.551 254.814 104.533 253.846 105.475C252.843 106.451 251.762 107.199 250.664 107.959C250.082 108.362 249.494 108.769 248.911 109.215C241.543 114.847 233.436 119.12 224.278 121.067C224.508 118.407 223.727 115.766 221.797 113.872C221.197 113.285 220.074 112.368 219.316 112.034C219.076 111.929 217.248 111.544 216.912 111.861L216.906 111.869L216.931 111.814C217.039 111.599 217.192 111.419 217.393 111.275C214.057 110.347 208.632 110.002 207.072 113.935C206.704 114.863 206.468 116.082 206.978 117.001C207.227 117.452 207.638 117.743 208.049 118.034C208.401 118.283 208.752 118.532 209.002 118.88C209.402 119.438 209.356 119.895 209.307 120.376C209.276 120.686 209.244 121.006 209.329 121.369C209.539 122.254 210.311 122.644 211.077 123.03C211.487 123.237 211.895 123.443 212.214 123.724C211.826 123.734 211.436 123.747 211.043 123.759C207.529 123.871 203.827 123.989 200.577 122.543C199.214 121.936 196.844 120.641 197.029 118.892C197.068 118.522 197.324 118.06 197.596 117.571C198.09 116.682 198.635 115.701 198.026 115.003C197.315 114.189 196.36 115.037 195.528 115.775C195.133 116.125 194.766 116.451 194.466 116.563C193.129 117.066 191.703 115.577 190.619 114.447C190.339 114.154 190.082 113.886 189.856 113.682C189.559 113.416 189.262 113.151 188.965 112.886C187.334 111.431 185.708 109.981 184.272 108.324C184.029 108.042 180.715 103.94 181.29 103.816C181.56 103.757 182.097 104.517 182.201 104.665C182.208 104.675 182.213 104.682 182.216 104.686C182.296 104.306 182.532 103.753 182.798 103.129C183.571 101.32 184.595 98.9201 182.773 98.4627C184.054 98.019 184.625 97.5153 184.462 96.0752C184.355 95.1418 183.597 93.226 182.339 93.7037C182.064 93.8085 181.875 94.1243 181.696 94.423C181.591 94.5984 181.489 94.768 181.376 94.8855C180.784 95.4963 180.023 95.7787 179.243 96.0672C178.922 96.1862 178.555 96.3547 178.165 96.5344C177.019 97.0611 175.664 97.6841 174.629 97.4392C172.804 97.0081 171.323 94.3502 170.299 92.5113C170.108 92.167 169.932 91.8515 169.773 91.5846C168.637 89.6762 167.044 87.9974 165.463 86.332C164.551 85.3712 163.644 84.4149 162.831 83.4216C162.207 82.6608 161.589 81.8955 160.971 81.1303C159.28 79.0357 157.589 76.9412 155.787 74.938C155.398 74.5058 154.997 74.0381 154.584 73.557C153.272 72.0284 151.843 70.3643 150.333 69.2697C146.627 66.5837 148.868 74.1478 149.33 75.3546C150.148 77.4895 151.51 79.314 152.866 81.1305C154.331 83.0924 155.789 85.045 156.547 87.3694C153.86 85.4305 151.633 85.064 148.368 85.3484C146.135 85.5427 141.908 86.9838 142.618 90.0954C143.069 92.075 146.31 92.1616 149.04 92.2346C150.349 92.2696 151.539 92.3014 152.249 92.537C154.455 93.2711 152.918 94.5269 151.42 94.9956C149.205 95.6888 147.04 96.4386 144.85 97.1972C144.515 97.3131 144.18 97.4292 143.844 97.5454C143.489 97.6682 143.103 97.8286 142.7 97.9964C140.98 98.7121 138.938 99.5622 137.563 98.2073C137.032 97.6838 136.625 97.0193 136.222 96.361C135.977 95.9603 135.733 95.5619 135.463 95.1989C135.114 94.7278 134.76 94.2598 134.406 93.7917C133.776 92.957 133.146 92.1222 132.536 91.2701C132.277 90.9088 131.957 90.5204 131.621 90.1125C130.287 88.4945 128.699 86.5686 129.7 84.7986C129.814 84.5953 129.915 84.3278 130.014 84.0652C130.124 83.7729 130.231 83.4865 130.354 83.3014C130.554 82.9992 130.728 82.9285 130.9 82.8587C131.039 82.8022 131.177 82.7462 131.326 82.5683C131.487 82.376 132.276 81.3164 132.07 81.0511C131.932 80.8715 131.751 80.8559 131.61 80.8437C131.392 80.825 131.271 80.8144 131.553 80.2218C131.959 80.4386 132.365 80.6544 132.771 80.8702L132.808 80.8898C132.766 80.6883 132.696 80.4912 132.627 80.2972C132.433 79.7478 132.248 79.2241 132.707 78.7016C132.943 78.4337 133.152 78.3959 133.351 78.3601C133.606 78.3143 133.842 78.2716 134.093 77.7532C134.571 76.7647 134.335 74.1458 133.994 73.0723C133.161 70.444 131.899 71.6946 130.612 72.9693C130.549 73.0317 130.486 73.0943 130.423 73.1564C128.525 75.0252 126.216 76.6896 123.676 77.5529C122.89 72.3052 124.37 67.0454 127.276 62.6629C128.679 60.5468 130.388 58.636 132.291 56.9555C133.321 56.0452 134.412 55.2019 135.55 54.4298C135.726 54.311 135.934 54.1558 136.161 53.9863C136.889 53.444 137.811 52.7562 138.482 52.6531C139.061 52.5644 139.106 52.6309 139.295 52.9068C139.358 52.9984 139.437 53.1132 139.556 53.253C139.878 53.6299 140.153 54.014 140.425 54.394C140.899 55.055 141.363 55.7032 142.047 56.2775C143.742 57.7016 145.859 58.5078 147.92 59.2539C149.205 59.7176 152.352 60.7571 152.293 58.3335C152.252 56.687 150.13 55.3511 148.797 54.5114C148.703 54.4527 148.614 54.3964 148.53 54.3426C150.199 53.8259 151.509 52.5951 152.636 51.3092C152.2 51.166 151.494 50.0053 151.741 49.5476C151.78 49.4761 152.256 49.2951 152.604 49.1627ZM216.906 111.869L216.893 111.897C216.881 111.925 216.87 111.954 216.86 111.983C216.86 111.947 216.87 111.915 216.89 111.888L216.906 111.869ZM198.933 70.2121L198.926 70.2081L198.878 70.187C198.898 70.203 198.917 70.2111 198.933 70.2121ZM219.397 121.991C219.007 122.178 217.578 121.602 218.228 121.201C218.603 120.969 218.98 121.46 219.232 121.788C219.296 121.871 219.352 121.944 219.397 121.991ZM227.069 88.0452C226.879 87.522 226.693 87.0097 226.268 86.7835C225.113 86.1696 224.277 87.6287 223.886 88.478C222.739 90.9626 221.635 95.5795 222.441 98.2995C222.59 98.8044 222.707 99.3076 222.823 99.8037C223.262 101.69 223.677 103.473 225.745 104.852C227.902 106.29 230.844 106.581 233.369 106.412C234.567 106.332 235.868 106.208 236.87 105.5C237.045 105.376 237.187 105.212 237.33 105.048C237.492 104.862 237.655 104.676 237.864 104.547C237.972 104.48 238.136 104.443 238.302 104.405C238.522 104.354 238.747 104.303 238.85 104.182C238.98 104.03 238.214 103.627 238.048 103.547L238.037 103.542L238.1 103.496C238.462 103.212 238.469 102.838 238.476 102.442C238.479 102.276 238.483 102.105 238.512 101.936C238.508 101.933 239.206 102.58 239.386 102.519C239.4 102.514 239.318 102.305 239.212 102.036C239.037 101.591 238.798 100.981 238.819 100.849C238.854 100.631 238.986 100.454 239.12 100.275C239.269 100.075 239.421 99.8715 239.446 99.6024C239.482 99.203 239.24 98.7652 239.023 98.374C238.944 98.2296 238.867 98.0915 238.81 97.964C237.777 95.6766 236.403 94.1724 233.99 93.3021C231.748 92.4929 229.221 90.9316 227.622 89.143C227.363 88.8532 227.215 88.446 227.069 88.0452ZM203.724 84.5157C203.84 83.8017 203.968 83.0202 203.694 82.4511C201.657 78.2188 196.284 87.5947 195.538 89.0208C193.355 93.1979 190.544 100.18 192.599 104.85C193.586 107.091 195.52 108.298 197.902 108.441L198.049 108.45C199.297 108.526 201.119 108.636 202.299 108.378C202.505 108.381 202.712 108.385 202.919 108.389L202.938 108.389C203.192 108.308 203.301 108.137 203.266 107.875C203.453 107.798 203.584 107.855 203.696 107.904C203.862 107.976 203.984 108.03 204.178 107.601C204.319 107.58 204.722 107.817 205.041 108.005C205.189 108.091 205.318 108.168 205.394 108.202C205.454 108.229 205.405 108.087 205.34 107.899C205.259 107.666 205.154 107.362 205.196 107.214C205.382 106.562 205.483 106.655 205.615 106.776C205.709 106.862 205.817 106.962 205.983 106.82C206.092 106.912 206.214 106.923 206.347 106.854C206.56 106.584 206.652 106.278 206.625 105.939C206.789 105.694 206.954 105.54 207.119 105.386C207.247 105.267 207.375 105.148 207.504 104.985C208.724 103.432 207.705 101.054 206.92 99.347C206.167 97.7096 205.224 96.0111 204.101 94.6C203.952 94.4125 203.615 94.1782 203.308 93.9652C203.029 93.7709 202.775 93.5944 202.712 93.4874C202.636 93.3564 202.656 93.1448 202.676 92.9299C202.694 92.7374 202.713 92.5422 202.662 92.3998C202.619 92.2754 202.496 92.1312 202.37 91.9843C202.25 91.845 202.129 91.7032 202.072 91.5736C203.674 92.1491 203.349 90.125 203.129 88.7616C203.058 88.3195 202.998 87.9469 203.019 87.7549C203.064 87.3359 203.184 87.007 203.306 86.6766C203.446 86.2955 203.587 85.9126 203.612 85.3874C203.624 85.1251 203.673 84.8268 203.724 84.5157ZM226.715 94.3034C226.694 94.2057 226.673 94.1096 226.661 94.0212C226.246 94.1201 226.343 94.4715 226.444 94.8412C226.474 94.9505 226.505 95.0614 226.523 95.1679C226.879 95.055 226.794 94.6671 226.715 94.3034ZM194.817 100.907C194.829 100.82 194.739 100.72 194.5 100.13C194.28 100.597 194.301 101.053 194.563 101.498C194.709 101.057 194.807 100.988 194.817 100.907ZM228.389 91.4717C228.331 91.4299 228.28 91.3932 228.243 91.3633C228.249 91.4096 228.253 91.4721 228.258 91.5433C228.28 91.9111 228.318 92.5107 228.735 92.3026C229.214 92.0623 228.701 91.6948 228.389 91.4717ZM202.525 89.098C201.722 89.4869 201.18 89.749 201.152 88.5501L202.785 88.9737C202.695 89.0155 202.609 89.0575 202.525 89.098ZM5.01835 94.2986C3.64703 88.5851 2.2733 81.4166 6.16294 76.3231C7.61538 74.4203 10.0893 73.1464 12.4959 74.0017C14.2015 74.6076 15.6078 76.3651 16.6589 77.7552C17.7452 79.1933 19.1675 81.1832 19.2154 83.067C19.2555 84.6618 17.8926 85.0986 16.5875 85.5169C16.2756 85.6168 15.967 85.7157 15.6817 85.8291C14.2684 86.3909 11.6503 88.2957 13.9922 89.7239C15.2184 90.4712 17.0118 89.8344 18.5199 89.2989C19.0287 89.1182 19.505 88.9491 19.9161 88.8485C21.1829 88.5381 22.0875 88.7534 22.453 90.1735C22.6864 91.0828 22.5275 91.2351 21.6849 91.6837C21.3577 91.8579 20.8669 92.0028 20.3316 92.1608C19.0478 92.5397 17.5077 92.9943 17.3524 94.1103C17.0523 96.2621 20.6048 95.0944 21.5735 94.7759L21.6029 94.7663C23.9201 94.0051 25.2728 93.6597 27.3036 95.4032C27.7217 95.7621 28.158 96.1105 28.5966 96.4607C29.8545 97.4652 31.1305 98.4842 32.0441 99.8037C32.4494 100.39 33.1603 101.426 32.4251 102.002C32.2081 102.172 31.8731 102.148 31.5483 102.126C31.3288 102.111 31.114 102.096 30.9436 102.141C30.3036 102.312 29.8726 102.676 29.4159 103.142C24.7489 107.902 27.1385 114.604 29.0839 120.06C29.2186 120.438 29.3512 120.809 29.4791 121.174L29.3838 121.2C25.5658 122.246 21.6058 123.33 17.6125 122.858C13.8956 122.418 12.5138 120.843 11.4263 117.403C9.01956 109.79 6.8817 102.063 5.01835 94.2986ZM29.609 111.908C29.4596 110.1 30.0366 107.348 31.8767 106.504C32.7511 106.103 34.0458 106.289 35.1204 106.444C35.4037 106.485 35.6717 106.524 35.9127 106.549C36.4026 106.6 36.8918 106.657 37.3811 106.714C38.4687 106.84 39.5563 106.966 40.6498 107.031C39.4894 110.898 38.8383 114.935 38.8814 118.977C37.8648 118.38 36.6791 118.24 35.4991 118.1C34.2358 117.951 32.979 117.803 31.9437 117.095C30.4179 116.053 29.7538 113.655 29.609 111.908ZM157.702 88.4987L157.686 88.49C157.714 88.6569 157.725 88.8062 157.735 88.9356C157.774 89.4321 157.79 89.635 158.594 89.4094C158.362 88.8574 158.201 88.7702 157.702 88.4987ZM165.671 59.2078C164.386 58.7649 163.535 58.4713 162.028 58.7512C161.412 58.8653 158.65 59.5523 158.703 60.4987C158.739 61.1499 159.361 61.144 159.905 61.1389C160.217 61.136 160.504 61.1333 160.64 61.2548C160.98 61.5571 160.809 61.8981 160.618 62.2795C160.415 62.6854 160.189 63.1371 160.53 63.6364C160.789 64.0148 161.277 64.2992 161.773 64.5885C162.203 64.8389 162.639 65.093 162.938 65.415C163.111 65.6014 163.332 65.8864 163.589 66.2169C164.611 67.5302 166.189 69.5605 167.483 68.9652C167.001 70.0919 168.12 71.6111 168.842 72.3903C168.959 72.5171 169.072 72.5809 169.182 72.6433C169.326 72.7252 169.467 72.8046 169.609 73.0212C169.704 73.1663 169.758 73.4774 169.812 73.7807C169.854 74.0235 169.896 74.2614 169.957 74.4052C170.748 76.275 172.058 78.1768 173.808 79.2594C175.781 80.4802 178.436 80.7546 180.644 80.0906C183.181 79.3285 184.312 77.2384 185.03 74.8309C185.069 74.6998 184.994 74.4913 184.92 74.2851C184.861 74.1211 184.803 73.9585 184.802 73.8374C184.8 73.5166 184.909 73.2288 185.019 72.9404C185.144 72.6103 185.27 72.2792 185.23 71.8965C185.189 71.5187 184.99 71.1834 184.793 70.8513C184.667 70.6393 184.541 70.4287 184.459 70.209C184.303 69.7947 184.231 69.3556 184.159 68.9167C184.101 68.5611 184.042 68.2056 183.94 67.8636C183.167 65.2828 180.887 63.9568 178.634 62.8983C178.236 62.7112 177.703 62.4103 177.085 62.0613C174.386 60.5367 170.064 58.0956 168.285 60.2283C168.092 59.3243 167.609 59.3539 167.01 59.3905C166.686 59.4104 166.327 59.4324 165.962 59.308C165.862 59.2739 165.766 59.2404 165.671 59.2078ZM192.753 63.1281C192.731 63.1583 192.714 63.1827 192.702 63.1987C192.741 63.1905 192.797 63.183 192.864 63.1743C193.206 63.1297 193.814 63.0505 193.662 62.6529C193.465 62.1318 192.945 62.8602 192.753 63.1281ZM102.694 19.3761C103.54 18.2239 104.491 16.9279 105.751 16.5789C105.725 17.9605 105.078 19.1581 104.435 20.3466C103.617 21.8597 102.808 23.3579 103.298 25.2016C104.085 28.162 107.587 30.9682 110.431 31.8134L110.436 31.7247C110.572 28.9016 110.686 26.5338 113.652 25.3078C115.721 24.4545 117.612 24.9683 119.102 26.5777C121.447 29.1084 122.43 34.241 118.48 35.7983C118.752 36.8243 120.526 36.8393 121.603 36.8483C121.791 36.8499 121.958 36.8513 122.092 36.8578C123.717 36.938 125.274 37.2745 126.783 37.8994C128.602 38.6525 130.227 39.7358 131.853 40.8199C133.254 41.7542 134.656 42.689 136.183 43.4135C136.255 43.4473 136.392 43.5017 136.568 43.571C137.281 43.8525 138.621 44.3811 138.684 44.7845C138.753 45.2244 137.716 45.7522 137.189 46.0207C137.089 46.0713 137.008 46.1127 136.955 46.1426C136.243 46.5493 135.513 46.9104 134.784 47.2703C133.386 47.9613 131.997 48.6481 130.761 49.6457C130.405 49.9335 130.001 50.3974 129.569 50.8926C128.731 51.8537 127.79 52.9326 126.903 53.0708C125.98 53.2148 124.649 52.4031 123.517 51.7125C123.004 51.3997 122.532 51.1116 122.157 50.9486C120.55 50.2516 118.735 49.7499 116.982 50.1645C115.812 50.4413 114.718 51.1163 113.64 51.7818C113.005 52.1733 112.376 52.5615 111.74 52.8635C111.637 52.9124 111.518 52.9702 111.384 53.035C109.295 54.0457 103.717 56.7453 102.724 53.7758C102.61 53.4358 102.611 53.0622 102.611 52.6991C102.611 51.9413 102.611 51.2294 101.578 50.9646C100.482 50.684 99.5865 51.4139 98.7404 52.1037C98.3394 52.4306 97.9495 52.7485 97.5544 52.9456C96.2414 53.6006 93.4263 53.1879 92.2726 52.2055C91.5971 51.6307 91.8726 51.1509 92.2199 50.546C92.387 50.255 92.5707 49.935 92.6732 49.5616C93.5109 46.5045 91.1891 44.0454 89.1506 41.8864C88.6936 41.4024 88.2508 40.9334 87.8611 40.4762C88.5972 39.8503 90.7023 39.6009 91.5856 39.9614C92.4464 40.313 92.8553 41.2159 93.2625 42.115C93.5559 42.763 93.8485 43.4089 94.3086 43.8452C95.5394 45.0139 97.7887 45.1981 97.8148 42.9809C97.8243 42.1411 97.3408 41.4878 96.8615 40.8402C96.4401 40.2708 96.0218 39.7057 95.945 39.022C95.8409 38.1001 96.4704 37.6849 97.1236 37.2541C97.551 36.9722 97.9886 36.6836 98.2374 36.2419C99.2338 34.4713 97.4642 33.7312 96.0171 33.7473C93.7758 33.7733 91.5305 34.6366 89.5015 35.5038C89.3253 35.5789 89.1354 35.6512 88.9405 35.7254C88.3291 35.9582 87.6681 36.2099 87.2231 36.6245C86.7084 37.1045 86.6535 37.6156 86.5957 38.1531C86.5585 38.4993 86.5201 38.8565 86.3568 39.2233C84.4901 37.0501 82.6233 34.8759 80.7576 32.7027C82.0665 32.0237 83.441 31.4956 84.816 30.9674C86.1258 30.4642 87.4361 29.9609 88.6903 29.3267C91.225 28.0448 93.7357 26.6408 96.1533 25.1486C98.2284 23.8657 100.255 22.3214 101.854 20.4667C102.127 20.1493 102.405 19.7712 102.694 19.3761ZM199.951 23.3499C195.512 22.8171 191.081 22.6479 186.614 22.764C177.403 23.0034 168.147 23.8516 159.249 26.3593C158.902 26.4897 158.528 26.6012 158.149 26.7147C156.888 27.0912 155.559 27.4884 154.878 28.6597C153.97 30.2241 154.613 31.3057 156.276 31.3347C157.779 31.3611 159.35 31.0919 160.884 30.8292C161.501 30.7233 162.113 30.6185 162.711 30.5345C163.903 30.3676 165.094 30.1959 166.285 30.0242C167.595 29.8353 168.905 29.6465 170.216 29.4639C179.291 28.2021 188.467 27.2317 197.642 27.3679C199.091 27.3893 200.558 27.525 202.026 27.6609C204.058 27.8488 206.092 28.037 208.086 27.9237L208.097 27.9231C208.855 27.88 210.125 27.8078 210.476 26.9813C210.886 26.0179 209.852 25.1416 209.107 24.801C207.216 23.9388 204.603 23.738 202.263 23.5582C201.445 23.4953 200.66 23.435 199.951 23.3499ZM167.962 17.2609C169.264 17.0947 172.58 15.8869 169.441 15.5013C166.418 15.1298 162.844 15.5795 159.957 16.4137C159.207 16.63 155.529 17.8668 156.673 18.9194C157.459 19.643 159.21 19.0072 160.532 18.527C161.002 18.3565 161.417 18.2057 161.716 18.1422C161.684 17.9907 165.999 17.4896 167.49 17.3165C167.732 17.2883 167.9 17.2688 167.962 17.2609Z" fill="#0F2167"/>
</svg>
