<svg width="29" height="29" viewBox="0 0 29 29" fill="none" xmlns="http://www.w3.org/2000/svg">
<path d="M21.2647 0.0149861C23.3505 -0.115379 25.4074 0.608872 26.9573 2.0284C28.3769 3.5783 29.1011 5.63517 28.9852 7.7355V21.2645C29.1156 23.3648 28.3769 25.4217 26.9718 26.9716C25.4219 28.3911 23.3505 29.1154 21.2647 28.985H7.73556C5.63522 29.1154 3.57833 28.3911 2.02842 26.9716C0.608877 25.4217 -0.11538 23.3648 0.0149862 21.2645V7.7355C-0.11538 5.63517 0.608877 3.5783 2.02842 2.0284C3.57833 0.608872 5.63522 -0.115379 7.73556 0.0149861H21.2647ZM20.8881 6.63464C19.99 5.73657 18.5415 5.73657 17.6434 6.63464L16.6729 7.61962C16.528 7.76447 16.528 8.01071 16.6729 8.15556C16.6729 8.15556 16.7013 8.18382 16.7519 8.23413L17.1082 8.58848C17.3143 8.79353 17.5716 9.04961 17.8299 9.30712L18.7058 10.1826C18.8886 10.3662 19.0098 10.4893 19.0195 10.5021C19.1788 10.676 19.2802 10.9077 19.2802 11.1684C19.2802 11.6899 18.8601 12.1245 18.3242 12.1245C18.0779 12.1245 17.8462 12.0231 17.6868 11.8637L15.2678 9.45922C15.1519 9.34334 14.9492 9.34334 14.8333 9.45922L7.92387 16.3686C7.44586 16.8466 7.17064 17.4839 7.15616 18.1647L7.06925 21.5977C7.06925 21.786 7.12719 21.9598 7.25755 22.0901C7.38792 22.2205 7.56174 22.2929 7.75005 22.2929H11.1541C11.8493 22.2929 12.5157 22.0177 13.0226 21.5252L22.7711 11.7478C23.6547 10.8498 23.6547 9.40128 22.7711 8.51769L20.8881 6.63464Z" fill="#F9F9F9"/>
</svg>
