<svg width="29" height="29" viewBox="0 0 29 29" fill="none" xmlns="http://www.w3.org/2000/svg">
<path d="M14.5 29C22.5081 29 29 22.5081 29 14.5C29 6.49186 22.5081 0 14.5 0C6.49187 0 0 6.49186 0 14.5C0 22.5081 6.49187 29 14.5 29Z" fill="#4CB9E7"/>
<g opacity="0.79">
<path d="M14.5 29C22.5081 29 29 22.5081 29 14.5C29 6.49186 22.5081 0 14.5 0C6.49187 0 0 6.49186 0 14.5C0 22.5081 6.49187 29 14.5 29Z" fill="#FFECD6"/>
</g>
<g opacity="0.18">
<path d="M22.3801 11.5877C24.0527 11.5877 25.4087 10.2317 25.4087 8.55904C25.4087 6.88638 24.0527 5.53042 22.3801 5.53042C20.7074 5.53042 19.3515 6.88638 19.3515 8.55904C19.3515 10.2317 20.7074 11.5877 22.3801 11.5877Z" fill="#4CB9E7"/>
</g>
<g opacity="0.18">
<path d="M20.0172 1.08863C20.0003 1.39477 19.9158 1.69337 19.7697 1.96297C19.6237 2.23256 19.4197 2.46646 19.1726 2.64786C18.9254 2.82926 18.6411 2.95365 18.3401 3.01211C18.0391 3.07056 17.7289 3.06162 17.4317 2.98593C17.1346 2.91024 16.858 2.76967 16.6216 2.57434C16.3853 2.379 16.1952 2.13374 16.0649 1.85618C15.9346 1.57863 15.8674 1.27566 15.8682 0.969045C15.8689 0.662434 15.9375 0.359797 16.0692 0.082872C17.4264 0.228355 18.7558 0.567026 20.0172 1.08863Z" fill="#4CB9E7"/>
</g>
<g opacity="0.18">
<path d="M9.42301 18.0318C12.9817 18.0318 15.8665 15.1469 15.8665 11.5883C15.8665 8.02959 12.9817 5.14472 9.42301 5.14472C5.86434 5.14472 2.97948 8.02959 2.97948 11.5883C2.97948 15.1469 5.86434 18.0318 9.42301 18.0318Z" fill="#4CB9E7"/>
</g>
<path opacity="0.18" d="M25.1954 24.2901C23.7763 25.8482 22.0315 27.0745 20.0849 27.8821C19.805 27.5495 19.5973 27.1624 19.475 26.7453C19.3526 26.3282 19.3184 25.8902 19.3744 25.4591C19.4304 25.028 19.5755 24.6133 19.8003 24.2413C20.0252 23.8693 20.3249 23.5481 20.6806 23.2982C21.0362 23.0482 21.4399 22.8749 21.8661 22.7893C22.2923 22.7037 22.7316 22.7077 23.1562 22.801C23.5807 22.8943 23.9812 23.0748 24.3323 23.3312C24.6833 23.5875 24.9773 23.9141 25.1954 24.2901Z" fill="#4CB9E7"/>
</svg>
