<svg width="20" height="17" viewBox="0 0 20 17" fill="none" xmlns="http://www.w3.org/2000/svg">
<path d="M11.1617 3.05881C10.7802 3.01755 10.3925 2.9939 9.99961 2.98802C8.2826 2.99563 6.5027 3.41328 4.81793 4.21357C3.56701 4.83225 2.34848 5.70566 1.29023 6.78304C0.770504 7.33302 0.107179 8.12935 0 8.97899C0.0126662 9.71499 0.802519 10.6234 1.29023 11.175C2.28258 12.21 3.46938 13.0584 4.81793 13.7444C4.86376 13.7667 4.90976 13.7887 4.95586 13.8103L3.70471 15.9953L5.40472 17L14.5946 1.00009L12.9583 0L11.1617 3.05881ZM15.0421 4.15009L13.7934 6.31429C14.3679 7.06063 14.7089 7.98099 14.7089 8.97899C14.7089 11.4665 12.6003 13.4832 9.99838 13.4832C9.8859 13.4832 9.77689 13.4711 9.66636 13.4637L8.83998 14.8943C9.22109 14.9351 9.60645 14.9648 9.9996 14.97C11.7182 14.9623 13.4971 14.5398 15.1801 13.7444C16.431 13.1258 17.6507 12.2523 18.709 11.175C19.2287 10.625 19.892 9.82865 19.9992 8.97899C19.9865 8.243 19.1967 7.33457 18.709 6.78302C17.7166 5.74796 16.5286 4.89954 15.1801 4.21354C15.1345 4.19147 15.0879 4.17162 15.0421 4.15009ZM9.9984 4.47479C10.1125 4.47479 10.2257 4.47936 10.3377 4.48699L9.36975 6.16295C8.01124 6.43837 6.99191 7.59422 6.99191 8.97779C6.99191 9.32534 7.05593 9.65808 7.17379 9.9665C7.17392 9.96685 7.17366 9.96738 7.17379 9.96773L6.20336 11.6486C5.62753 10.9015 5.28786 9.97815 5.28786 8.97897C5.28788 6.49148 7.39651 4.47478 9.9984 4.47479ZM12.8144 8.00857L10.6331 11.7877C11.9844 11.5071 12.9963 10.3565 12.9963 8.97779C12.9963 8.63657 12.9282 8.31216 12.8144 8.00857Z" fill="#282A3D" fill-opacity="0.8"/>
</svg>
