<svg width="29" height="29" viewBox="0 0 29 29" fill="none" xmlns="http://www.w3.org/2000/svg">
<path d="M28.4436 10.5273C28.7067 11.4515 28.8779 12.3994 28.9549 13.3572C29.2173 16.6954 28.316 20.0216 26.4043 22.7707C24.4926 25.5199 21.6883 27.5227 18.4676 28.4389C15.2468 29.3551 11.8083 29.1283 8.73577 27.797C5.66328 26.4657 3.14629 24.1119 1.61225 21.1355C0.638795 19.2382 0.0920239 17.151 0.0102769 15.0202C-0.105659 11.7793 0.868108 8.59298 2.77595 5.97052C4.6838 3.34806 7.41561 1.44078 10.5349 0.553449C13.6541 -0.333881 16.9808 -0.150039 19.9833 1.07559C22.9858 2.30121 25.4908 4.49789 27.0981 7.3146C27.6738 8.32769 28.1255 9.40632 28.4436 10.5273Z" fill="#4CB9E7"/>
<g opacity="0.64">
<path d="M28.4436 10.5272C28.7067 11.4514 28.8779 12.3993 28.9549 13.3571C29.2173 16.6954 28.316 20.0215 26.4043 22.7707C24.4926 25.5199 21.6883 27.5226 18.4676 28.4388C15.2468 29.355 11.8083 29.1282 8.73577 27.7969C5.66328 26.4656 3.14629 24.1119 1.61225 21.1354C0.638795 19.2382 0.0920239 17.151 0.0102769 15.0201C-0.105659 11.7792 0.868108 8.59292 2.77595 5.97046C4.6838 3.348 7.41561 1.44072 10.5349 0.553386C13.6541 -0.333943 16.9808 -0.150102 19.9833 1.07552C22.9858 2.30115 25.4908 4.49782 27.0981 7.31453C27.6738 8.32763 28.1255 9.40625 28.4436 10.5272Z" fill="#FFECD6"/>
</g>
<g opacity="0.28">
<path d="M27.0979 7.31458L0.0100214 15.0218C-0.0671405 12.9562 0.30202 10.8982 1.09232 8.98825L23.0019 2.75478C24.6791 3.96264 26.0761 5.51792 27.0979 7.31458Z" fill="#FFECD6"/>
</g>
<g opacity="0.28">
<path d="M28.9547 13.3572C29.1146 15.3721 28.8498 17.3981 28.1776 19.3042L5.40279 25.7831C3.828 24.5162 2.53658 22.9328 1.612 21.1355L28.9547 13.3572Z" fill="#FFECD6"/>
</g>
</svg>
