<svg width="210" height="240" viewBox="0 0 210 240" fill="none" xmlns="http://www.w3.org/2000/svg">
<path opacity="0.05" d="M192.281 30.9508H149.557C148.829 30.9508 148.239 31.5407 148.239 32.2684V61.7667C148.239 62.4944 148.829 63.0843 149.557 63.0843H192.281C193.008 63.0843 193.598 62.4944 193.598 61.7667V32.2684C193.598 31.5407 193.008 30.9508 192.281 30.9508Z" fill="#0F2167"/>
<path opacity="0.05" d="M167.341 40.6999C169.154 40.6999 170.624 39.2305 170.624 37.4178C170.624 35.6052 169.154 34.1358 167.341 34.1358C165.529 34.1358 164.059 35.6052 164.059 37.4178C164.059 39.2305 165.529 40.6999 167.341 40.6999Z" fill="#0F2167"/>
<path opacity="0.05" d="M168.579 52.4384L178.093 41.8243C178.687 41.1616 179.519 40.7598 180.407 40.7061C181.295 40.6524 182.169 40.951 182.838 41.5373L193.598 50.9581V61.7715C193.598 62.1197 193.46 62.4536 193.214 62.6998C192.968 62.946 192.634 63.0843 192.286 63.0843H180.592" fill="#0F2167"/>
<path opacity="0.1" d="M180.592 63.0843L159.961 44.8011C159.352 44.2608 158.567 43.9587 157.753 43.9506C156.938 43.9424 156.148 44.2286 155.528 44.7565L148.24 50.9581V61.8971C148.24 62.053 148.271 62.2074 148.33 62.3515C148.39 62.4955 148.478 62.6264 148.588 62.7367C148.698 62.8469 148.829 62.9343 148.973 62.994C149.117 63.0536 149.272 63.0843 149.427 63.0843H180.592Z" fill="#0F2167"/>
<path opacity="0.05" d="M82.0853 32.8073H43.6577C43.0033 32.8073 42.4727 33.3378 42.4727 33.9923V60.5246C42.4727 61.1791 43.0033 61.7096 43.6577 61.7096H82.0853C82.7398 61.7096 83.2704 61.1791 83.2704 60.5246V33.9923C83.2704 33.3378 82.7398 32.8073 82.0853 32.8073Z" fill="#0F2167"/>
<path opacity="0.05" d="M59.6536 41.5758C61.284 41.5758 62.6056 40.2542 62.6056 38.6238C62.6056 36.9935 61.284 35.6719 59.6536 35.6719C58.0233 35.6719 56.7017 36.9935 56.7017 38.6238C56.7017 40.2542 58.0233 41.5758 59.6536 41.5758Z" fill="#0F2167"/>
<path opacity="0.05" d="M60.7668 52.134L69.3245 42.5873C69.8587 41.9912 70.6064 41.6298 71.4053 41.5815C72.2043 41.5332 72.9901 41.8018 73.5922 42.3291L83.2704 50.8028V60.5276C83.2704 60.8408 83.146 61.1411 82.9245 61.3626C82.7031 61.584 82.4027 61.7084 82.0896 61.7084H71.5717" fill="#0F2167"/>
<path opacity="0.1" d="M71.5716 61.7108L53.0151 45.2672C52.4668 44.7812 51.7614 44.5095 51.0287 44.5022C50.2961 44.4948 49.5854 44.7522 49.0274 45.2271L42.4742 50.8052V60.6441C42.4742 60.9274 42.5867 61.199 42.787 61.3993C42.9872 61.5996 43.2589 61.7121 43.5421 61.7121L71.5716 61.7108Z" fill="#0F2167"/>
<path d="M31.8228 33.8275C29.6402 33.8121 27.5402 32.9904 25.9269 31.5203C24.3135 30.0502 23.3006 28.0355 23.0829 25.8636C22.8653 23.6918 23.4582 21.5161 24.7478 19.7551C26.0373 17.994 27.9324 16.7719 30.0686 16.3237C29.4994 13.0906 30.1156 9.76072 31.804 6.94538C33.0294 4.87455 34.7847 3.16784 36.8891 2.00111C38.9935 0.834369 41.3709 0.249786 43.7764 0.307584C46.1819 0.365383 48.5285 1.06347 50.5745 2.32993C52.6204 3.59639 54.2917 5.38542 55.4162 7.51272C56.7389 6.60406 58.3404 6.19275 59.9372 6.35161C61.534 6.51048 63.0231 7.22927 64.1408 8.38071C65.2235 9.49445 65.9003 10.9399 66.0624 12.4847C68.0879 12.6216 70.0325 13.332 71.6694 14.5327C73.3062 15.7335 74.5677 17.3751 75.3066 19.266C76.0454 21.1568 76.2311 23.2188 75.842 25.2112C75.4528 27.2036 74.5049 29.0442 73.109 30.5181C72.1516 31.5342 71.0017 32.3496 69.726 32.9169C68.4504 33.4841 67.0747 33.7918 65.679 33.822L31.8228 33.8275Z" fill="#0F2167"/>
<path d="M29.2986 33.8276C27.1159 33.8122 25.016 32.9905 23.4026 31.5204C21.7892 30.0502 20.7763 28.0355 20.5587 25.8637C20.341 23.6919 20.934 21.5162 22.2235 19.7552C23.5131 17.9941 25.4082 16.772 27.5444 16.3238C26.9751 13.0908 27.5912 9.76084 29.2795 6.94545C30.5049 4.87463 32.2602 3.16794 34.3646 2.00121C36.4691 0.834485 38.8465 0.249909 41.252 0.307707C43.6575 0.365504 46.0042 1.06359 48.0501 2.33004C50.0961 3.59648 51.7674 5.38551 52.892 7.51279C54.2146 6.60413 55.8161 6.19282 57.4129 6.35169C59.0098 6.51055 60.4988 7.22935 61.6165 8.38079C62.6991 9.4946 63.3759 10.94 63.5382 12.4847C65.5636 12.6217 67.5083 13.3321 69.1451 14.5328C70.782 15.7336 72.0435 17.3752 72.7823 19.2661C73.5212 21.1569 73.7069 23.2189 73.3177 25.2113C72.9286 27.2037 71.9807 29.0443 70.5847 30.5182C69.6274 31.5343 68.4774 32.3497 67.2018 32.9169C65.9262 33.4841 64.5504 33.7918 63.1547 33.8221L29.2986 33.8276Z" fill="white"/>
<path d="M29.2986 34.1309C26.8826 34.1199 24.5697 33.1509 22.8673 31.4366C21.1648 29.7223 20.2119 27.4028 20.2175 24.9868C20.1922 22.9301 20.8706 20.9265 22.1402 19.3082C23.4099 17.69 25.1945 16.5543 27.1982 16.0896C26.7073 12.8728 27.3509 9.58548 29.0186 6.79132C30.2567 4.6981 32.0248 2.96825 34.1445 1.77612C36.2643 0.583991 38.6608 -0.028285 41.0926 0.00100354C43.5244 0.0302921 45.9056 0.70011 47.996 1.94294C50.0864 3.18578 51.8123 4.95771 52.9997 7.08014C54.376 6.22781 56.0022 5.87128 57.6088 6.06964C59.2154 6.268 60.7061 7.00935 61.8338 8.17083C62.9027 9.2708 63.5942 10.6822 63.8082 12.2011C65.8661 12.3877 67.8299 13.15 69.4748 14.4006C71.1197 15.6512 72.3792 17.3397 73.1093 19.2728C73.8394 21.2059 74.0104 23.3055 73.6029 25.3312C73.1954 27.357 72.2257 29.2271 70.805 30.7275C69.82 31.7726 68.6369 32.6112 67.3246 33.1946C66.0124 33.7779 64.5971 34.0944 63.1614 34.1255L29.2986 34.1309ZM40.9299 0.608244C38.9864 0.618297 37.0684 1.0524 35.3099 1.88025C33.5514 2.7081 31.9948 3.90976 30.7487 5.40133C29.5026 6.89291 28.597 8.63847 28.0952 10.5162C27.5934 12.3939 27.5074 14.3585 27.8432 16.2728L27.8939 16.5641L27.6042 16.6223C25.6749 17.0049 23.9405 18.0509 22.7021 19.5789C21.4636 21.1068 20.7992 23.0201 20.8243 24.9868C20.8185 27.2419 21.7075 29.4072 23.2961 31.0077C24.8848 32.6083 27.0435 33.5132 29.2986 33.5242L63.1547 33.5199C64.5093 33.4896 65.8443 33.1902 67.0821 32.6392C68.3199 32.0881 69.4358 31.2964 70.3648 30.3101C71.7209 28.878 72.6418 27.0898 73.0198 25.1541C73.3979 23.2183 73.2176 21.215 72.4999 19.3779C71.7822 17.5409 70.5568 15.9458 68.9667 14.779C67.3767 13.6121 65.4875 12.9216 63.5197 12.7881L63.263 12.7729L63.2363 12.5172C63.0809 11.0404 62.4339 9.65862 61.3993 8.59345C60.3316 7.4933 58.9091 6.80645 57.3836 6.65453C55.858 6.5026 54.328 6.8954 53.0643 7.76338L52.784 7.95664L52.6241 7.65628C51.4989 5.53008 49.8158 3.75054 47.7555 2.5088C45.6952 1.26706 43.3355 0.610019 40.9299 0.608244Z" fill="#0F2167"/>
<path d="M47.1964 28.9144C47.116 28.9144 47.0388 28.8824 46.9819 28.8255C46.925 28.7686 46.893 28.6915 46.893 28.611V10.9892C46.893 10.9088 46.925 10.8316 46.9819 10.7747C47.0388 10.7178 47.116 10.6858 47.1964 10.6858C47.2769 10.6858 47.354 10.7178 47.4109 10.7747C47.4678 10.8316 47.4998 10.9088 47.4998 10.9892V28.611C47.4998 28.6915 47.4678 28.7686 47.4109 28.8255C47.354 28.8824 47.2769 28.9144 47.1964 28.9144Z" fill="#0F2167"/>
<path d="M53.8516 17.9475C53.8117 17.9476 53.7723 17.9398 53.7354 17.9246C53.6986 17.9093 53.6652 17.8869 53.6371 17.8586L47.1965 11.4183L40.7561 17.8586C40.6989 17.9139 40.6222 17.9445 40.5427 17.9438C40.4632 17.9431 40.3871 17.9112 40.3308 17.8549C40.2746 17.7987 40.2427 17.7226 40.242 17.643C40.2413 17.5635 40.2718 17.4868 40.3271 17.4296L46.9817 10.7748C47.0397 10.72 47.1165 10.6895 47.1963 10.6895C47.2761 10.6895 47.3529 10.72 47.4109 10.7748L54.0658 17.4296C54.1082 17.472 54.1371 17.5261 54.1488 17.5849C54.1605 17.6438 54.1545 17.7048 54.1315 17.7602C54.1086 17.8156 54.0697 17.863 54.0198 17.8964C53.9699 17.9297 53.9113 17.9475 53.8513 17.9475H53.8516Z" fill="#0F2167"/>
<path opacity="0.05" d="M207.957 107.936H141.711C140.583 107.936 139.668 108.851 139.668 109.979V155.718C139.668 156.847 140.583 157.761 141.711 157.761H207.957C209.085 157.761 210 156.847 210 155.718V109.979C210 108.851 209.085 107.936 207.957 107.936Z" fill="#0F2167"/>
<path opacity="0.05" d="M169.287 123.053C172.097 123.053 174.376 120.774 174.376 117.964C174.376 115.153 172.097 112.875 169.287 112.875C166.476 112.875 164.198 115.153 164.198 117.964C164.198 120.774 166.476 123.053 169.287 123.053Z" fill="#0F2167"/>
<path opacity="0.05" d="M171.205 141.254L185.958 124.796C186.879 123.769 188.168 123.146 189.546 123.062C190.923 122.979 192.278 123.442 193.316 124.351L210 138.959V155.726C210 156.266 209.785 156.784 209.404 157.165C209.022 157.547 208.504 157.762 207.964 157.762H189.832" fill="#0F2167"/>
<path opacity="0.1" d="M189.832 157.762L157.842 129.412C156.897 128.574 155.681 128.106 154.418 128.093C153.155 128.081 151.93 128.524 150.968 129.343L139.668 138.96V155.922C139.668 156.164 139.716 156.403 139.808 156.626C139.9 156.85 140.036 157.053 140.207 157.224C140.378 157.395 140.581 157.53 140.804 157.623C141.028 157.715 141.267 157.763 141.509 157.763L189.832 157.762Z" fill="#0F2167"/>
<path opacity="0.05" d="M78.4034 151.227H11.1238C9.9779 151.227 9.04894 152.156 9.04894 153.302V199.755C9.04894 200.901 9.9779 201.83 11.1238 201.83H78.4034C79.5493 201.83 80.4783 200.901 80.4783 199.755V153.302C80.4783 152.156 79.5493 151.227 78.4034 151.227Z" fill="#0F2167"/>
<path opacity="0.05" d="M39.1297 166.58C41.9842 166.58 44.2982 164.266 44.2982 161.412C44.2982 158.557 41.9842 156.243 39.1297 156.243C36.2752 156.243 33.9612 158.557 33.9612 161.412C33.9612 164.266 36.2752 166.58 39.1297 166.58Z" fill="#0F2167"/>
<path opacity="0.05" d="M41.0789 185.066L56.0624 168.349C56.9978 167.305 58.3068 166.673 59.7056 166.588C61.1043 166.504 62.48 166.974 63.5343 167.897L80.4789 182.733V199.761C80.4789 200.033 80.4254 200.302 80.3215 200.553C80.2176 200.803 80.0654 201.031 79.8734 201.223C79.6814 201.415 79.4535 201.568 79.2027 201.671C78.9519 201.775 78.6831 201.829 78.4116 201.829H59.9959" fill="#0F2167"/>
<path opacity="0.1" d="M59.9959 201.83L27.5068 173.039C26.5468 172.188 25.3118 171.712 24.029 171.699C22.7462 171.686 21.5019 172.137 20.5249 172.969L9.04894 182.733V199.959C9.04894 200.455 9.2459 200.931 9.5965 201.281C9.9471 201.632 10.4226 201.829 10.9184 201.829L59.9959 201.83Z" fill="#0F2167"/>
<path d="M182.355 203.394C182.282 203.394 182.212 203.365 182.16 203.313C181.772 202.925 181.139 195.802 179.435 174.596C178.737 165.919 178.079 157.723 177.598 152.743C177.564 152.387 177.426 152.345 177.38 152.332C176.722 152.133 174.721 153.712 173.604 155.093C173.557 155.147 173.491 155.182 173.419 155.188C173.348 155.195 173.276 155.173 173.22 155.128C173.165 155.083 173.128 155.018 173.12 154.946C173.112 154.875 173.131 154.803 173.175 154.746C173.914 153.832 176.322 151.437 177.539 151.803C177.784 151.877 178.089 152.09 178.146 152.689C178.627 157.674 179.286 165.872 179.984 174.551C181.019 187.438 182.193 202.037 182.578 202.956C182.608 202.997 182.625 203.046 182.629 203.096C182.633 203.147 182.622 203.198 182.599 203.243C182.576 203.288 182.541 203.326 182.498 203.352C182.455 203.378 182.405 203.392 182.354 203.392L182.355 203.394Z" fill="black"/>
<path d="M176.89 161.883C181.462 158.219 182.978 152.514 180.275 149.142C177.572 145.771 171.675 146.008 167.103 149.673C162.531 153.338 161.015 159.042 163.718 162.414C166.421 165.786 172.318 165.548 176.89 161.883Z" fill="#0F2167"/>
<path opacity="0.2" d="M176.89 161.883C181.462 158.219 182.978 152.514 180.275 149.142C177.572 145.771 171.675 146.008 167.103 149.673C162.531 153.338 161.015 159.042 163.718 162.414C166.421 165.786 172.318 165.548 176.89 161.883Z" fill="white"/>
<path d="M164.999 163.272C164.973 163.272 164.948 163.264 164.926 163.25C164.904 163.236 164.886 163.216 164.875 163.192C164.864 163.169 164.86 163.142 164.863 163.116C164.866 163.09 164.877 163.066 164.894 163.046L177.924 147.333C177.947 147.304 177.981 147.287 178.017 147.283C178.054 147.28 178.09 147.291 178.118 147.314C178.146 147.338 178.164 147.371 178.167 147.408C178.171 147.444 178.16 147.48 178.136 147.508L165.104 163.222C165.092 163.237 165.076 163.25 165.057 163.258C165.039 163.267 165.02 163.272 164.999 163.272Z" fill="white"/>
<path d="M185.197 200.026C185.166 200.026 185.135 200.021 185.106 200.011C185.037 199.987 184.981 199.936 184.949 199.87C184.917 199.805 184.913 199.729 184.937 199.66L189.831 185.585C189.975 185.171 190.22 184.8 190.545 184.506C190.869 184.212 191.262 184.004 191.688 183.902C192.114 183.799 192.558 183.805 192.981 183.919C193.404 184.033 193.792 184.251 194.108 184.553L196.696 187.025C196.722 187.05 196.743 187.08 196.758 187.113C196.772 187.146 196.78 187.182 196.781 187.218C196.782 187.254 196.776 187.29 196.762 187.324C196.749 187.357 196.73 187.388 196.705 187.414C196.68 187.441 196.65 187.462 196.617 187.476C196.584 187.491 196.548 187.499 196.512 187.5C196.476 187.5 196.44 187.494 196.406 187.481C196.372 187.468 196.341 187.448 196.315 187.423L193.728 184.952C193.478 184.713 193.172 184.54 192.838 184.451C192.504 184.361 192.153 184.356 191.816 184.437C191.48 184.518 191.17 184.683 190.914 184.915C190.658 185.147 190.464 185.44 190.35 185.767L185.456 199.844C185.437 199.897 185.401 199.943 185.355 199.976C185.309 200.008 185.254 200.026 185.197 200.026Z" fill="black"/>
<path d="M203.927 194.816C207.315 192.134 207.114 186.236 203.477 181.641C199.84 177.046 194.146 175.496 190.757 178.178C187.369 180.86 187.57 186.759 191.207 191.353C194.844 195.948 200.539 197.498 203.927 194.816Z" fill="#0F2167"/>
<path d="M180.132 202.497C180.07 202.497 180.009 202.476 179.961 202.437C179.912 202.399 179.878 202.345 179.864 202.285L171.65 167.941C171.594 167.707 171.475 167.493 171.305 167.322C171.135 167.151 170.921 167.031 170.687 166.974C170.454 166.917 170.208 166.925 169.979 166.998C169.75 167.072 169.545 167.207 169.387 167.389L166.856 170.315C166.808 170.37 166.74 170.404 166.667 170.409C166.594 170.414 166.522 170.391 166.467 170.343C166.412 170.295 166.378 170.227 166.372 170.154C166.367 170.081 166.391 170.009 166.439 169.954L168.97 167.028C169.194 166.769 169.485 166.577 169.811 166.473C170.137 166.369 170.486 166.357 170.818 166.438C171.151 166.519 171.454 166.69 171.696 166.933C171.937 167.176 172.107 167.48 172.186 167.813L180.4 202.157C180.41 202.197 180.41 202.239 180.401 202.28C180.392 202.321 180.374 202.359 180.348 202.391C180.323 202.424 180.29 202.45 180.252 202.469C180.215 202.487 180.174 202.496 180.132 202.496L180.132 202.497Z" fill="black"/>
<path d="M177.102 177.946C178.1 172.172 175.458 166.895 171.2 166.158C166.942 165.422 162.68 169.506 161.682 175.28C160.683 181.054 163.326 186.331 167.584 187.068C171.842 187.804 176.103 183.72 177.102 177.946Z" fill="#0F2167"/>
<path d="M182.356 203.394C182.344 203.394 182.333 203.393 182.322 203.392C182.249 203.383 182.183 203.345 182.138 203.288C182.093 203.23 182.073 203.157 182.082 203.085L187.327 160.499C187.384 160.036 187.574 159.598 187.874 159.24C188.174 158.881 188.571 158.617 189.017 158.479C189.464 158.341 189.94 158.334 190.39 158.46C190.84 158.586 191.244 158.84 191.554 159.19L197.549 165.98C197.574 166.007 197.594 166.038 197.606 166.073C197.619 166.108 197.625 166.144 197.623 166.181C197.621 166.218 197.612 166.254 197.596 166.287C197.58 166.32 197.557 166.35 197.53 166.374C197.502 166.399 197.47 166.417 197.435 166.429C197.4 166.441 197.363 166.445 197.326 166.442C197.289 166.44 197.254 166.429 197.221 166.412C197.188 166.395 197.159 166.372 197.136 166.344L191.141 159.554C190.902 159.283 190.589 159.087 190.242 158.99C189.894 158.892 189.525 158.897 189.18 159.004C188.835 159.111 188.528 159.315 188.296 159.592C188.065 159.869 187.918 160.207 187.874 160.566L182.629 203.152C182.62 203.219 182.588 203.28 182.538 203.325C182.488 203.369 182.423 203.394 182.356 203.394Z" fill="black"/>
<path d="M203.698 169.754C205.789 165.972 203.328 160.608 198.201 157.772C193.073 154.935 187.221 155.701 185.129 159.483C183.038 163.264 185.499 168.629 190.626 171.465C195.754 174.301 201.606 173.535 203.698 169.754Z" fill="#0F2167"/>
<path opacity="0.2" d="M203.927 194.816C207.315 192.134 207.114 186.236 203.477 181.641C199.84 177.046 194.146 175.496 190.757 178.178C187.369 180.86 187.57 186.759 191.207 191.353C194.844 195.948 200.539 197.498 203.927 194.816Z" fill="white"/>
<path opacity="0.5" d="M177.102 177.946C178.1 172.172 175.458 166.895 171.2 166.158C166.942 165.422 162.68 169.506 161.682 175.28C160.683 181.054 163.326 186.331 167.584 187.068C171.842 187.804 176.103 183.72 177.102 177.946Z" fill="white"/>
<path opacity="0.5" d="M203.698 169.754C205.789 165.972 203.328 160.608 198.201 157.772C193.073 154.935 187.221 155.701 185.129 159.483C183.038 163.264 185.499 168.629 190.626 171.465C195.754 174.301 201.606 173.535 203.698 169.754Z" fill="white"/>
<path d="M189.064 239.528H175.647L173.423 196.599H191.287L189.064 239.528Z" fill="#0F2167"/>
<path opacity="0.3" d="M189.064 239.528H175.647L173.423 196.599H191.287L189.064 239.528Z" fill="white"/>
<path d="M203.927 194.953C203.906 194.953 203.886 194.948 203.867 194.939C203.849 194.93 203.832 194.917 203.819 194.9L190.65 178.262C190.639 178.248 190.63 178.232 190.625 178.214C190.62 178.197 190.619 178.179 190.621 178.161C190.623 178.143 190.629 178.125 190.637 178.11C190.646 178.094 190.658 178.08 190.672 178.069C190.686 178.057 190.703 178.049 190.72 178.044C190.737 178.039 190.756 178.038 190.774 178.04C190.792 178.042 190.809 178.047 190.825 178.056C190.841 178.065 190.855 178.077 190.866 178.091L204.036 194.729C204.052 194.75 204.062 194.774 204.065 194.8C204.068 194.826 204.064 194.852 204.052 194.875C204.041 194.898 204.023 194.918 204.001 194.932C203.979 194.946 203.954 194.953 203.928 194.953H203.927Z" fill="white"/>
<path d="M202.821 171.087C202.792 171.087 202.764 171.078 202.74 171.061L185.887 158.755C185.872 158.744 185.86 158.73 185.85 158.715C185.841 158.699 185.835 158.682 185.832 158.664C185.829 158.647 185.83 158.628 185.834 158.611C185.838 158.593 185.846 158.577 185.857 158.562C185.867 158.547 185.881 158.535 185.896 158.526C185.912 158.516 185.929 158.51 185.947 158.507C185.965 158.504 185.983 158.505 186 158.509C186.018 158.514 186.035 158.521 186.049 158.532L202.902 170.838C202.926 170.855 202.943 170.879 202.952 170.907C202.961 170.935 202.961 170.964 202.952 170.992C202.943 171.02 202.926 171.044 202.902 171.061C202.878 171.078 202.85 171.087 202.821 171.087H202.821Z" fill="white"/>
<path d="M166.9 186.889C166.887 186.889 166.875 186.888 166.864 186.885C166.828 186.875 166.798 186.852 166.78 186.821C166.762 186.789 166.757 186.751 166.766 186.716L172.131 166.615C172.135 166.597 172.143 166.581 172.154 166.566C172.165 166.551 172.179 166.538 172.195 166.529C172.21 166.52 172.228 166.513 172.246 166.511C172.264 166.508 172.283 166.51 172.301 166.514C172.318 166.519 172.335 166.527 172.35 166.539C172.364 166.55 172.376 166.564 172.385 166.58C172.394 166.596 172.4 166.614 172.402 166.632C172.404 166.65 172.402 166.669 172.397 166.686L167.032 186.787C167.025 186.816 167.007 186.842 166.983 186.861C166.959 186.879 166.93 186.889 166.9 186.889Z" fill="white"/>
<path d="M152.143 14.3327H75.0758C68.7003 14.3327 63.5319 19.5011 63.5319 25.8766V207.044C63.5319 213.419 68.7003 218.588 75.0758 218.588H152.143C158.518 218.588 163.687 213.419 163.687 207.044V25.8766C163.687 19.5011 158.518 14.3327 152.143 14.3327Z" fill="#0F2167"/>
<path d="M152.107 17.9372H75.1119C70.7342 17.9372 67.1853 21.4861 67.1853 25.8638V206.787C67.1853 211.164 70.7342 214.713 75.1119 214.713H152.107C156.485 214.713 160.034 211.164 160.034 206.787V25.8638C160.034 21.4861 156.485 17.9372 152.107 17.9372Z" fill="white"/>
<path d="M94.5934 16.447H132.625V20.3823C132.625 21.5107 132.177 22.5929 131.379 23.3907C130.58 24.1885 129.498 24.6367 128.37 24.6367H98.85C97.7213 24.6367 96.6389 24.1883 95.8408 23.3902C95.0427 22.5922 94.5943 21.5097 94.5943 20.3811V16.447H94.5934Z" fill="#0F2167"/>
<path d="M128.383 55.0779H98.836C95.0469 55.0779 91.9752 58.1496 91.9752 61.9387V91.4855C91.9752 95.2746 95.0469 98.3463 98.836 98.3463H128.383C132.172 98.3463 135.244 95.2746 135.244 91.4855V61.9387C135.244 58.1496 132.172 55.0779 128.383 55.0779Z" fill="white"/>
<path d="M128.382 98.6498H98.836C96.9366 98.6477 95.1155 97.8922 93.7724 96.5491C92.4293 95.206 91.6739 93.385 91.6718 91.4855V61.9387C91.6739 60.0393 92.4294 58.2183 93.7725 56.8753C95.1156 55.5322 96.9366 54.7767 98.836 54.7745H128.382C130.282 54.7767 132.103 55.5322 133.446 56.8753C134.789 58.2183 135.545 60.0393 135.547 61.9387V91.4855C135.545 93.385 134.789 95.206 133.446 96.5491C132.103 97.8922 130.282 98.6477 128.382 98.6498ZM98.836 55.3813C97.0975 55.3833 95.4307 56.0748 94.2014 57.3041C92.9721 58.5335 92.2806 60.2002 92.2786 61.9387V91.4855C92.2806 93.2241 92.9721 94.8908 94.2014 96.1201C95.4307 97.3495 97.0975 98.041 98.836 98.043H128.382C130.121 98.0411 131.788 97.3496 133.017 96.1202C134.247 94.8909 134.938 93.2241 134.94 91.4855V61.9387C134.938 60.2002 134.247 58.5334 133.017 57.304C131.788 56.0747 130.121 55.3832 128.382 55.3813H98.836Z" fill="#0F2167"/>
<path opacity="0.6" d="M126.418 133.738V139.393H84.6326C83.8827 139.393 83.1635 139.095 82.6332 138.565C82.1029 138.034 81.805 137.315 81.805 136.565C81.805 135.815 82.1029 135.096 82.6332 134.566C83.1635 134.035 83.8827 133.738 84.6326 133.738H126.418Z" fill="#0F2167"/>
<path d="M142.585 139.697H84.6335C84.2197 139.701 83.8092 139.623 83.4257 139.467C83.0422 139.312 82.6933 139.082 82.3993 138.791C82.1052 138.499 81.8718 138.153 81.7125 137.771C81.5532 137.389 81.4711 136.979 81.4711 136.565C81.4711 136.152 81.5532 135.742 81.7125 135.36C81.8718 134.978 82.1052 134.631 82.3993 134.34C82.6933 134.049 83.0422 133.819 83.4257 133.663C83.8092 133.508 84.2197 133.43 84.6335 133.434H142.585C143.411 133.442 144.199 133.776 144.78 134.362C145.36 134.948 145.686 135.74 145.686 136.565C145.686 137.391 145.36 138.182 144.78 138.769C144.199 139.355 143.411 139.689 142.585 139.697ZM84.6335 134.041C84.2997 134.037 83.9684 134.1 83.6589 134.225C83.3494 134.35 83.0677 134.535 82.8304 134.77C82.593 135.005 82.4045 135.285 82.2759 135.593C82.1473 135.901 82.0811 136.231 82.0811 136.565C82.0811 136.899 82.1473 137.23 82.2759 137.538C82.4045 137.846 82.593 138.126 82.8304 138.36C83.0677 138.595 83.3494 138.781 83.6589 138.906C83.9684 139.031 84.2997 139.094 84.6335 139.09H142.585C143.25 139.083 143.885 138.814 144.353 138.341C144.82 137.868 145.083 137.23 145.083 136.565C145.083 135.901 144.82 135.263 144.353 134.79C143.885 134.317 143.25 134.048 142.585 134.041H84.6335Z" fill="#0F2167"/>
<path opacity="0.8" d="M133.868 158.678H93.3508C90.9633 158.678 89.0278 160.614 89.0278 163.001V174.608C89.0278 176.996 90.9633 178.931 93.3508 178.931H133.868C136.256 178.931 138.191 176.996 138.191 174.608V163.001C138.191 160.614 136.256 158.678 133.868 158.678Z" fill="#0F2167"/>
<path d="M138.19 174.609V176.598C138.19 177.745 137.735 178.844 136.924 179.654C136.113 180.465 135.014 180.92 133.868 180.92H93.3504C92.2041 180.92 91.1048 180.465 90.2943 179.654C89.4837 178.844 89.0284 177.745 89.0284 176.598V174.609C89.0284 175.756 89.4837 176.855 90.2943 177.665C91.1048 178.476 92.2041 178.931 93.3504 178.931H133.868C135.014 178.931 136.113 178.476 136.924 177.665C137.734 176.855 138.19 175.756 138.19 174.609Z" fill="#0F2167"/>
<path d="M110.908 174.788C110.739 174.788 110.575 174.728 110.446 174.617L105.808 170.643C105.738 170.582 105.679 170.508 105.637 170.425C105.595 170.342 105.57 170.251 105.562 170.158C105.555 170.065 105.566 169.971 105.595 169.883C105.624 169.794 105.671 169.712 105.731 169.641C105.792 169.57 105.866 169.512 105.949 169.47C106.032 169.428 106.123 169.402 106.216 169.395C106.309 169.388 106.403 169.399 106.491 169.428C106.58 169.457 106.662 169.503 106.733 169.564L110.848 173.091L120.424 162.614C120.487 162.545 120.562 162.489 120.647 162.45C120.731 162.41 120.823 162.388 120.916 162.384C121.009 162.379 121.102 162.394 121.19 162.425C121.278 162.457 121.358 162.506 121.427 162.569C121.496 162.632 121.552 162.708 121.591 162.792C121.631 162.877 121.653 162.968 121.657 163.061C121.662 163.154 121.647 163.247 121.616 163.335C121.584 163.423 121.535 163.503 121.472 163.572L111.433 174.557C111.366 174.63 111.285 174.688 111.195 174.728C111.105 174.768 111.007 174.788 110.908 174.788Z" fill="white"/>
<path d="M113.609 87.5781C113.529 87.5781 113.452 87.5461 113.395 87.4892C113.338 87.4323 113.306 87.3552 113.306 87.2747V66.1494C113.306 66.0689 113.338 65.9918 113.395 65.9349C113.452 65.878 113.529 65.846 113.609 65.846C113.69 65.846 113.767 65.878 113.824 65.9349C113.881 65.9918 113.913 66.0689 113.913 66.1494V87.2747C113.913 87.3552 113.881 87.4323 113.824 87.4892C113.767 87.5461 113.69 87.5781 113.609 87.5781Z" fill="#0F2167"/>
<path d="M124.172 77.0156H103.047C102.966 77.0156 102.889 76.9837 102.832 76.9268C102.775 76.8699 102.743 76.7927 102.743 76.7122C102.743 76.6318 102.775 76.5546 102.832 76.4977C102.889 76.4408 102.966 76.4088 103.047 76.4088H124.172C124.253 76.4088 124.33 76.4408 124.387 76.4977C124.444 76.5546 124.475 76.6318 124.475 76.7122C124.475 76.7927 124.444 76.8699 124.387 76.9268C124.33 76.9837 124.253 77.0156 124.172 77.0156Z" fill="#0F2167"/>
<path d="M51.8146 90.3092L55.2011 85.0414C55.2755 84.9257 55.3732 84.8267 55.488 84.7508C55.6027 84.6748 55.7321 84.6236 55.8677 84.6004C56.0034 84.5772 56.1424 84.5825 56.2759 84.616C56.4094 84.6494 56.5344 84.7103 56.6431 84.7948C56.8387 84.957 56.9672 85.186 57.0037 85.4375C57.0401 85.689 56.9819 85.9451 56.8403 86.1561L56.1143 87.2859L60.028 84.7814C60.4582 84.4953 61.169 84.4195 61.4582 84.9234C61.5821 85.1101 61.6391 85.3332 61.62 85.5564C61.6008 85.7796 61.5065 85.9897 61.3526 86.1525C61.3562 86.1557 61.3595 86.1594 61.3623 86.1634C61.3642 86.1668 61.3656 86.1705 61.3666 86.1743L62.0304 85.7332C62.1533 85.6515 62.2929 85.5983 62.439 85.5775C62.5851 85.5566 62.734 85.5686 62.8749 85.6127C63.0158 85.6567 63.145 85.7316 63.2533 85.8319C63.3615 85.9322 63.446 86.0554 63.5006 86.1925C63.5822 86.4101 63.5867 86.6492 63.5132 86.8697C63.4397 87.0902 63.2927 87.2788 63.0968 87.4039L62.8143 87.5917C62.8163 87.6024 62.8163 87.6133 62.8143 87.6239C63.0345 87.5414 63.2769 87.5399 63.4981 87.6196C63.7193 87.6994 63.9049 87.8552 64.0218 88.0593C64.1431 88.2863 64.1743 88.5507 64.1092 88.7998C64.0442 89.0489 63.8876 89.2642 63.6708 89.403L62.9694 89.869C62.9839 89.8693 62.9982 89.8732 63.011 89.8802C63.0238 89.8872 63.0347 89.8972 63.0428 89.9093C63.0519 89.924 63.0565 89.9412 63.0558 89.9585C63.2723 89.9394 63.4891 89.9921 63.6727 90.1082C63.8564 90.2244 63.9969 90.3976 64.0725 90.6014C64.1475 90.8171 64.1476 91.0518 64.0727 91.2675C63.9977 91.4832 63.8522 91.6673 63.6596 91.79L57.7417 95.7235C56.9138 96.2739 55.9403 96.5644 54.9462 96.5579C53.9521 96.5513 52.9826 96.248 52.162 95.6868C51.4547 95.2028 50.9639 94.4621 50.7939 93.622C50.624 92.7819 50.7882 91.9087 51.2519 91.1878L51.8146 90.3092Z" fill="#E98862"/>
<g opacity="0.2">
<path d="M57.4923 88.65C57.5056 88.6699 57.5262 88.6837 57.5496 88.6886C57.5731 88.6934 57.5975 88.6888 57.6176 88.6757L61.3368 86.2893C61.3572 86.2762 61.3716 86.2555 61.3767 86.2318C61.3819 86.2081 61.3774 86.1833 61.3643 86.1629C61.3512 86.1425 61.3305 86.1282 61.3068 86.123C61.2831 86.1179 61.2583 86.1224 61.2379 86.1355L57.5187 88.5219C57.5085 88.5284 57.4998 88.5368 57.4929 88.5466C57.486 88.5564 57.4811 88.5676 57.4786 88.5793C57.476 88.591 57.4758 88.6031 57.4779 88.615C57.4801 88.6268 57.4845 88.638 57.4911 88.6481L57.4923 88.65Z" fill="#0C0C0C"/>
</g>
<g opacity="0.2">
<path d="M58.4983 90.3204C58.5116 90.3403 58.5322 90.3542 58.5557 90.359C58.5791 90.3639 58.6035 90.3593 58.6236 90.3462L62.7743 87.6809C62.7845 87.6745 62.7933 87.6661 62.8002 87.6562C62.8071 87.6464 62.8119 87.6352 62.8145 87.6235C62.8171 87.6117 62.8173 87.5995 62.8151 87.5877C62.813 87.5758 62.8085 87.5645 62.8019 87.5544C62.7882 87.5347 62.7675 87.521 62.744 87.5159C62.7205 87.5108 62.696 87.5148 62.6754 87.5271L58.5238 90.1912C58.5136 90.1976 58.5048 90.206 58.4979 90.2159C58.491 90.2258 58.4861 90.2369 58.4836 90.2487C58.481 90.2604 58.4808 90.2726 58.483 90.2845C58.4851 90.2963 58.4896 90.3076 58.4962 90.3177L58.4983 90.3204Z" fill="#0C0C0C"/>
</g>
<g opacity="0.2">
<path d="M59.579 92.1338C59.5923 92.1536 59.6128 92.1675 59.6362 92.1723C59.6596 92.1771 59.6839 92.1726 59.704 92.1596L63.0152 90.0359C63.0356 90.0228 63.0499 90.0021 63.0551 89.9784C63.0602 89.9547 63.0557 89.9299 63.0426 89.9095C63.0295 89.8891 63.0088 89.8748 62.9851 89.8696C62.9614 89.8645 62.9367 89.8689 62.9163 89.8821L59.6051 92.0058C59.5949 92.0123 59.5862 92.0207 59.5793 92.0306C59.5724 92.0404 59.5676 92.0516 59.565 92.0633C59.5625 92.0751 59.5623 92.0873 59.5645 92.0991C59.5667 92.1109 59.5712 92.1222 59.5778 92.1323L59.579 92.1338Z" fill="#0C0C0C"/>
</g>
<path d="M22.587 81.7649L38.2574 106.933L28.4133 105.332L51.321 87.6315L59.6685 98.4349L36.7608 116.135C36.0518 116.683 35.2419 117.086 34.3772 117.32C33.5126 117.555 32.6102 117.617 31.7215 117.503C30.8328 117.389 29.9753 117.102 29.1979 116.656C28.4205 116.211 27.7384 115.617 27.1906 114.908C27.1502 114.855 27.1097 114.801 27.0693 114.747L26.9158 114.535L9.59012 90.4761L22.587 81.7649Z" fill="#0F2167"/>
<path d="M18.1601 228.52C18.1601 228.52 19.2881 234.367 24.7631 234.693C30.2381 235.019 29.0506 239.38 29.0506 239.38H8.1307V228.928L18.1601 228.52Z" fill="#0F2167"/>
<path d="M11.7071 121.855C11.7071 121.855 11.7729 120.097 11.759 124.085C11.7071 138.957 11.4489 155.946 10.8184 165.887C9.80482 181.868 7.20568 232.252 7.20568 232.252L20.9535 232.136L34.2783 121.251L11.7071 121.855Z" fill="black"/>
<path d="M27.2321 139.393C27.2321 139.393 27.8019 150.186 27.9075 152.72C28.152 158.58 28.2366 164.647 28.2366 171.527L30.4037 153.493C30.4037 153.493 28.8179 147.843 27.2321 139.393Z" fill="#0A0A0A"/>
<path d="M42.6351 228.52C42.6351 228.52 43.7631 234.367 49.2378 234.693C54.7125 235.019 53.5253 239.38 53.5253 239.38H32.6039V228.928L42.6351 228.52Z" fill="#0F2167"/>
<path d="M49.2915 123.01C49.2915 123.01 50.5093 173.842 50.331 176.326L45.2182 231.867L31.6977 232.116L33.0153 174.317C33.0153 174.317 32.0857 158.373 28.2336 143.568C26.2626 135.97 25.0764 128.189 24.6936 120.349L49.2915 123.01Z" fill="black"/>
<path d="M11.5591 121.854L11.5141 121.856C11.5141 121.856 11.5454 120.989 11.5591 121.854Z" fill="#333333"/>
<path d="M51.2269 94.7948C50.9435 98.1257 49.5643 118.907 49.2915 123.01H11.7222C11.5099 119.309 10.5572 103.129 9.75234 95.8928C8.98415 88.9876 8.88009 85.4137 9.98503 83.3725C11.7905 80.0352 15.3201 78.2246 18.6841 77.7692C20.7384 77.4913 23.8278 77.292 23.8278 77.292C23.8278 77.292 24.089 82.584 30.3267 82.878C38.8176 83.2785 38.2509 77.2917 38.2928 77.2917C39.6683 77.2917 46.6129 77.9391 48.3841 79.3019C52.1692 82.2135 51.8288 87.7361 51.2269 94.7948Z" fill="#0F2167"/>
<path d="M41.7366 77.4828C41.6972 77.4777 40.6141 81.557 32.1531 80.9224C26.2962 80.4837 24.8682 76.4968 24.7338 76.4968C25.3654 76.3627 26.3909 76.2238 26.6712 76.0736C27.1558 75.8504 27.5823 75.5183 27.9174 75.1032C28.2526 74.6881 28.4874 74.2012 28.6035 73.6805C28.868 72.668 29.0027 68.7707 29.0027 66.8154L38.0146 68.8405C37.889 71.0461 37.0098 76.1597 40.0916 77.0648C40.6047 77.214 41.1568 77.3521 41.7366 77.4828Z" fill="#E98862"/>
<path d="M37.7033 73.1768C34.1504 73.4571 29.5862 71.9572 28.7194 67.217L27.9372 62.9392C27.0702 58.1991 28.8571 53.901 33.3203 53.0849C37.7834 52.2684 41.8222 55.5011 42.6889 60.2412L43.0354 62.135C43.3679 63.9559 44.0424 72.6768 37.7033 73.1768Z" fill="#E98862"/>
<path d="M40.9975 68.8246C40.3604 65.6202 40.0673 63.4826 40.1013 61.2269C40.9997 59.6514 40.7633 57.8429 40.5591 57.0616C41.1778 57.4545 41.9051 57.6409 42.6364 57.5941C42.6364 57.5941 41.1498 51.6322 36.1017 50.0279C35.1734 49.6665 32.8027 49.2102 29.655 49.6419C26.9776 50.009 20.3783 52.0108 19.4353 59.4414V59.4457C19.405 59.692 18.7706 66.5377 17.5073 69.8216C15.8083 74.2368 13.4249 75.6087 13.4853 80.7029C13.5623 87.197 29.3525 87.8754 32.8755 87.6375C40.1417 87.1472 44.1977 84.7583 44.2502 80.0361C44.3084 74.7444 42.2736 75.2359 40.9975 68.8246Z" fill="#0A0A0A"/>
<path d="M101.851 47.1254H53.1019C52.2716 47.1254 51.5986 47.7984 51.5986 48.6287V88.5887C51.5986 89.4189 52.2716 90.092 53.1019 90.092H101.851C102.681 90.092 103.354 89.4189 103.354 88.5887V48.6287C103.354 47.7984 102.681 47.1254 101.851 47.1254Z" fill="#0F2167"/>
<path opacity="0.3" d="M101.851 47.1254H53.1019C52.2716 47.1254 51.5986 47.7984 51.5986 48.6287V88.5887C51.5986 89.4189 52.2716 90.092 53.1019 90.092H101.851C102.681 90.092 103.354 89.4189 103.354 88.5887V48.6287C103.354 47.7984 102.681 47.1254 101.851 47.1254Z" fill="white"/>
<path opacity="0.8" d="M69.6494 64.1804C71.7177 64.1804 73.3944 62.5037 73.3944 60.4354C73.3944 58.3671 71.7177 56.6904 69.6494 56.6904C67.581 56.6904 65.9043 58.3671 65.9043 60.4354C65.9043 62.5037 67.581 64.1804 69.6494 64.1804Z" fill="white"/>
<path opacity="0.5" d="M74.8061 77.9449L85.6625 65.8336C86.3403 65.0773 87.289 64.6187 88.3027 64.5574C89.3165 64.4962 90.3135 64.8371 91.0774 65.5062L103.355 76.2559V90.0923H88.5135" fill="white"/>
<path opacity="0.8" d="M88.5135 90.0923L64.9726 69.2303C64.277 68.6139 63.3822 68.2693 62.4528 68.2599C61.5233 68.2505 60.6218 68.577 59.9139 69.1793L51.5986 76.2559V90.0923" fill="white"/>
<path d="M101.851 90.3204H53.1019C52.6435 90.3196 52.2042 90.1371 51.88 89.813C51.5559 89.4888 51.3734 89.0495 51.3726 88.5911V48.6287C51.3731 48.1701 51.5555 47.7304 51.8796 47.406C52.2037 47.0815 52.6433 46.8988 53.1019 46.8978H101.851C102.31 46.8984 102.75 47.0809 103.074 47.4054C103.399 47.7299 103.581 48.1698 103.582 48.6287V88.5887C103.582 89.0478 103.399 89.488 103.075 89.8127C102.75 90.1373 102.31 90.32 101.851 90.3204ZM53.1019 47.3529C52.7639 47.3537 52.44 47.4885 52.2012 47.7276C51.9624 47.9667 51.828 48.2907 51.8276 48.6287V88.5887C51.8284 88.9264 51.9629 89.2501 52.2017 89.4889C52.4405 89.7277 52.7642 89.8622 53.1019 89.8629H101.851C102.189 89.8626 102.513 89.7283 102.752 89.4895C102.991 89.2506 103.126 88.9267 103.127 88.5887V48.6287C103.126 48.2904 102.992 47.9662 102.753 47.727C102.513 47.4879 102.189 47.3533 101.851 47.3529H53.1019Z" fill="#0F2167"/>
<path d="M81.5659 90.3092L84.9523 85.0414C85.0267 84.9257 85.1244 84.8267 85.2392 84.7508C85.354 84.6748 85.4833 84.6236 85.619 84.6004C85.7546 84.5772 85.8936 84.5825 86.0271 84.616C86.1606 84.6494 86.2856 84.7103 86.3943 84.7948C86.59 84.9569 86.7186 85.1859 86.7551 85.4374C86.7916 85.6889 86.7334 85.945 86.5918 86.1561L85.8655 87.2859L89.7792 84.7814C90.2094 84.4953 90.9206 84.4195 91.2094 84.9234C91.3333 85.1101 91.3904 85.3332 91.3712 85.5564C91.352 85.7796 91.2578 85.9897 91.1038 86.1525C91.1075 86.1558 91.1108 86.1595 91.1138 86.1634C91.1155 86.1669 91.1168 86.1706 91.1178 86.1743L91.7816 85.7332C91.9045 85.6515 92.0441 85.5983 92.1902 85.5775C92.3363 85.5566 92.4852 85.5686 92.6261 85.6127C92.767 85.6567 92.8963 85.7316 93.0045 85.8319C93.1127 85.9322 93.1972 86.0554 93.2518 86.1925C93.3335 86.4101 93.3379 86.6492 93.2644 86.8697C93.1909 87.0902 93.0439 87.2788 92.848 87.4039L92.5656 87.5917C92.5674 87.6024 92.5674 87.6133 92.5656 87.6239C92.7857 87.5414 93.028 87.5399 93.2492 87.6197C93.4703 87.6994 93.6559 87.8552 93.7727 88.0593C93.894 88.2863 93.9252 88.5507 93.8602 88.7998C93.7951 89.0489 93.6385 89.2642 93.4217 89.403L92.7203 89.869C92.7349 89.8693 92.7491 89.8732 92.7619 89.8802C92.7747 89.8872 92.7856 89.8972 92.7937 89.9093C92.8029 89.924 92.8074 89.9412 92.8067 89.9585C93.0232 89.9394 93.24 89.9921 93.4237 90.1082C93.6073 90.2244 93.7478 90.3976 93.8234 90.6014C93.8986 90.817 93.8987 91.0518 93.8237 91.2675C93.7488 91.4833 93.6032 91.6674 93.4105 91.79L87.4926 95.7235C86.6647 96.2739 85.6913 96.5644 84.6972 96.5579C83.703 96.5513 82.7335 96.248 81.913 95.6868C81.2056 95.2028 80.7148 94.4621 80.5448 93.622C80.3749 92.7819 80.5392 91.9087 81.0028 91.1878L81.5659 90.3092Z" fill="#E98862"/>
<g opacity="0.2">
<path d="M87.2423 88.65C87.2556 88.6699 87.2762 88.6837 87.2996 88.6886C87.3231 88.6934 87.3475 88.6888 87.3676 88.6757L91.0868 86.2893C91.0969 86.2828 91.1057 86.2744 91.1125 86.2645C91.1193 86.2546 91.1242 86.2435 91.1267 86.2318C91.1293 86.2201 91.1295 86.2079 91.1274 86.1961C91.1252 86.1843 91.1208 86.173 91.1143 86.1629C91.1078 86.1528 91.0994 86.1441 91.0895 86.1373C91.0796 86.1304 91.0685 86.1256 91.0568 86.123C91.0451 86.1205 91.0329 86.1203 91.0211 86.1224C91.0093 86.1245 90.998 86.129 90.9879 86.1355L87.2687 88.5219C87.2585 88.5284 87.2498 88.5368 87.2429 88.5466C87.236 88.5564 87.2312 88.5676 87.2286 88.5793C87.226 88.591 87.2258 88.6031 87.228 88.615C87.2301 88.6268 87.2345 88.638 87.2411 88.6481L87.2423 88.65Z" fill="#0C0C0C"/>
</g>
<g opacity="0.2">
<path d="M88.2496 90.3204C88.2629 90.3403 88.2835 90.3542 88.307 90.359C88.3304 90.3639 88.3548 90.3593 88.3749 90.3462L92.5256 87.6809C92.5358 87.6745 92.5446 87.6661 92.5515 87.6562C92.5584 87.6464 92.5632 87.6352 92.5658 87.6235C92.5684 87.6117 92.5686 87.5995 92.5664 87.5877C92.5643 87.5758 92.5598 87.5645 92.5532 87.5544C92.5395 87.5347 92.5188 87.521 92.4953 87.5159C92.4718 87.5108 92.4473 87.5148 92.4267 87.5271L88.276 90.1903C88.2658 90.1967 88.257 90.2051 88.2501 90.215C88.2432 90.2249 88.2383 90.236 88.2358 90.2478C88.2332 90.2595 88.233 90.2717 88.2352 90.2835C88.2373 90.2954 88.2418 90.3067 88.2484 90.3168L88.2496 90.3204Z" fill="#0C0C0C"/>
</g>
<g opacity="0.2">
<path d="M89.3303 92.1338C89.3435 92.1536 89.3641 92.1675 89.3875 92.1723C89.4109 92.1771 89.4352 92.1726 89.4553 92.1596L92.7664 90.0359C92.7868 90.0228 92.8012 90.0021 92.8063 89.9784C92.8115 89.9547 92.807 89.9299 92.7939 89.9095C92.7808 89.8891 92.7601 89.8748 92.7364 89.8696C92.7127 89.8645 92.6879 89.8689 92.6675 89.8821L89.3567 92.0058C89.3465 92.0122 89.3377 92.0206 89.3308 92.0305C89.3239 92.0404 89.319 92.0515 89.3164 92.0633C89.3138 92.075 89.3136 92.0872 89.3158 92.099C89.318 92.1109 89.3225 92.1222 89.329 92.1323L89.3303 92.1338Z" fill="#0C0C0C"/>
</g>
<path d="M49.4928 80.5674L67.7999 106.638L58.1655 105.332L81.0729 87.6315L89.4203 98.4349L66.5126 116.135C65.0974 117.229 63.3092 117.723 61.5331 117.511C59.757 117.3 58.1351 116.399 57.0165 115.003L56.877 114.829L36.9771 89.9542L49.4928 80.5674Z" fill="#0F2167"/>
<path d="M0.303389 239.684H199.976C200.056 239.684 200.133 239.652 200.19 239.595C200.247 239.538 200.279 239.461 200.279 239.38C200.279 239.3 200.247 239.223 200.19 239.166C200.133 239.109 200.056 239.077 199.976 239.077H0.303389C0.222925 239.077 0.145757 239.109 0.0888607 239.166C0.0319641 239.223 0 239.3 0 239.38C0 239.461 0.0319641 239.538 0.0888607 239.595C0.145757 239.652 0.222925 239.684 0.303389 239.684Z" fill="black"/>
</svg>
