<svg width="276" height="185" viewBox="0 0 276 185" fill="none" xmlns="http://www.w3.org/2000/svg">
<g opacity="0.18">
<path d="M87.075 59.2004C87.7854 59.2004 88.3613 58.6245 88.3613 57.9141C88.3613 57.2037 87.7854 56.6278 87.075 56.6278C86.3646 56.6278 85.7887 57.2037 85.7887 57.9141C85.7887 58.6245 86.3646 59.2004 87.075 59.2004Z" fill="#FFECD6"/>
<path d="M99.1174 84.0768C100.409 84.0768 101.456 83.0298 101.456 81.7383C101.456 80.4468 100.409 79.3998 99.1174 79.3998C97.8259 79.3998 96.7789 80.4468 96.7789 81.7383C96.7789 83.0298 97.8259 84.0768 99.1174 84.0768Z" fill="#FFECD6"/>
<path d="M173.047 18.8646C174.339 18.8646 175.386 17.8176 175.386 16.5261C175.386 15.2346 174.339 14.1876 173.047 14.1876C171.756 14.1876 170.709 15.2346 170.709 16.5261C170.709 17.8176 171.756 18.8646 173.047 18.8646Z" fill="#FFECD6"/>
<path d="M98.9201 149.145C99.5888 149.145 100.131 148.603 100.131 147.934C100.131 147.266 99.5888 146.724 98.9201 146.724C98.2514 146.724 97.7093 147.266 97.7093 147.934C97.7093 148.603 98.2514 149.145 98.9201 149.145Z" fill="#FFECD6"/>
<path d="M205.657 121.634C207.539 121.634 209.065 120.108 209.065 118.226C209.065 116.344 207.539 114.819 205.657 114.819C203.775 114.819 202.25 116.344 202.25 118.226C202.25 120.108 203.775 121.634 205.657 121.634Z" fill="#FFECD6"/>
<path d="M85.1776 180.015C86.2256 180.015 87.0751 179.166 87.0751 178.118C87.0751 177.07 86.2256 176.22 85.1776 176.22C84.1296 176.22 83.28 177.07 83.28 178.118C83.28 179.166 84.1296 180.015 85.1776 180.015Z" fill="#FFECD6"/>
<path d="M231.02 6.76996C232.889 6.76996 234.405 5.25445 234.405 3.38498C234.405 1.51551 232.889 0 231.02 0C229.15 0 227.635 1.51551 227.635 3.38498C227.635 5.25445 229.15 6.76996 231.02 6.76996Z" fill="#FFECD6"/>
<path d="M209.087 66.5776C210.034 66.5776 210.802 65.8099 210.802 64.8629C210.802 63.9159 210.034 63.1482 209.087 63.1482C208.14 63.1482 207.372 63.9159 207.372 64.8629C207.372 65.8099 208.14 66.5776 209.087 66.5776Z" fill="#FFECD6"/>
<path d="M1.71468 104.299C2.66167 104.299 3.42936 103.531 3.42936 102.584C3.42936 101.637 2.66167 100.87 1.71468 100.87C0.767688 100.87 0 101.637 0 102.584C0 103.531 0.767688 104.299 1.71468 104.299Z" fill="#FFECD6"/>
<path d="M148.911 105.201C150.156 105.201 151.165 104.192 151.165 102.948C151.165 101.704 150.156 100.695 148.911 100.695C147.667 100.695 146.658 101.704 146.658 102.948C146.658 104.192 147.667 105.201 148.911 105.201Z" fill="#FFECD6"/>
<path d="M125.573 168.624C126.507 168.624 127.265 167.866 127.265 166.931C127.265 165.997 126.507 165.239 125.573 165.239C124.638 165.239 123.88 165.997 123.88 166.931C123.88 167.866 124.638 168.624 125.573 168.624Z" fill="#FFECD6"/>
<path d="M242.534 79.0804C244.5 79.0804 246.093 77.4865 246.093 75.5204C246.093 73.5543 244.5 71.9604 242.534 71.9604C240.567 71.9604 238.974 73.5543 238.974 75.5204C238.974 77.4865 240.567 79.0804 242.534 79.0804Z" fill="#FFECD6"/>
<path d="M261.592 30.9838C262.748 30.9838 263.686 30.0462 263.686 28.8896C263.686 27.733 262.748 26.7953 261.592 26.7953C260.435 26.7953 259.497 27.733 259.497 28.8896C259.497 30.0462 260.435 30.9838 261.592 30.9838Z" fill="#FFECD6"/>
<path d="M144.381 149.438C145.639 149.438 146.658 148.419 146.658 147.162C146.658 145.904 145.639 144.885 144.381 144.885C143.124 144.885 142.105 145.904 142.105 147.162C142.105 148.419 143.124 149.438 144.381 149.438Z" fill="#FFECD6"/>
<path d="M217.367 184.69C218.852 184.69 220.056 183.486 220.056 182C220.056 180.515 218.852 179.311 217.367 179.311C215.881 179.311 214.677 180.515 214.677 182C214.677 183.486 215.881 184.69 217.367 184.69Z" fill="#FFECD6"/>
<path d="M272.615 117.396C274.484 117.396 276 115.88 276 114.011C276 112.141 274.484 110.626 272.615 110.626C270.746 110.626 269.23 112.141 269.23 114.011C269.23 115.88 270.746 117.396 272.615 117.396Z" fill="#FFECD6"/>
<path d="M267.471 68.9503C268.628 68.9503 269.566 68.0127 269.566 66.8561C269.566 65.6995 268.628 64.7619 267.471 64.7619C266.315 64.7619 265.377 65.6995 265.377 66.8561C265.377 68.0127 266.315 68.9503 267.471 68.9503Z" fill="#FFECD6"/>
<path d="M187.654 176.585C188.637 176.585 189.434 175.788 189.434 174.805C189.434 173.822 188.637 173.025 187.654 173.025C186.671 173.025 185.874 173.822 185.874 174.805C185.874 175.788 186.671 176.585 187.654 176.585Z" fill="#FFECD6"/>
</g>
</svg>
