<svg width="194" height="176" viewBox="0 0 194 176" fill="none" xmlns="http://www.w3.org/2000/svg">
<path d="M67.8729 65.3952C67.7807 65.3833 66.7588 82.3412 47.0584 80.8626C33.4198 79.841 28.5571 65.3713 28.2445 65.3713C29.7152 65.0588 31.5324 64.5845 32.2544 64.4218C34.6539 63.8811 37.6491 61.9012 38.3412 57.7305C38.7402 55.3269 38.0636 43.0294 38.2716 40.5976L59.2067 45.2703C58.914 50.4065 56.8667 62.3141 64.0424 64.4215C65.2365 64.7702 66.5224 65.0906 67.8729 65.3952Z" fill="#E98862"/>
<path opacity="0.52" d="M59.5 59.5552C59.1724 58.4983 58.9613 57.4088 58.8706 56.306C58.6405 53.7895 58.6864 51.2554 59.0075 48.7489C54.7525 48.1746 50.7438 46.4183 47.437 43.6796C47.0483 45.1154 44.9104 51.3885 45.5024 52.7528C46.6209 55.3319 51.8787 59.5552 59.5 59.5552Z" fill="#0C0C0C"/>
<path d="M66.0485 22.095C66.0485 22.095 70.8593 16.3613 69.9746 5.91442C69.2898 -2.17397 63.2329 4.56111 63.2329 4.56111C63.2329 4.56111 62.6831 -1.25812 58.7009 0.249402C54.7187 1.75693 53.7761 8.21851 53.7761 8.21851" fill="#0C0C0C"/>
<path d="M37.5846 5.8024C37.5846 5.8024 17.6739 12.6876 31.4179 38.6523L33.2521 38.3577L36.9753 37.7597" fill="#0C0C0C"/>
<path d="M56.7204 53.8131C48.5061 54.9433 37.702 52.0739 35.0495 41.1804L32.656 31.351C30.0035 20.4571 33.5747 10.233 43.8318 7.7354C54.0887 5.23776 63.9055 12.2023 66.558 23.0958L67.6177 27.4475C67.9555 28.9479 68.1906 30.4697 68.3214 32.0021C68.6972 36.0498 69.2527 42.2074 67.5166 46.8587C65.8776 51.2497 61.9687 53.0914 56.7204 53.8131Z" fill="#E98862"/>
<path opacity="0.52" d="M58.1571 42.9674C59.8354 42.6604 61.4181 41.9634 62.7775 40.9324C62.8346 40.8907 62.8728 40.828 62.8837 40.7581C62.8945 40.6882 62.8772 40.6169 62.8355 40.5598C62.7937 40.5027 62.731 40.4645 62.6611 40.4537C62.5912 40.4428 62.5199 40.4601 62.4628 40.5019C59.5164 42.6467 56.5029 43.1251 53.7488 41.8867C53.6929 41.86 53.6356 41.8363 53.5772 41.8155C53.51 41.7965 53.438 41.8046 53.3767 41.8381C53.3154 41.8716 53.2697 41.9278 53.2494 41.9947C53.2292 42.0616 53.236 42.1337 53.2684 42.1957C53.3008 42.2576 53.3562 42.3043 53.4227 42.3257C53.4441 42.3333 53.48 42.3499 53.53 42.3726C54.9788 43.0271 56.5899 43.2342 58.1571 42.9674Z" fill="#0C0C0C"/>
<path opacity="0.52" d="M58.6459 45.4465C58.9502 45.396 59.2497 45.3196 59.541 45.218C59.6047 45.1927 59.6563 45.1438 59.6849 45.0815C59.7136 45.0192 59.7171 44.9482 59.6948 44.8834C59.6724 44.8185 59.626 44.7648 59.565 44.7333C59.5041 44.7019 59.4334 44.6951 59.3676 44.7144C57.6136 45.3193 56.5665 44.693 56.5221 44.666C56.4624 44.6312 56.3914 44.621 56.3243 44.6376C56.2572 44.6542 56.1991 44.6961 56.1624 44.7547C56.1256 44.8133 56.1131 44.8838 56.1273 44.9515C56.1416 45.0191 56.1816 45.0786 56.2389 45.1173C56.9791 45.5018 57.8296 45.6182 58.6459 45.4465Z" fill="#0C0C0C"/>
<path d="M64.81 28.5546C65.5281 28.5546 66.1102 27.9725 66.1102 27.2545C66.1102 26.5365 65.5281 25.9544 64.81 25.9544C64.092 25.9544 63.5099 26.5365 63.5099 27.2545C63.5099 27.9725 64.092 28.5546 64.81 28.5546Z" fill="#0C0C0C"/>
<path d="M52.4495 31.4702C53.1675 31.4702 53.7496 30.8882 53.7496 30.1701C53.7496 29.4521 53.1675 28.87 52.4495 28.87C51.7315 28.87 51.1494 29.4521 51.1494 30.1701C51.1494 30.8882 51.7315 31.4702 52.4495 31.4702Z" fill="#0C0C0C"/>
<path d="M36.4947 44.344C33.3789 45.1028 30.0387 42.3836 29.2796 39.2665C28.5205 36.1495 30.6292 33.8152 33.7462 33.0561L35.8617 34.7537L39.1755 43.6919L36.4947 44.344Z" fill="#E98862"/>
<path d="M38.4492 38.605C38.4492 38.605 35.9481 22.9022 40.4162 20.8691C43.3919 19.5158 51.982 22.2016 58.6871 19.2508C61.6207 17.9604 64.7081 18.0492 65.3376 19.4302C65.5871 19.9772 65.6013 11.2914 59.3578 6.13847C54.3852 2.03605 41.5445 3.50896 36.2257 6.4532C21.4966 14.6045 33.2597 33.8854 33.2597 33.8854L35.1893 39.0535L38.4492 38.605Z" fill="#0C0C0C"/>
<g opacity="0.52">
<path d="M59.2076 38.8842L59.2277 38.8801C60.2326 38.6384 61.8915 38.1203 61.7115 37.3694C61.5611 36.7466 58.237 30.432 57.858 29.7141C57.8244 29.6542 57.7687 29.6098 57.7029 29.5904C57.637 29.571 57.5661 29.578 57.5054 29.6101C57.4447 29.6421 57.3989 29.6966 57.3777 29.762C57.3566 29.8273 57.3618 29.8983 57.3922 29.9599C58.867 32.7559 61.0972 37.0695 61.2004 37.4928C61.1444 37.6942 60.1464 38.1188 59.1056 38.3693C59.0398 38.3855 58.9828 38.4265 58.9464 38.4838C58.9101 38.541 58.8972 38.61 58.9104 38.6765C58.9237 38.743 58.9621 38.8018 59.0176 38.8407C59.0731 38.8796 59.1415 38.8957 59.2085 38.8854L59.2076 38.8842Z" fill="#0C0C0C"/>
</g>
<path d="M60.7393 25.0329C61.4532 24.4851 62.299 24.1351 63.1913 24.0183C63.6451 23.955 64.1058 23.961 64.5578 24.0359C65.0185 24.1101 65.4681 24.2419 65.896 24.428L65.9294 24.4412C66.0387 24.4852 66.1608 24.4851 66.27 24.4409C66.3793 24.3967 66.4671 24.3119 66.515 24.2043C66.563 24.0966 66.5673 23.9746 66.5271 23.8638C66.4869 23.7531 66.4053 23.6622 66.2995 23.6104C65.8119 23.3527 65.2938 23.1576 64.7574 23.0297C64.2118 22.8978 63.6495 22.8485 63.0893 22.8834C62.5274 22.9124 61.9721 23.0183 61.4389 23.1981C60.8885 23.3776 60.3666 23.6348 59.8889 23.9619C59.7392 24.0647 59.6365 24.2227 59.6033 24.4012C59.5701 24.5797 59.6091 24.7641 59.7119 24.9138C59.8146 25.0635 59.9726 25.1663 60.1512 25.1995C60.3297 25.2327 60.5141 25.1936 60.6638 25.0908C60.6779 25.0811 60.6918 25.0707 60.7053 25.0594L60.7393 25.0329Z" fill="#0C0C0C"/>
<path d="M53.0293 25.5037C52.4595 25.4011 51.878 25.3804 51.3024 25.4424C50.7423 25.4965 50.1922 25.6274 49.6677 25.8314C49.143 26.029 48.6508 26.3043 48.2077 26.6481C47.7704 26.9844 47.3774 27.3749 47.0382 27.81C46.963 27.9005 46.9258 28.0166 46.9344 28.134C46.9429 28.2513 46.9966 28.3608 47.0842 28.4394C47.1717 28.5181 47.2863 28.5597 47.4039 28.5557C47.5215 28.5516 47.6329 28.5022 47.7149 28.4178L47.7413 28.3904C48.0552 28.0452 48.4112 27.7409 48.801 27.4846C49.1825 27.2308 49.6004 27.0364 50.0404 26.908C50.9021 26.6489 51.8168 26.6214 52.6925 26.8284L52.7331 26.8391C52.9087 26.8853 53.0955 26.8599 53.2523 26.7684C53.4091 26.6769 53.5232 26.5269 53.5694 26.3513C53.6156 26.1757 53.5901 25.989 53.4986 25.8321C53.4071 25.6753 53.2571 25.5613 53.0815 25.5151C53.0645 25.5107 53.0457 25.5085 53.0293 25.5037Z" fill="#0C0C0C"/>
<path d="M55.2243 12.7351C57.4269 11.7193 58.0004 8.26745 56.5052 5.02525C55.01 1.78305 52.0122 -0.0217946 49.8096 0.99402C47.6069 2.00983 47.0334 5.46164 48.5286 8.70384C50.0239 11.946 53.0216 13.7509 55.2243 12.7351Z" fill="#0C0C0C"/>
<path d="M86.818 68.2737C82.6102 65.7811 67.0534 64.4215 64.0415 64.4215C63.9502 64.4215 65.1902 77.5234 46.609 76.6485C32.9563 76.0033 32.3835 64.4215 32.3835 64.4215C32.3835 64.4215 25.6232 64.859 21.1258 65.4664C13.7644 66.464 6.9318 70.7883 2.79319 77.9861C-1.35486 85.1995 -0.102262 90.0179 1.57836 105.131C3.11106 118.91 4.88925 147.502 5.62885 160.034C6.49748 160.711 7.38081 161.375 8.27882 162.027C8.83021 162.427 9.38738 162.821 9.95031 163.21C9.99123 163.238 10.0315 163.267 10.0727 163.295C10.6258 163.677 11.1842 164.054 11.748 164.424C11.7754 164.442 11.8018 164.46 11.8289 164.478C21.1331 170.586 31.8374 175.12 43.3815 175.856C61.9407 177.042 74.4667 170.672 88.0344 165.791C88.0061 164.938 87.9903 164.481 87.9903 164.481L87.8881 164.478H88.1131C88.7079 155.499 90.7631 110.019 91.3862 102.73C92.7033 87.2798 98.2834 75.0654 86.818 68.2737Z" fill="#3559E0"/>
<path d="M163.195 85.7906C163.314 85.4631 163.498 85.1633 163.737 84.9095C163.975 84.6556 164.263 84.453 164.582 84.314C164.902 84.1751 165.246 84.1026 165.594 84.1011C165.943 84.0996 166.288 84.1691 166.608 84.3054C167.22 84.5906 167.7 85.0972 167.952 85.7229C168.204 86.3486 168.209 87.0467 167.966 87.6761L166.787 90.9309L174.205 83.3666C175.127 82.3982 176.878 81.7999 177.896 82.9055C178.777 83.7452 180.816 84.0039 181.147 85.5775C181.158 85.5857 181.137 99.988 180.282 100.886C176.654 104.697 167.882 105.434 162.989 103.498L155.287 100.453L163.195 85.7906Z" fill="#E98862"/>
<g opacity="0.1">
<path d="M163.195 85.7906C163.314 85.4631 163.498 85.1633 163.737 84.9095C163.975 84.6556 164.263 84.453 164.582 84.314C164.902 84.1751 165.246 84.1026 165.594 84.1011C165.943 84.0996 166.288 84.1691 166.608 84.3054C167.22 84.5906 167.7 85.0972 167.952 85.7229C168.204 86.3486 168.209 87.0467 167.966 87.6761L166.787 90.9309L174.205 83.3666C175.127 82.3982 176.878 81.7999 177.896 82.9055C178.777 83.7452 180.816 84.0039 181.147 85.5775C181.158 85.5857 181.137 99.988 180.282 100.886C176.654 104.697 167.882 105.434 162.989 103.498L155.287 100.453L163.195 85.7906Z" fill="#0C0C0C"/>
</g>
<path d="M192.777 73.0483C192.777 72.6179 192.687 72.1922 192.514 71.7982C192.341 71.4041 192.088 71.0503 191.771 70.7592C191.454 70.4681 191.08 70.246 190.673 70.107C190.265 69.968 189.834 69.9152 189.405 69.9518L174.421 71.2311C173.083 71.3454 171.837 71.9574 170.929 72.9462C170.021 73.935 169.517 75.2286 169.517 76.571V102.112C169.517 102.936 169.845 103.727 170.427 104.31C171.01 104.892 171.8 105.22 172.625 105.22C173.033 105.22 173.437 105.14 173.814 104.983C174.191 104.827 174.534 104.598 174.822 104.31C175.111 104.021 175.34 103.678 175.496 103.301C175.652 102.924 175.732 102.52 175.732 102.112V82.192C175.732 81.7506 175.826 81.3142 176.008 80.912C176.19 80.5097 176.456 80.1509 176.787 79.8592C177.118 79.5676 177.508 79.3499 177.93 79.2207C178.352 79.0914 178.797 79.0535 179.235 79.1096L189.275 80.3949C189.712 80.451 190.157 80.4131 190.579 80.2838C191.001 80.1545 191.391 79.9368 191.723 79.6451C192.054 79.3534 192.319 78.9944 192.501 78.5921C192.683 78.1898 192.777 77.7534 192.777 77.3119V73.0483Z" fill="#FFECD6"/>
<path d="M172.625 105.534C171.717 105.533 170.848 105.172 170.206 104.531C169.564 103.889 169.203 103.019 169.202 102.112V76.571C169.195 75.1472 169.726 73.7732 170.689 72.7245C171.652 71.6759 172.976 71.0304 174.395 70.9173L189.38 69.6383C189.852 69.5979 190.328 69.656 190.776 69.8091C191.225 69.9621 191.637 70.2066 191.986 70.5272C192.335 70.8478 192.614 71.2375 192.804 71.6715C192.995 72.1054 193.093 72.5743 193.093 73.0483V77.3119C193.093 77.798 192.99 78.2786 192.79 78.7217C192.589 79.1647 192.297 79.5599 191.932 79.8811C191.567 80.2023 191.138 80.4421 190.673 80.5844C190.208 80.7267 189.718 80.7683 189.236 80.7065L179.197 79.4208C178.803 79.3706 178.404 79.4047 178.024 79.5209C177.645 79.6371 177.295 79.8327 176.997 80.0947C176.7 80.3567 176.461 80.6791 176.298 81.0405C176.134 81.4018 176.049 81.7938 176.049 82.1904V102.112C176.048 103.02 175.687 103.89 175.045 104.531C174.403 105.173 173.532 105.534 172.625 105.534ZM189.677 70.2539C189.596 70.2539 189.514 70.2577 189.432 70.2646L174.447 71.5436C173.186 71.6445 172.009 72.2186 171.153 73.1508C170.297 74.0831 169.825 75.3045 169.832 76.5701V102.112C169.84 102.848 170.137 103.551 170.66 104.068C171.183 104.585 171.889 104.876 172.625 104.876C173.361 104.876 174.067 104.585 174.589 104.068C175.112 103.551 175.41 102.848 175.418 102.112V82.192C175.418 81.7058 175.521 81.2253 175.722 80.7823C175.922 80.3393 176.214 79.944 176.579 79.6228C176.944 79.3016 177.373 79.0619 177.838 78.9196C178.303 78.7772 178.793 78.7356 179.275 78.7974L189.315 80.083C189.708 80.1332 190.108 80.099 190.487 79.9828C190.866 79.8666 191.216 79.671 191.514 79.409C191.811 79.147 192.05 78.8246 192.213 78.4633C192.377 78.102 192.462 77.71 192.462 77.3134V73.0483C192.462 72.309 192.169 71.5998 191.647 71.0761C191.125 70.5525 190.416 70.2572 189.677 70.2548L189.677 70.2539Z" fill="#0C0C0C"/>
<path d="M170.461 94.7967C170.586 94.3564 170.85 93.9688 171.215 93.693C171.58 93.4171 172.026 93.268 172.483 93.2684C172.477 93.2319 172.437 93.1472 172.501 93.1406L170.925 92.3752C170.456 92.1598 170.081 91.7819 169.868 91.3113C169.656 90.8407 169.621 90.3092 169.771 89.8149C169.934 89.3318 170.271 88.9264 170.716 88.6775C171.161 88.4286 171.683 88.3538 172.18 88.4676C172.173 88.4484 172.183 88.427 172.183 88.4062L171.535 88.0915C171.094 87.8866 170.737 87.5356 170.525 87.0979C170.313 86.6601 170.258 86.1625 170.371 85.6892C170.447 85.3939 170.589 85.1193 170.784 84.8852C170.98 84.6511 171.225 84.4633 171.502 84.3355C171.779 84.2076 172.081 84.1427 172.386 84.1456C172.691 84.1485 172.992 84.2191 173.266 84.3523L174.761 85.078C174.763 85.0692 174.758 85.0607 174.761 85.0525C174.764 85.0444 174.779 85.0393 174.785 85.0299C174.42 84.7384 174.166 84.3318 174.063 83.8766C173.96 83.4215 174.015 82.9449 174.218 82.525C174.673 81.4065 176.159 81.3643 177.125 81.8326L180.054 83.5472C180.506 83.8119 180.886 84.1842 181.159 84.6311C181.432 85.078 181.591 85.5855 181.62 86.1084C181.882 90.6335 182.281 102.468 179.197 100.971L171.605 97.2843C171.165 97.0557 170.814 96.6871 170.607 96.2367C170.399 95.7862 170.348 95.2795 170.461 94.7967Z" fill="#E98862"/>
<path d="M157.526 88.5957L119.04 119.354L92.7285 74.385L66.7714 89.5726L101.863 149.545L102.127 150.002C103.237 151.87 104.747 153.468 106.549 154.682C108.35 155.896 110.399 156.694 112.547 157.02C114.695 157.346 116.889 157.191 118.969 156.567C121.05 155.942 122.966 154.863 124.58 153.409L173.83 109.515L157.526 88.5957Z" fill="#3559E0"/>
<path d="M122.256 99.5918C122.256 99.1614 122.167 98.7357 121.993 98.3417C121.82 97.9476 121.567 97.5938 121.25 97.3028C120.933 97.0117 120.559 96.7896 120.152 96.6506C119.745 96.5117 119.313 96.4589 118.884 96.4955L103.9 97.7746C102.562 97.8888 101.316 98.5008 100.408 99.4897C99.5001 100.478 98.9963 101.772 98.9963 103.114V128.655C98.9963 129.479 99.3237 130.27 99.9064 130.853C100.489 131.436 101.28 131.763 102.104 131.763C102.512 131.763 102.916 131.683 103.293 131.527C103.67 131.37 104.013 131.141 104.301 130.853C104.59 130.564 104.819 130.222 104.975 129.845C105.131 129.467 105.211 129.063 105.211 128.655V108.735C105.211 108.294 105.306 107.858 105.487 107.455C105.669 107.053 105.935 106.694 106.266 106.403C106.597 106.111 106.987 105.893 107.409 105.764C107.831 105.635 108.276 105.597 108.714 105.653L118.754 106.938C119.191 106.994 119.636 106.957 120.058 106.827C120.48 106.698 120.87 106.48 121.201 106.189C121.533 105.897 121.798 105.538 121.98 105.136C122.162 104.734 122.256 104.297 122.256 103.856V99.5918Z" fill="#FFECD6"/>
<path d="M102.104 132.078C101.196 132.077 100.326 131.716 99.6843 131.075C99.0425 130.433 98.6815 129.563 98.6805 128.656V103.114C98.6728 101.691 99.2037 100.317 100.167 99.268C101.13 98.2194 102.454 97.5738 103.873 97.4608L118.858 96.1818C119.33 96.1415 119.805 96.1997 120.254 96.3527C120.703 96.5058 121.115 96.7504 121.464 97.0709C121.813 97.3915 122.092 97.7811 122.282 98.2151C122.473 98.649 122.571 99.1178 122.571 99.5918V103.856C122.571 104.342 122.468 104.823 122.268 105.266C122.067 105.709 121.775 106.104 121.41 106.425C121.045 106.746 120.616 106.986 120.151 107.128C119.687 107.271 119.197 107.312 118.715 107.251L108.675 105.965C108.281 105.915 107.882 105.949 107.503 106.065C107.123 106.181 106.773 106.377 106.475 106.639C106.178 106.901 105.939 107.223 105.776 107.584C105.612 107.946 105.528 108.338 105.528 108.735V128.655C105.527 129.562 105.166 130.433 104.524 131.075C103.882 131.716 103.012 132.077 102.104 132.078ZM119.156 96.7974C119.075 96.7974 118.993 96.8011 118.911 96.8081L103.926 98.0871C102.664 98.1877 101.487 98.7618 100.631 99.6943C99.7747 100.627 99.3028 101.849 99.31 103.114V128.656C99.3178 129.391 99.6155 130.094 100.138 130.611C100.661 131.129 101.367 131.419 102.103 131.419C102.839 131.419 103.545 131.129 104.068 130.611C104.59 130.094 104.888 129.391 104.896 128.656V108.735C104.896 108.249 105 107.769 105.2 107.326C105.4 106.883 105.692 106.487 106.057 106.166C106.422 105.845 106.851 105.605 107.316 105.463C107.781 105.321 108.271 105.279 108.753 105.341L118.793 106.626C119.186 106.677 119.586 106.642 119.965 106.526C120.344 106.41 120.695 106.215 120.992 105.953C121.29 105.691 121.529 105.368 121.692 105.007C121.855 104.645 121.94 104.253 121.94 103.857V99.5918C121.94 98.8524 121.647 98.1431 121.125 97.6195C120.603 97.0959 119.895 96.8006 119.155 96.7983L119.156 96.7974Z" fill="#0C0C0C"/>
<path d="M95.1034 107.396C95.2152 107.088 95.3887 106.806 95.6131 106.567C95.8376 106.328 96.1083 106.137 96.4089 106.006C96.7095 105.876 97.0335 105.807 97.3613 105.806C97.6891 105.804 98.0138 105.87 98.3155 105.998C98.8909 106.266 99.3429 106.743 99.5801 107.332C99.8174 107.921 99.8222 108.578 99.5936 109.17L98.9437 110.962L104.179 107.978C105.387 107.136 107.154 106.792 108.302 107.437C109.506 108.113 110.401 109.684 110.712 111.165C110.723 111.173 111.583 117.864 110.086 121.232C108.074 125.756 98.8776 129.74 94.2726 127.919L87.0245 125.053L95.1034 107.396Z" fill="#E98862"/>
<path d="M90.6258 118.11H90.6167C90.5807 118.109 90.5453 118.101 90.5125 118.086C90.4796 118.071 90.4501 118.05 90.4255 118.024C90.4009 117.998 90.3818 117.967 90.3693 117.933C90.3567 117.899 90.3509 117.863 90.3523 117.827L90.899 101.091C90.9031 101.019 90.9348 100.952 90.9876 100.902C91.0403 100.853 91.1101 100.826 91.1823 100.827C91.2182 100.828 91.2537 100.836 91.2865 100.851C91.3193 100.866 91.3488 100.887 91.3734 100.914C91.3979 100.94 91.417 100.971 91.4296 101.005C91.4422 101.038 91.448 101.074 91.4466 101.11L90.9 117.846C90.8976 117.917 90.8676 117.984 90.8165 118.034C90.7653 118.083 90.6969 118.111 90.6258 118.11Z" fill="#0C0C0C"/>
<path d="M92.2054 108.883L46.928 122.29L31.4751 81.499L1.3265 93.6586L23.8663 146.29L24.176 147.014C25.6463 150.418 28.3582 153.134 31.7598 154.609C35.1615 156.085 38.9975 156.209 42.4876 154.957L100.474 134.153L92.2054 108.883Z" fill="#3559E0"/>
<path d="M37.5808 156.087C34.6784 156.088 31.8391 155.24 29.4128 153.647C26.9865 152.054 25.0792 149.786 23.9259 147.123L23.6163 146.399L3.54604 104.65C3.51636 104.585 3.51339 104.51 3.53776 104.443C3.56212 104.376 3.61189 104.321 3.67639 104.29C3.74088 104.259 3.81496 104.254 3.88273 104.277C3.9505 104.3 4.00656 104.349 4.03889 104.413L24.1138 146.173L24.4286 146.909C25.8746 150.246 28.5359 152.908 31.8726 154.355C35.2093 155.803 38.9716 155.927 42.3964 154.702L100.131 133.987L92.0283 109.222L47.0059 122.554C46.9419 122.572 46.8733 122.567 46.8129 122.539C46.7525 122.511 46.7044 122.462 46.6776 122.401L34.0994 93.5296C34.0722 93.4634 34.072 93.3892 34.0989 93.3229C34.1258 93.2566 34.1776 93.2035 34.2431 93.1749C34.3087 93.1464 34.3829 93.1446 34.4497 93.1701C34.5166 93.1956 34.5708 93.2462 34.6007 93.3111L47.0811 121.961L92.1265 108.621C92.1947 108.601 92.2683 108.608 92.3313 108.641C92.3944 108.674 92.4421 108.73 92.4642 108.798L100.732 134.068C100.754 134.136 100.749 134.209 100.718 134.273C100.687 134.337 100.632 134.387 100.564 134.411L42.5812 155.216C40.9771 155.792 39.2854 156.087 37.5808 156.087Z" fill="#0C0C0C"/>
<path d="M39.1746 124.988C39.1086 124.989 39.0445 124.966 38.9942 124.923C38.9439 124.881 38.9107 124.821 38.9008 124.756C38.8908 124.691 38.9048 124.624 38.9402 124.569C38.9755 124.513 39.0298 124.472 39.0931 124.453L46.8466 122.03C46.915 122.011 46.988 122.019 47.0503 122.053C47.1126 122.087 47.1593 122.144 47.1804 122.212C47.2016 122.279 47.1956 122.353 47.1637 122.416C47.1319 122.48 47.0766 122.528 47.0096 122.551L39.2558 124.975C39.2295 124.983 39.2021 124.988 39.1746 124.988Z" fill="#0C0C0C"/>
<path d="M46.8654 31.6056L32.0794 33.4552C31.8913 33.4788 31.7005 33.465 31.5177 33.4148C31.335 33.3646 31.1639 33.2788 31.0143 33.1625C30.8647 33.0461 30.7395 32.9015 30.6458 32.7367C30.5521 32.572 30.4918 32.3904 30.4683 32.2023C30.4208 31.8225 30.5262 31.4395 30.7611 31.1373C30.9961 30.8352 31.3414 30.6388 31.7212 30.5912L46.5072 28.7416L46.8654 31.6056Z" fill="#FFECD6"/>
<path d="M31.8992 33.7809C31.4519 33.7807 31.0216 33.61 30.6958 33.3037C30.37 32.9973 30.1733 32.5782 30.1456 32.1319C30.118 31.6855 30.2616 31.2454 30.5471 30.9011C30.8326 30.5569 31.2385 30.3344 31.6823 30.279L46.4683 28.4294C46.5093 28.4238 46.5509 28.4265 46.5908 28.4373C46.6307 28.4481 46.6681 28.4668 46.7006 28.4923C46.7332 28.5177 46.7606 28.5492 46.7811 28.5851C46.8015 28.621 46.8147 28.6606 46.8199 28.7016L47.178 31.5656C47.1884 31.6484 47.1654 31.7319 47.1142 31.7978C47.0629 31.8636 46.9876 31.9065 46.9049 31.9168L32.1185 33.7665C32.0458 33.7758 31.9725 33.7806 31.8992 33.7809ZM46.2342 29.0916L31.7604 30.9025C31.4634 30.9396 31.1934 31.0932 31.0097 31.3294C30.826 31.5657 30.7436 31.8652 30.7808 32.1622C30.8179 32.4591 30.9715 32.7291 31.2078 32.9128C31.444 33.0965 31.7435 33.1789 32.0405 33.1417L46.5143 31.3311L46.2342 29.0916Z" fill="#0C0C0C"/>
<path d="M71.9489 29.9316L71.1529 23.5675C71.0171 22.4822 70.4557 21.4952 69.5922 20.8237C68.7287 20.1523 67.6339 19.8513 66.5485 19.9869L46.1683 22.5362C46.0093 22.5568 45.8517 22.5866 45.6962 22.6256L42.6894 23.0017C42.1519 23.0687 41.6329 23.2411 41.162 23.5088C40.6911 23.7765 40.2777 24.1344 39.9452 24.562C39.6127 24.9896 39.3677 25.4785 39.2242 26.0008C39.0808 26.5232 39.0416 27.0686 39.1091 27.6061L39.905 33.9701C39.9721 34.5076 40.1444 35.0266 40.4121 35.4974C40.6799 35.9683 41.0378 36.3818 41.4654 36.7143C41.8929 37.0468 42.3819 37.2917 42.9042 37.4352C43.4265 37.5787 43.972 37.6178 44.5094 37.5504L64.8893 35.0011C65.0483 34.9804 65.2059 34.9506 65.3614 34.9117L68.3679 34.5341C68.9053 34.4671 69.4242 34.2949 69.895 34.0273C70.3658 33.7597 70.7793 33.402 71.1118 32.9746C71.4443 32.5472 71.6894 32.0585 71.833 31.5363C71.9767 31.0142 72.016 30.4689 71.9489 29.9316Z" fill="#FFECD6"/>
<path d="M43.9949 37.8975C42.9139 37.8954 41.8707 37.4995 41.0605 36.7839C40.2503 36.0682 39.7287 35.0819 39.5931 34.0094L38.7969 27.6454C38.6509 26.4772 38.9749 25.2989 39.6976 24.3696C40.4203 23.4402 41.4825 22.836 42.6507 22.6898L45.6406 22.3159C45.8019 22.276 45.9654 22.2454 46.1303 22.2243L66.5105 19.6751C67.0889 19.6025 67.676 19.6447 68.2382 19.7991C68.8004 19.9535 69.3266 20.2172 69.7868 20.5751C70.247 20.933 70.6322 21.3781 70.9204 21.8849C71.2085 22.3917 71.3939 22.9503 71.4661 23.5288L72.262 29.8925C72.3346 30.471 72.2925 31.0582 72.1381 31.6204C71.9837 32.1826 71.72 32.7088 71.3621 33.1691C71.0042 33.6293 70.5591 34.0145 70.0523 34.3027C69.5455 34.5909 68.9868 34.7763 68.4083 34.8485L65.4184 35.2224C65.257 35.2619 65.0935 35.2924 64.9287 35.314L44.5485 37.8632C44.3648 37.8861 44.1799 37.8976 43.9949 37.8975ZM67.0682 20.2692C66.9075 20.2699 66.747 20.2804 66.5876 20.3007L46.2074 22.85C46.0606 22.8692 45.9151 22.8968 45.7715 22.9328C45.7597 22.9357 45.7477 22.9379 45.7356 22.9394L42.7287 23.3155C41.7267 23.442 40.8157 23.9608 40.1957 24.7582C39.5757 25.5555 39.2973 26.5663 39.4216 27.5686L40.2176 33.9326C40.3442 34.9347 40.863 35.8456 41.6604 36.4656C42.4577 37.0856 43.4684 37.364 44.4707 37.2398L64.8509 34.6905C64.9978 34.6713 65.1435 34.6437 65.2872 34.6077C65.299 34.6049 65.311 34.6026 65.323 34.6011L68.3293 34.225C69.3314 34.0986 70.2425 33.5798 70.8625 32.7824C71.4826 31.985 71.761 30.9743 71.6367 29.9719L70.8408 23.6081C70.7252 22.6884 70.2784 21.8423 69.584 21.2283C68.8895 20.6142 67.9951 20.2743 67.0682 20.2721V20.2692Z" fill="#0C0C0C"/>
<path d="M70.2135 19.5597L49.8338 22.109C47.5735 22.3917 45.9704 24.4532 46.2531 26.7135L47.0492 33.0773C47.3319 35.3376 49.3934 36.9407 51.6537 36.658L72.0334 34.1087C74.2936 33.826 75.8967 31.7645 75.614 29.5042L74.818 23.1404C74.5352 20.8801 72.4737 19.277 70.2135 19.5597Z" fill="#FFECD6"/>
<path d="M51.1331 37.0043C50.0527 37.0019 49.0103 36.6056 48.2011 35.8898C47.3919 35.1739 46.8715 34.1876 46.7374 33.1156L45.9414 26.7516C45.8687 26.1731 45.9107 25.5859 46.065 25.0236C46.2194 24.4613 46.483 23.9349 46.8409 23.4746C47.1988 23.0142 47.6439 22.6289 48.1507 22.3407C48.6576 22.0524 49.2163 21.8669 49.7949 21.7947L70.1751 19.2455C71.343 19.1009 72.5206 19.4255 73.4496 20.1479C74.3786 20.8703 74.9832 21.9317 75.1307 23.0992L75.9267 29.4633C76.0716 30.6312 75.7472 31.8089 75.0248 32.738C74.3023 33.667 73.2408 34.2716 72.0732 34.4189L51.693 36.9682C51.5073 36.9918 51.3203 37.0038 51.1331 37.0043ZM70.7287 19.8412C70.5697 19.8412 70.4109 19.8512 70.2532 19.8711L49.8729 22.4204C49.3765 22.4823 48.8971 22.6415 48.4622 22.8887C48.0273 23.136 47.6454 23.4665 47.3383 23.8614C47.0312 24.2564 46.8049 24.7079 46.6723 25.1903C46.5398 25.6727 46.5036 26.1765 46.5658 26.6729L47.3618 33.0369C47.4237 33.5334 47.5829 34.0129 47.8302 34.4478C48.0775 34.8828 48.4081 35.2647 48.8031 35.5718C49.198 35.879 49.6497 36.1052 50.1322 36.2377C50.6146 36.3702 51.1185 36.4064 51.6149 36.3441L71.9952 33.7948C72.9972 33.6682 73.9081 33.1493 74.5281 32.352C75.1481 31.5547 75.4265 30.544 75.3023 29.5416L74.506 23.1795C74.39 22.2589 73.9425 21.4121 73.2472 20.7977C72.5519 20.1832 71.6566 19.8432 70.7287 19.8412Z" fill="#0C0C0C"/>
</svg>
